%TF.GenerationSoftware,KiCad,Pcbnew,7.0.8*%
%TF.CreationDate,2024-02-29T18:24:51+01:00*%
%TF.ProjectId,pendulo_invert,70656e64-756c-46f5-9f69-6e766572742e,rev?*%
%TF.SameCoordinates,Original*%
%TF.FileFunction,Soldermask,Bot*%
%TF.FilePolarity,Negative*%
%FSLAX46Y46*%
G04 Gerber Fmt 4.6, Leading zero omitted, Abs format (unit mm)*
G04 Created by KiCad (PCBNEW 7.0.8) date 2024-02-29 18:24:51*
%MOMM*%
%LPD*%
G01*
G04 APERTURE LIST*
G04 Aperture macros list*
%AMRoundRect*
0 Rectangle with rounded corners*
0 $1 Rounding radius*
0 $2 $3 $4 $5 $6 $7 $8 $9 X,Y pos of 4 corners*
0 Add a 4 corners polygon primitive as box body*
4,1,4,$2,$3,$4,$5,$6,$7,$8,$9,$2,$3,0*
0 Add four circle primitives for the rounded corners*
1,1,$1+$1,$2,$3*
1,1,$1+$1,$4,$5*
1,1,$1+$1,$6,$7*
1,1,$1+$1,$8,$9*
0 Add four rect primitives between the rounded corners*
20,1,$1+$1,$2,$3,$4,$5,0*
20,1,$1+$1,$4,$5,$6,$7,0*
20,1,$1+$1,$6,$7,$8,$9,0*
20,1,$1+$1,$8,$9,$2,$3,0*%
G04 Aperture macros list end*
%ADD10C,1.524000*%
%ADD11RoundRect,0.102000X-0.765000X-0.765000X0.765000X-0.765000X0.765000X0.765000X-0.765000X0.765000X0*%
%ADD12C,1.734000*%
%ADD13C,3.000000*%
G04 APERTURE END LIST*
D10*
%TO.C,U1*%
X138430000Y-81788000D03*
X138430000Y-84328000D03*
X138430000Y-86868000D03*
X138430000Y-89408000D03*
X138430000Y-91948000D03*
X138430000Y-94488000D03*
X138430000Y-97028000D03*
X138430000Y-99568000D03*
X122930000Y-81788000D03*
X122930000Y-84328000D03*
X122930000Y-86868000D03*
X122930000Y-89408000D03*
X122930000Y-91948000D03*
X122930000Y-94488000D03*
X122930000Y-97028000D03*
X122930000Y-99568000D03*
%TD*%
%TO.C,J3*%
X117088000Y-91948000D03*
%TD*%
D11*
%TO.C,U2*%
X149860000Y-73660000D03*
D12*
X149860000Y-76200000D03*
X149860000Y-78740000D03*
X149860000Y-81280000D03*
X149860000Y-83820000D03*
X149860000Y-86360000D03*
X149860000Y-88900000D03*
X149860000Y-91440000D03*
X149860000Y-93980000D03*
X149860000Y-96520000D03*
X149860000Y-99060000D03*
X149860000Y-101600000D03*
X149860000Y-104140000D03*
X149860000Y-106680000D03*
X149860000Y-109220000D03*
X149860000Y-111760000D03*
X149860000Y-114300000D03*
X149860000Y-116840000D03*
X149860000Y-119380000D03*
X175260000Y-119380000D03*
X175260000Y-116840000D03*
X175260000Y-114300000D03*
X175260000Y-111760000D03*
X175260000Y-109220000D03*
X175260000Y-106680000D03*
X175260000Y-104140000D03*
X175260000Y-101600000D03*
X175260000Y-99060000D03*
X175260000Y-96520000D03*
X175260000Y-93980000D03*
X175260000Y-91440000D03*
X175260000Y-88900000D03*
X175260000Y-86360000D03*
X175260000Y-83820000D03*
X175260000Y-81280000D03*
X175260000Y-78740000D03*
X175260000Y-76200000D03*
X175260000Y-73660000D03*
%TD*%
D13*
%TO.C,H4*%
X184404000Y-121412000D03*
%TD*%
%TO.C,H3*%
X120396000Y-121412000D03*
%TD*%
D10*
%TO.C,J6*%
X124206000Y-104140000D03*
%TD*%
%TO.C,J4*%
X117088000Y-94488000D03*
%TD*%
D13*
%TO.C,H2*%
X184404000Y-63246000D03*
%TD*%
D10*
%TO.C,J2*%
X117088000Y-89408000D03*
%TD*%
%TO.C,J5*%
X117088000Y-97028000D03*
%TD*%
%TO.C,J1*%
X124460000Y-109220000D03*
%TD*%
D13*
%TO.C,H1*%
X120396000Y-63246000D03*
%TD*%
D10*
%TO.C,U5*%
X185420000Y-91440000D03*
X185420000Y-93980000D03*
X185420000Y-96520000D03*
X185420000Y-99060000D03*
X185420000Y-101600000D03*
X185420000Y-104140000D03*
X185420000Y-106680000D03*
X185420000Y-109220000D03*
%TD*%
M02*
