%TF.GenerationSoftware,KiCad,Pcbnew,7.0.8*%
%TF.CreationDate,2024-03-14T17:11:55+01:00*%
%TF.ProjectId,pendulo_invert,70656e64-756c-46f5-9f69-6e766572742e,rev?*%
%TF.SameCoordinates,Original*%
%TF.FileFunction,Copper,L2,Bot*%
%TF.FilePolarity,Positive*%
%FSLAX46Y46*%
G04 Gerber Fmt 4.6, Leading zero omitted, Abs format (unit mm)*
G04 Created by KiCad (PCBNEW 7.0.8) date 2024-03-14 17:11:55*
%MOMM*%
%LPD*%
G01*
G04 APERTURE LIST*
%TA.AperFunction,ComponentPad*%
%ADD10C,1.524000*%
%TD*%
%TA.AperFunction,ComponentPad*%
%ADD11R,1.530000X1.530000*%
%TD*%
%TA.AperFunction,ComponentPad*%
%ADD12C,1.530000*%
%TD*%
%TA.AperFunction,Conductor*%
%ADD13C,1.494300*%
%TD*%
G04 APERTURE END LIST*
D10*
%TO.P,U1,1,PWMA*%
%TO.N,Net-(U1-PWMA)*%
X138430000Y-81788000D03*
%TO.P,U1,2,AIN2*%
%TO.N,Net-(U1-AIN2)*%
X138430000Y-84328000D03*
%TO.P,U1,3,AIN1*%
%TO.N,Net-(U1-AIN1)*%
X138430000Y-86868000D03*
%TO.P,U1,4,STBY*%
%TO.N,Net-(U1-STBY)*%
X138430000Y-89408000D03*
%TO.P,U1,5,BIN1*%
%TO.N,Net-(U1-BIN1)*%
X138430000Y-91948000D03*
%TO.P,U1,6,BIN2*%
%TO.N,Net-(U1-BIN2)*%
X138430000Y-94488000D03*
%TO.P,U1,7,PWMB*%
%TO.N,Net-(U1-PWMB)*%
X138430000Y-97028000D03*
%TO.P,U1,8,GND*%
%TO.N,GND*%
X138430000Y-99568000D03*
%TO.P,U1,9,VM*%
%TO.N,Net-(J1-Pin_1)*%
X122930000Y-81788000D03*
%TO.P,U1,10,VCC*%
%TO.N,Net-(U1-VCC)*%
X122930000Y-84328000D03*
%TO.P,U1,11,GND*%
%TO.N,GND*%
X122930000Y-86868000D03*
%TO.P,U1,12,AO1*%
%TO.N,Net-(J2-Pin_1)*%
X122930000Y-89408000D03*
%TO.P,U1,13,AO2*%
%TO.N,Net-(J3-Pin_1)*%
X122930000Y-91948000D03*
%TO.P,U1,14,B02*%
%TO.N,Net-(J4-Pin_1)*%
X122930000Y-94488000D03*
%TO.P,U1,15,BO1*%
%TO.N,Net-(J5-Pin_1)*%
X122930000Y-97028000D03*
%TO.P,U1,16,GND*%
%TO.N,GND*%
X122930000Y-99568000D03*
%TD*%
%TO.P,J3,1,Pin_1*%
%TO.N,Net-(J3-Pin_1)*%
X117088000Y-91948000D03*
%TD*%
D11*
%TO.P,U2,1,3V3*%
%TO.N,Net-(U1-VCC)*%
X149860000Y-73660000D03*
D12*
%TO.P,U2,2,EN*%
%TO.N,unconnected-(U2-EN-Pad2)*%
X149860000Y-76200000D03*
%TO.P,U2,3,SENSOR_VP*%
%TO.N,unconnected-(U2-SENSOR_VP-Pad3)*%
X149860000Y-78740000D03*
%TO.P,U2,4,SENSOR_VN*%
%TO.N,unconnected-(U2-SENSOR_VN-Pad4)*%
X149860000Y-81280000D03*
%TO.P,U2,5,IO34*%
%TO.N,unconnected-(U2-IO34-Pad5)*%
X149860000Y-83820000D03*
%TO.P,U2,6,IO35*%
%TO.N,unconnected-(U2-IO35-Pad6)*%
X149860000Y-86360000D03*
%TO.P,U2,7,IO32*%
%TO.N,Net-(U1-PWMA)*%
X149860000Y-88900000D03*
%TO.P,U2,8,IO33*%
%TO.N,Net-(U1-AIN2)*%
X149860000Y-91440000D03*
%TO.P,U2,9,IO25*%
%TO.N,Net-(U1-AIN1)*%
X149860000Y-93980000D03*
%TO.P,U2,10,IO26*%
%TO.N,Net-(U1-STBY)*%
X149860000Y-96520000D03*
%TO.P,U2,11,IO27*%
%TO.N,Net-(U1-BIN1)*%
X149860000Y-99060000D03*
%TO.P,U2,12,IO14*%
%TO.N,Net-(U1-BIN2)*%
X149860000Y-101600000D03*
%TO.P,U2,13,IO12*%
%TO.N,Net-(U1-PWMB)*%
X149860000Y-104140000D03*
%TO.P,U2,14,GND1*%
%TO.N,unconnected-(U2-GND1-Pad14)*%
X149860000Y-106680000D03*
%TO.P,U2,15,IO13*%
%TO.N,unconnected-(U2-IO13-Pad15)*%
X149860000Y-109220000D03*
%TO.P,U2,16,SD2*%
%TO.N,unconnected-(U2-SD2-Pad16)*%
X149860000Y-111760000D03*
%TO.P,U2,17,SD3*%
%TO.N,unconnected-(U2-SD3-Pad17)*%
X149860000Y-114300000D03*
%TO.P,U2,18,CMD*%
%TO.N,unconnected-(U2-CMD-Pad18)*%
X149860000Y-116840000D03*
%TO.P,U2,19,EXT_5V*%
%TO.N,Net-(U2-EXT_5V)*%
X149860000Y-119380000D03*
%TO.P,U2,20,CLK*%
%TO.N,unconnected-(U2-CLK-Pad20)*%
X175260000Y-119380000D03*
%TO.P,U2,21,SD0*%
%TO.N,unconnected-(U2-SD0-Pad21)*%
X175260000Y-116840000D03*
%TO.P,U2,22,SD1*%
%TO.N,unconnected-(U2-SD1-Pad22)*%
X175260000Y-114300000D03*
%TO.P,U2,23,IO15*%
%TO.N,unconnected-(U2-IO15-Pad23)*%
X175260000Y-111760000D03*
%TO.P,U2,24,IO2*%
%TO.N,Net-(U2-IO2)*%
X175260000Y-109220000D03*
%TO.P,U2,25,IO0*%
%TO.N,Net-(U2-IO0)*%
X175260000Y-106680000D03*
%TO.P,U2,26,IO4*%
%TO.N,Net-(U2-IO4)*%
X175260000Y-104140000D03*
%TO.P,U2,27,IO16*%
%TO.N,unconnected-(U2-IO16-Pad27)*%
X175260000Y-101600000D03*
%TO.P,U2,28,IO17*%
%TO.N,unconnected-(U2-IO17-Pad28)*%
X175260000Y-99060000D03*
%TO.P,U2,29,IO5*%
%TO.N,unconnected-(U2-IO5-Pad29)*%
X175260000Y-96520000D03*
%TO.P,U2,30,IO18*%
%TO.N,unconnected-(U2-IO18-Pad30)*%
X175260000Y-93980000D03*
%TO.P,U2,31,IO19*%
%TO.N,unconnected-(U2-IO19-Pad31)*%
X175260000Y-91440000D03*
%TO.P,U2,32,GND2*%
%TO.N,unconnected-(U2-GND2-Pad32)*%
X175260000Y-88900000D03*
%TO.P,U2,33,IO21*%
%TO.N,unconnected-(U2-IO21-Pad33)*%
X175260000Y-86360000D03*
%TO.P,U2,34,RXD0*%
%TO.N,unconnected-(U2-RXD0-Pad34)*%
X175260000Y-83820000D03*
%TO.P,U2,35,TXD0*%
%TO.N,unconnected-(U2-TXD0-Pad35)*%
X175260000Y-81280000D03*
%TO.P,U2,36,IO22*%
%TO.N,unconnected-(U2-IO22-Pad36)*%
X175260000Y-78740000D03*
%TO.P,U2,37,IO23*%
%TO.N,unconnected-(U2-IO23-Pad37)*%
X175260000Y-76200000D03*
%TO.P,U2,38,GND3*%
%TO.N,GND*%
X175260000Y-73660000D03*
%TD*%
D10*
%TO.P,J6,1,Pin_1*%
%TO.N,GND*%
X124206000Y-104140000D03*
%TD*%
%TO.P,J4,1,Pin_1*%
%TO.N,Net-(J4-Pin_1)*%
X117088000Y-94488000D03*
%TD*%
%TO.P,J2,1,Pin_1*%
%TO.N,Net-(J2-Pin_1)*%
X117088000Y-89408000D03*
%TD*%
%TO.P,J5,1,Pin_1*%
%TO.N,Net-(J5-Pin_1)*%
X117088000Y-97028000D03*
%TD*%
%TO.P,J1,1,Pin_1*%
%TO.N,Net-(J1-Pin_1)*%
X124460000Y-109220000D03*
%TD*%
%TO.P,U5,1,VCC*%
%TO.N,Net-(U1-VCC)*%
X185420000Y-91440000D03*
%TO.P,U5,2,GND*%
%TO.N,GND*%
X185420000Y-93980000D03*
%TO.P,U5,3,SCLK*%
%TO.N,Net-(U2-IO4)*%
X185420000Y-96520000D03*
%TO.P,U5,4,SDA*%
%TO.N,Net-(U2-IO0)*%
X185420000Y-99060000D03*
%TO.P,U5,5,XDA*%
%TO.N,unconnected-(U5-XDA-Pad5)*%
X185420000Y-101600000D03*
%TO.P,U5,6,XCLK*%
%TO.N,unconnected-(U5-XCLK-Pad6)*%
X185420000Y-104140000D03*
%TO.P,U5,7,ADO*%
%TO.N,unconnected-(U5-ADO-Pad7)*%
X185420000Y-106680000D03*
%TO.P,U5,8,INT*%
%TO.N,Net-(U2-IO2)*%
X185420000Y-109220000D03*
%TD*%
D13*
%TO.N,Net-(J1-Pin_1)*%
X119634000Y-85084000D02*
X119634000Y-104394000D01*
X119634000Y-104394000D02*
X124460000Y-109220000D01*
X122930000Y-81788000D02*
X119634000Y-85084000D01*
%TD*%
%TA.AperFunction,Conductor*%
%TO.N,GND*%
G36*
X189934539Y-58440185D02*
G01*
X189980294Y-58492989D01*
X189991500Y-58544500D01*
X189991500Y-126875500D01*
X189971815Y-126942539D01*
X189919011Y-126988294D01*
X189867500Y-126999500D01*
X115440500Y-126999500D01*
X115373461Y-126979815D01*
X115327706Y-126927011D01*
X115316500Y-126875500D01*
X115316500Y-121543187D01*
X118645500Y-121543187D01*
X118665794Y-121677823D01*
X118684604Y-121802615D01*
X118684605Y-121802617D01*
X118684606Y-121802623D01*
X118761938Y-122053326D01*
X118875767Y-122289696D01*
X118875768Y-122289697D01*
X118875770Y-122289700D01*
X118875772Y-122289704D01*
X119023567Y-122506479D01*
X119202014Y-122698801D01*
X119202018Y-122698804D01*
X119202019Y-122698805D01*
X119407143Y-122862386D01*
X119634357Y-122993568D01*
X119878584Y-123089420D01*
X120134370Y-123147802D01*
X120134376Y-123147802D01*
X120134379Y-123147803D01*
X120330500Y-123162500D01*
X120330506Y-123162500D01*
X120461500Y-123162500D01*
X120657620Y-123147803D01*
X120657622Y-123147802D01*
X120657630Y-123147802D01*
X120913416Y-123089420D01*
X121157643Y-122993568D01*
X121384857Y-122862386D01*
X121589981Y-122698805D01*
X121768433Y-122506479D01*
X121916228Y-122289704D01*
X122030063Y-122053323D01*
X122107396Y-121802615D01*
X122146499Y-121543187D01*
X182653500Y-121543187D01*
X182673794Y-121677823D01*
X182692604Y-121802615D01*
X182692605Y-121802617D01*
X182692606Y-121802623D01*
X182769938Y-122053326D01*
X182883767Y-122289696D01*
X182883768Y-122289697D01*
X182883770Y-122289700D01*
X182883772Y-122289704D01*
X183031567Y-122506479D01*
X183210014Y-122698801D01*
X183210018Y-122698804D01*
X183210019Y-122698805D01*
X183415143Y-122862386D01*
X183642357Y-122993568D01*
X183886584Y-123089420D01*
X184142370Y-123147802D01*
X184142376Y-123147802D01*
X184142379Y-123147803D01*
X184338500Y-123162500D01*
X184338506Y-123162500D01*
X184469500Y-123162500D01*
X184665620Y-123147803D01*
X184665622Y-123147802D01*
X184665630Y-123147802D01*
X184921416Y-123089420D01*
X185165643Y-122993568D01*
X185392857Y-122862386D01*
X185597981Y-122698805D01*
X185776433Y-122506479D01*
X185924228Y-122289704D01*
X186038063Y-122053323D01*
X186115396Y-121802615D01*
X186154500Y-121543182D01*
X186154500Y-121280818D01*
X186115396Y-121021385D01*
X186038063Y-120770677D01*
X185943216Y-120573724D01*
X185924232Y-120534303D01*
X185924231Y-120534302D01*
X185924230Y-120534301D01*
X185924228Y-120534296D01*
X185776433Y-120317521D01*
X185766441Y-120306753D01*
X185597985Y-120125198D01*
X185460010Y-120015167D01*
X185392857Y-119961614D01*
X185165643Y-119830432D01*
X184921416Y-119734580D01*
X184921411Y-119734578D01*
X184921402Y-119734576D01*
X184703818Y-119684914D01*
X184665630Y-119676198D01*
X184665629Y-119676197D01*
X184665625Y-119676197D01*
X184665620Y-119676196D01*
X184469500Y-119661500D01*
X184469494Y-119661500D01*
X184338506Y-119661500D01*
X184338500Y-119661500D01*
X184142379Y-119676196D01*
X184142374Y-119676197D01*
X183886597Y-119734576D01*
X183886578Y-119734582D01*
X183642356Y-119830432D01*
X183415143Y-119961614D01*
X183210014Y-120125198D01*
X183031567Y-120317520D01*
X182883768Y-120534302D01*
X182883767Y-120534303D01*
X182769938Y-120770673D01*
X182692606Y-121021376D01*
X182692605Y-121021381D01*
X182692604Y-121021385D01*
X182677853Y-121119247D01*
X182653500Y-121280812D01*
X182653500Y-121543187D01*
X122146499Y-121543187D01*
X122146500Y-121543182D01*
X122146500Y-121280818D01*
X122107396Y-121021385D01*
X122030063Y-120770677D01*
X121935216Y-120573724D01*
X121916232Y-120534303D01*
X121916231Y-120534302D01*
X121916230Y-120534301D01*
X121916228Y-120534296D01*
X121768433Y-120317521D01*
X121758441Y-120306753D01*
X121589985Y-120125198D01*
X121452010Y-120015167D01*
X121384857Y-119961614D01*
X121157643Y-119830432D01*
X120913416Y-119734580D01*
X120913411Y-119734578D01*
X120913402Y-119734576D01*
X120695818Y-119684914D01*
X120657630Y-119676198D01*
X120657629Y-119676197D01*
X120657625Y-119676197D01*
X120657620Y-119676196D01*
X120461500Y-119661500D01*
X120461494Y-119661500D01*
X120330506Y-119661500D01*
X120330500Y-119661500D01*
X120134379Y-119676196D01*
X120134374Y-119676197D01*
X119878597Y-119734576D01*
X119878578Y-119734582D01*
X119634356Y-119830432D01*
X119407143Y-119961614D01*
X119202014Y-120125198D01*
X119023567Y-120317520D01*
X118875768Y-120534302D01*
X118875767Y-120534303D01*
X118761938Y-120770673D01*
X118684606Y-121021376D01*
X118684605Y-121021381D01*
X118684604Y-121021385D01*
X118669853Y-121119247D01*
X118645500Y-121280812D01*
X118645500Y-121543187D01*
X115316500Y-121543187D01*
X115316500Y-119380001D01*
X148589666Y-119380001D01*
X148608964Y-119600585D01*
X148608965Y-119600592D01*
X148666275Y-119814475D01*
X148666279Y-119814486D01*
X148673715Y-119830432D01*
X148759858Y-120015167D01*
X148886868Y-120196555D01*
X149043445Y-120353132D01*
X149224833Y-120480142D01*
X149340968Y-120534296D01*
X149425513Y-120573720D01*
X149425515Y-120573720D01*
X149425520Y-120573723D01*
X149639409Y-120631035D01*
X149796974Y-120644820D01*
X149859998Y-120650334D01*
X149860000Y-120650334D01*
X149860002Y-120650334D01*
X149915147Y-120645509D01*
X150080591Y-120631035D01*
X150294480Y-120573723D01*
X150495167Y-120480142D01*
X150676555Y-120353132D01*
X150833132Y-120196555D01*
X150960142Y-120015167D01*
X151053723Y-119814480D01*
X151111035Y-119600591D01*
X151130334Y-119380001D01*
X173989666Y-119380001D01*
X174008964Y-119600585D01*
X174008965Y-119600592D01*
X174066275Y-119814475D01*
X174066279Y-119814486D01*
X174073715Y-119830432D01*
X174159858Y-120015167D01*
X174286868Y-120196555D01*
X174443445Y-120353132D01*
X174624833Y-120480142D01*
X174740968Y-120534296D01*
X174825513Y-120573720D01*
X174825515Y-120573720D01*
X174825520Y-120573723D01*
X175039409Y-120631035D01*
X175196974Y-120644820D01*
X175259998Y-120650334D01*
X175260000Y-120650334D01*
X175260002Y-120650334D01*
X175315147Y-120645509D01*
X175480591Y-120631035D01*
X175694480Y-120573723D01*
X175895167Y-120480142D01*
X176076555Y-120353132D01*
X176233132Y-120196555D01*
X176360142Y-120015167D01*
X176453723Y-119814480D01*
X176511035Y-119600591D01*
X176530334Y-119380000D01*
X176511035Y-119159409D01*
X176453723Y-118945520D01*
X176360142Y-118744833D01*
X176233132Y-118563445D01*
X176076555Y-118406868D01*
X175895167Y-118279858D01*
X175771907Y-118222381D01*
X175719468Y-118176210D01*
X175700316Y-118109017D01*
X175720531Y-118042136D01*
X175771908Y-117997618D01*
X175895167Y-117940142D01*
X176076555Y-117813132D01*
X176233132Y-117656555D01*
X176360142Y-117475167D01*
X176453723Y-117274480D01*
X176511035Y-117060591D01*
X176530334Y-116840000D01*
X176511035Y-116619409D01*
X176453723Y-116405520D01*
X176360142Y-116204833D01*
X176233132Y-116023445D01*
X176076555Y-115866868D01*
X175895167Y-115739858D01*
X175771907Y-115682381D01*
X175719468Y-115636210D01*
X175700316Y-115569017D01*
X175720531Y-115502136D01*
X175771908Y-115457618D01*
X175895167Y-115400142D01*
X176076555Y-115273132D01*
X176233132Y-115116555D01*
X176360142Y-114935167D01*
X176453723Y-114734480D01*
X176511035Y-114520591D01*
X176530334Y-114300000D01*
X176511035Y-114079409D01*
X176453723Y-113865520D01*
X176360142Y-113664833D01*
X176233132Y-113483445D01*
X176076555Y-113326868D01*
X175895167Y-113199858D01*
X175771907Y-113142381D01*
X175719468Y-113096210D01*
X175700316Y-113029017D01*
X175720531Y-112962136D01*
X175771908Y-112917618D01*
X175895167Y-112860142D01*
X176076555Y-112733132D01*
X176233132Y-112576555D01*
X176360142Y-112395167D01*
X176453723Y-112194480D01*
X176511035Y-111980591D01*
X176530334Y-111760000D01*
X176511035Y-111539409D01*
X176453723Y-111325520D01*
X176360142Y-111124833D01*
X176233132Y-110943445D01*
X176076555Y-110786868D01*
X175895167Y-110659858D01*
X175771907Y-110602381D01*
X175719468Y-110556210D01*
X175700316Y-110489017D01*
X175720531Y-110422136D01*
X175771908Y-110377618D01*
X175895167Y-110320142D01*
X176076555Y-110193132D01*
X176233132Y-110036555D01*
X176360142Y-109855167D01*
X176453723Y-109654480D01*
X176511035Y-109440591D01*
X176530334Y-109220002D01*
X184152677Y-109220002D01*
X184171929Y-109440062D01*
X184171930Y-109440070D01*
X184229104Y-109653445D01*
X184229105Y-109653447D01*
X184229106Y-109653450D01*
X184322466Y-109853662D01*
X184322468Y-109853666D01*
X184449170Y-110034615D01*
X184449175Y-110034621D01*
X184605378Y-110190824D01*
X184605384Y-110190829D01*
X184786333Y-110317531D01*
X184786335Y-110317532D01*
X184786338Y-110317534D01*
X184986550Y-110410894D01*
X185199932Y-110468070D01*
X185357123Y-110481822D01*
X185419998Y-110487323D01*
X185420000Y-110487323D01*
X185420002Y-110487323D01*
X185475017Y-110482509D01*
X185640068Y-110468070D01*
X185853450Y-110410894D01*
X186053662Y-110317534D01*
X186234620Y-110190826D01*
X186390826Y-110034620D01*
X186517534Y-109853662D01*
X186610894Y-109653450D01*
X186668070Y-109440068D01*
X186687323Y-109220000D01*
X186668070Y-108999932D01*
X186610894Y-108786550D01*
X186517534Y-108586339D01*
X186390826Y-108405380D01*
X186234620Y-108249174D01*
X186234616Y-108249171D01*
X186234615Y-108249170D01*
X186053666Y-108122468D01*
X186053658Y-108122464D01*
X185924811Y-108062382D01*
X185872371Y-108016210D01*
X185853219Y-107949017D01*
X185873435Y-107882135D01*
X185924811Y-107837618D01*
X185930802Y-107834824D01*
X186053662Y-107777534D01*
X186234620Y-107650826D01*
X186390826Y-107494620D01*
X186517534Y-107313662D01*
X186610894Y-107113450D01*
X186668070Y-106900068D01*
X186687323Y-106680000D01*
X186668070Y-106459932D01*
X186610894Y-106246550D01*
X186517534Y-106046339D01*
X186390826Y-105865380D01*
X186234620Y-105709174D01*
X186234616Y-105709171D01*
X186234615Y-105709170D01*
X186053666Y-105582468D01*
X186053658Y-105582464D01*
X185924811Y-105522382D01*
X185872371Y-105476210D01*
X185853219Y-105409017D01*
X185873435Y-105342135D01*
X185924811Y-105297618D01*
X185949505Y-105286103D01*
X186053662Y-105237534D01*
X186234620Y-105110826D01*
X186390826Y-104954620D01*
X186517534Y-104773662D01*
X186610894Y-104573450D01*
X186668070Y-104360068D01*
X186687323Y-104140000D01*
X186684532Y-104108102D01*
X186673748Y-103984838D01*
X186668070Y-103919932D01*
X186610894Y-103706550D01*
X186517534Y-103506339D01*
X186390826Y-103325380D01*
X186234620Y-103169174D01*
X186234616Y-103169171D01*
X186234615Y-103169170D01*
X186053666Y-103042468D01*
X186053658Y-103042464D01*
X185924811Y-102982382D01*
X185872371Y-102936210D01*
X185853219Y-102869017D01*
X185873435Y-102802135D01*
X185924811Y-102757618D01*
X185930802Y-102754824D01*
X186053662Y-102697534D01*
X186234620Y-102570826D01*
X186390826Y-102414620D01*
X186517534Y-102233662D01*
X186610894Y-102033450D01*
X186668070Y-101820068D01*
X186687323Y-101600000D01*
X186668070Y-101379932D01*
X186610894Y-101166550D01*
X186517534Y-100966339D01*
X186390826Y-100785380D01*
X186234620Y-100629174D01*
X186234616Y-100629171D01*
X186234615Y-100629170D01*
X186053666Y-100502468D01*
X186053658Y-100502464D01*
X185924811Y-100442382D01*
X185872371Y-100396210D01*
X185853219Y-100329017D01*
X185873435Y-100262135D01*
X185924811Y-100217618D01*
X185930802Y-100214824D01*
X186053662Y-100157534D01*
X186234620Y-100030826D01*
X186390826Y-99874620D01*
X186517534Y-99693662D01*
X186610894Y-99493450D01*
X186668070Y-99280068D01*
X186687323Y-99060000D01*
X186668070Y-98839932D01*
X186610894Y-98626550D01*
X186517534Y-98426339D01*
X186390826Y-98245380D01*
X186234620Y-98089174D01*
X186234616Y-98089171D01*
X186234615Y-98089170D01*
X186053666Y-97962468D01*
X186053658Y-97962464D01*
X185924811Y-97902382D01*
X185872371Y-97856210D01*
X185853219Y-97789017D01*
X185873435Y-97722135D01*
X185924811Y-97677618D01*
X185959020Y-97661666D01*
X186053662Y-97617534D01*
X186234620Y-97490826D01*
X186390826Y-97334620D01*
X186517534Y-97153662D01*
X186610894Y-96953450D01*
X186668070Y-96740068D01*
X186687323Y-96520000D01*
X186668070Y-96299932D01*
X186610894Y-96086550D01*
X186517534Y-95886339D01*
X186428360Y-95758984D01*
X186390827Y-95705381D01*
X186331064Y-95645618D01*
X186234620Y-95549174D01*
X186234616Y-95549171D01*
X186234615Y-95549170D01*
X186053666Y-95422468D01*
X186053658Y-95422464D01*
X185924219Y-95362106D01*
X185871779Y-95315934D01*
X185852627Y-95248741D01*
X185872843Y-95181859D01*
X185924219Y-95137342D01*
X186053408Y-95077100D01*
X186053420Y-95077093D01*
X186118186Y-95031742D01*
X186118187Y-95031740D01*
X185447448Y-94361000D01*
X185451569Y-94361000D01*
X185545421Y-94345339D01*
X185657251Y-94284820D01*
X185743371Y-94191269D01*
X185794448Y-94074823D01*
X185800105Y-94006552D01*
X186471740Y-94678187D01*
X186471742Y-94678186D01*
X186517093Y-94613420D01*
X186517100Y-94613408D01*
X186610419Y-94413284D01*
X186610424Y-94413270D01*
X186667573Y-94199986D01*
X186667575Y-94199976D01*
X186686821Y-93980000D01*
X186686821Y-93979999D01*
X186667575Y-93760023D01*
X186667573Y-93760013D01*
X186610424Y-93546729D01*
X186610420Y-93546720D01*
X186517098Y-93346590D01*
X186471740Y-93281811D01*
X185804903Y-93948648D01*
X185804949Y-93948102D01*
X185773734Y-93824838D01*
X185704187Y-93718388D01*
X185603843Y-93640287D01*
X185483578Y-93599000D01*
X185447447Y-93599000D01*
X186118187Y-92928258D01*
X186053409Y-92882900D01*
X186053407Y-92882899D01*
X185924219Y-92822658D01*
X185871779Y-92776486D01*
X185852627Y-92709293D01*
X185872843Y-92642411D01*
X185924219Y-92597894D01*
X185959020Y-92581666D01*
X186053662Y-92537534D01*
X186234620Y-92410826D01*
X186390826Y-92254620D01*
X186517534Y-92073662D01*
X186610894Y-91873450D01*
X186668070Y-91660068D01*
X186687323Y-91440000D01*
X186668070Y-91219932D01*
X186610894Y-91006550D01*
X186517534Y-90806339D01*
X186428360Y-90678984D01*
X186390827Y-90625381D01*
X186331064Y-90565618D01*
X186234620Y-90469174D01*
X186234616Y-90469171D01*
X186234615Y-90469170D01*
X186053666Y-90342468D01*
X186053662Y-90342466D01*
X186048065Y-90339856D01*
X185853450Y-90249106D01*
X185853447Y-90249105D01*
X185853445Y-90249104D01*
X185640070Y-90191930D01*
X185640062Y-90191929D01*
X185420002Y-90172677D01*
X185419998Y-90172677D01*
X185199937Y-90191929D01*
X185199929Y-90191930D01*
X184986554Y-90249104D01*
X184986548Y-90249107D01*
X184786340Y-90342465D01*
X184786338Y-90342466D01*
X184605377Y-90469175D01*
X184449175Y-90625377D01*
X184322466Y-90806338D01*
X184322465Y-90806340D01*
X184229107Y-91006548D01*
X184229104Y-91006554D01*
X184171930Y-91219929D01*
X184171929Y-91219937D01*
X184152677Y-91439997D01*
X184152677Y-91440002D01*
X184171929Y-91660062D01*
X184171930Y-91660070D01*
X184229104Y-91873445D01*
X184229105Y-91873447D01*
X184229106Y-91873450D01*
X184263868Y-91947997D01*
X184322466Y-92073662D01*
X184322468Y-92073666D01*
X184449170Y-92254615D01*
X184449175Y-92254621D01*
X184605378Y-92410824D01*
X184605384Y-92410829D01*
X184786333Y-92537531D01*
X184786335Y-92537532D01*
X184786338Y-92537534D01*
X184880980Y-92581666D01*
X184915781Y-92597894D01*
X184968220Y-92644066D01*
X184987372Y-92711260D01*
X184967156Y-92778141D01*
X184915781Y-92822658D01*
X184786586Y-92882903D01*
X184721812Y-92928257D01*
X184721811Y-92928258D01*
X185392554Y-93599000D01*
X185388431Y-93599000D01*
X185294579Y-93614661D01*
X185182749Y-93675180D01*
X185096629Y-93768731D01*
X185045552Y-93885177D01*
X185039894Y-93953447D01*
X184368258Y-93281811D01*
X184368257Y-93281812D01*
X184322903Y-93346586D01*
X184229579Y-93546720D01*
X184229575Y-93546729D01*
X184172426Y-93760013D01*
X184172424Y-93760023D01*
X184153179Y-93979999D01*
X184153179Y-93980000D01*
X184172424Y-94199976D01*
X184172426Y-94199986D01*
X184229575Y-94413270D01*
X184229580Y-94413284D01*
X184322899Y-94613407D01*
X184322900Y-94613409D01*
X184368258Y-94678187D01*
X185035096Y-94011349D01*
X185035051Y-94011898D01*
X185066266Y-94135162D01*
X185135813Y-94241612D01*
X185236157Y-94319713D01*
X185356422Y-94361000D01*
X185392553Y-94361000D01*
X184721811Y-95031741D01*
X184786582Y-95077094D01*
X184786588Y-95077098D01*
X184915781Y-95137342D01*
X184968220Y-95183514D01*
X184987372Y-95250708D01*
X184967156Y-95317589D01*
X184915781Y-95362106D01*
X184786340Y-95422465D01*
X184786338Y-95422466D01*
X184605377Y-95549175D01*
X184449175Y-95705377D01*
X184322466Y-95886338D01*
X184322465Y-95886340D01*
X184229107Y-96086548D01*
X184229104Y-96086554D01*
X184171930Y-96299929D01*
X184171929Y-96299937D01*
X184152677Y-96519997D01*
X184152677Y-96520002D01*
X184171929Y-96740062D01*
X184171930Y-96740070D01*
X184229104Y-96953445D01*
X184229105Y-96953447D01*
X184229106Y-96953450D01*
X184263868Y-97027997D01*
X184322466Y-97153662D01*
X184322468Y-97153666D01*
X184449170Y-97334615D01*
X184449175Y-97334621D01*
X184605378Y-97490824D01*
X184605384Y-97490829D01*
X184786333Y-97617531D01*
X184786335Y-97617532D01*
X184786338Y-97617534D01*
X184863247Y-97653397D01*
X184915189Y-97677618D01*
X184967628Y-97723790D01*
X184986780Y-97790984D01*
X184966564Y-97857865D01*
X184915189Y-97902382D01*
X184786340Y-97962465D01*
X184786338Y-97962466D01*
X184605377Y-98089175D01*
X184449175Y-98245377D01*
X184322466Y-98426338D01*
X184322465Y-98426340D01*
X184229107Y-98626548D01*
X184229104Y-98626554D01*
X184171930Y-98839929D01*
X184171929Y-98839937D01*
X184152677Y-99059997D01*
X184152677Y-99060002D01*
X184171929Y-99280062D01*
X184171930Y-99280070D01*
X184229104Y-99493445D01*
X184229105Y-99493447D01*
X184229106Y-99493450D01*
X184308086Y-99662823D01*
X184322466Y-99693662D01*
X184322468Y-99693666D01*
X184449170Y-99874615D01*
X184449175Y-99874621D01*
X184605378Y-100030824D01*
X184605384Y-100030829D01*
X184786333Y-100157531D01*
X184786335Y-100157532D01*
X184786338Y-100157534D01*
X184880429Y-100201409D01*
X184915189Y-100217618D01*
X184967628Y-100263790D01*
X184986780Y-100330984D01*
X184966564Y-100397865D01*
X184915189Y-100442382D01*
X184786340Y-100502465D01*
X184786338Y-100502466D01*
X184605377Y-100629175D01*
X184449175Y-100785377D01*
X184322466Y-100966338D01*
X184322465Y-100966340D01*
X184229107Y-101166548D01*
X184229104Y-101166554D01*
X184171930Y-101379929D01*
X184171929Y-101379937D01*
X184152677Y-101599997D01*
X184152677Y-101600002D01*
X184171929Y-101820062D01*
X184171930Y-101820070D01*
X184229104Y-102033445D01*
X184229105Y-102033447D01*
X184229106Y-102033450D01*
X184322466Y-102233662D01*
X184322468Y-102233666D01*
X184449170Y-102414615D01*
X184449175Y-102414621D01*
X184605378Y-102570824D01*
X184605384Y-102570829D01*
X184786333Y-102697531D01*
X184786335Y-102697532D01*
X184786338Y-102697534D01*
X184905748Y-102753215D01*
X184915189Y-102757618D01*
X184967628Y-102803790D01*
X184986780Y-102870984D01*
X184966564Y-102937865D01*
X184915189Y-102982382D01*
X184786340Y-103042465D01*
X184786338Y-103042466D01*
X184605377Y-103169175D01*
X184449175Y-103325377D01*
X184322466Y-103506338D01*
X184322465Y-103506340D01*
X184229107Y-103706548D01*
X184229104Y-103706554D01*
X184171930Y-103919929D01*
X184171929Y-103919937D01*
X184152677Y-104139997D01*
X184152677Y-104140002D01*
X184171929Y-104360062D01*
X184171930Y-104360070D01*
X184229104Y-104573445D01*
X184229105Y-104573447D01*
X184229106Y-104573450D01*
X184293918Y-104712441D01*
X184322466Y-104773662D01*
X184322468Y-104773666D01*
X184449170Y-104954615D01*
X184449175Y-104954621D01*
X184605378Y-105110824D01*
X184605384Y-105110829D01*
X184786333Y-105237531D01*
X184786335Y-105237532D01*
X184786338Y-105237534D01*
X184890495Y-105286103D01*
X184915189Y-105297618D01*
X184967628Y-105343790D01*
X184986780Y-105410984D01*
X184966564Y-105477865D01*
X184915189Y-105522382D01*
X184786340Y-105582465D01*
X184786338Y-105582466D01*
X184605377Y-105709175D01*
X184449175Y-105865377D01*
X184322466Y-106046338D01*
X184322465Y-106046340D01*
X184229107Y-106246548D01*
X184229104Y-106246554D01*
X184171930Y-106459929D01*
X184171929Y-106459937D01*
X184152677Y-106679997D01*
X184152677Y-106680002D01*
X184171929Y-106900062D01*
X184171930Y-106900070D01*
X184229104Y-107113445D01*
X184229105Y-107113447D01*
X184229106Y-107113450D01*
X184322466Y-107313662D01*
X184322468Y-107313666D01*
X184449170Y-107494615D01*
X184449175Y-107494621D01*
X184605378Y-107650824D01*
X184605384Y-107650829D01*
X184786333Y-107777531D01*
X184786335Y-107777532D01*
X184786338Y-107777534D01*
X184905748Y-107833215D01*
X184915189Y-107837618D01*
X184967628Y-107883790D01*
X184986780Y-107950984D01*
X184966564Y-108017865D01*
X184915189Y-108062382D01*
X184786340Y-108122465D01*
X184786338Y-108122466D01*
X184605377Y-108249175D01*
X184449175Y-108405377D01*
X184322466Y-108586338D01*
X184322465Y-108586340D01*
X184229107Y-108786548D01*
X184229104Y-108786554D01*
X184171930Y-108999929D01*
X184171929Y-108999937D01*
X184152677Y-109219997D01*
X184152677Y-109220002D01*
X176530334Y-109220002D01*
X176530334Y-109220000D01*
X176511035Y-108999409D01*
X176453723Y-108785520D01*
X176360142Y-108584833D01*
X176233132Y-108403445D01*
X176076555Y-108246868D01*
X175895167Y-108119858D01*
X175771907Y-108062381D01*
X175719468Y-108016210D01*
X175700316Y-107949017D01*
X175720531Y-107882136D01*
X175771908Y-107837618D01*
X175895167Y-107780142D01*
X176076555Y-107653132D01*
X176233132Y-107496555D01*
X176360142Y-107315167D01*
X176453723Y-107114480D01*
X176511035Y-106900591D01*
X176530334Y-106680000D01*
X176511035Y-106459409D01*
X176453723Y-106245520D01*
X176360142Y-106044833D01*
X176233132Y-105863445D01*
X176076555Y-105706868D01*
X175895167Y-105579858D01*
X175771907Y-105522381D01*
X175719468Y-105476210D01*
X175700316Y-105409017D01*
X175720531Y-105342136D01*
X175771908Y-105297618D01*
X175796602Y-105286103D01*
X175895167Y-105240142D01*
X176076555Y-105113132D01*
X176233132Y-104956555D01*
X176360142Y-104775167D01*
X176453723Y-104574480D01*
X176511035Y-104360591D01*
X176530334Y-104140000D01*
X176511035Y-103919409D01*
X176453723Y-103705520D01*
X176360142Y-103504833D01*
X176233132Y-103323445D01*
X176076555Y-103166868D01*
X175895167Y-103039858D01*
X175771907Y-102982381D01*
X175719468Y-102936210D01*
X175700316Y-102869017D01*
X175720531Y-102802136D01*
X175771908Y-102757618D01*
X175895167Y-102700142D01*
X176076555Y-102573132D01*
X176233132Y-102416555D01*
X176360142Y-102235167D01*
X176453723Y-102034480D01*
X176511035Y-101820591D01*
X176530334Y-101600000D01*
X176511035Y-101379409D01*
X176453723Y-101165520D01*
X176360142Y-100964833D01*
X176233132Y-100783445D01*
X176076555Y-100626868D01*
X175895167Y-100499858D01*
X175771907Y-100442381D01*
X175719468Y-100396210D01*
X175700316Y-100329017D01*
X175720531Y-100262136D01*
X175771908Y-100217618D01*
X175806645Y-100201420D01*
X175895167Y-100160142D01*
X176076555Y-100033132D01*
X176233132Y-99876555D01*
X176360142Y-99695167D01*
X176453723Y-99494480D01*
X176511035Y-99280591D01*
X176530334Y-99060000D01*
X176511035Y-98839409D01*
X176453723Y-98625520D01*
X176360142Y-98424833D01*
X176233132Y-98243445D01*
X176076555Y-98086868D01*
X175895167Y-97959858D01*
X175771907Y-97902381D01*
X175719468Y-97856210D01*
X175700316Y-97789017D01*
X175720531Y-97722136D01*
X175771908Y-97677618D01*
X175895167Y-97620142D01*
X176076555Y-97493132D01*
X176233132Y-97336555D01*
X176360142Y-97155167D01*
X176453723Y-96954480D01*
X176511035Y-96740591D01*
X176530334Y-96520000D01*
X176511035Y-96299409D01*
X176453723Y-96085520D01*
X176360142Y-95884833D01*
X176233132Y-95703445D01*
X176076555Y-95546868D01*
X175895167Y-95419858D01*
X175771907Y-95362381D01*
X175719468Y-95316210D01*
X175700316Y-95249017D01*
X175720531Y-95182136D01*
X175771908Y-95137618D01*
X175772500Y-95137342D01*
X175895167Y-95080142D01*
X176076555Y-94953132D01*
X176233132Y-94796555D01*
X176360142Y-94615167D01*
X176453723Y-94414480D01*
X176511035Y-94200591D01*
X176530334Y-93980000D01*
X176511035Y-93759409D01*
X176453723Y-93545520D01*
X176360142Y-93344833D01*
X176233132Y-93163445D01*
X176076555Y-93006868D01*
X175895167Y-92879858D01*
X175771907Y-92822381D01*
X175719468Y-92776210D01*
X175700316Y-92709017D01*
X175720531Y-92642136D01*
X175771908Y-92597618D01*
X175895167Y-92540142D01*
X176076555Y-92413132D01*
X176233132Y-92256555D01*
X176360142Y-92075167D01*
X176453723Y-91874480D01*
X176511035Y-91660591D01*
X176530334Y-91440000D01*
X176511035Y-91219409D01*
X176453723Y-91005520D01*
X176360142Y-90804833D01*
X176233132Y-90623445D01*
X176076555Y-90466868D01*
X175895167Y-90339858D01*
X175771907Y-90282381D01*
X175719468Y-90236210D01*
X175700316Y-90169017D01*
X175720531Y-90102136D01*
X175771908Y-90057618D01*
X175895167Y-90000142D01*
X176076555Y-89873132D01*
X176233132Y-89716555D01*
X176360142Y-89535167D01*
X176453723Y-89334480D01*
X176511035Y-89120591D01*
X176530334Y-88900000D01*
X176511035Y-88679409D01*
X176453723Y-88465520D01*
X176360142Y-88264833D01*
X176233132Y-88083445D01*
X176076555Y-87926868D01*
X175895167Y-87799858D01*
X175771907Y-87742381D01*
X175719468Y-87696210D01*
X175700316Y-87629017D01*
X175720531Y-87562136D01*
X175771908Y-87517618D01*
X175895167Y-87460142D01*
X176076555Y-87333132D01*
X176233132Y-87176555D01*
X176360142Y-86995167D01*
X176453723Y-86794480D01*
X176511035Y-86580591D01*
X176530334Y-86360000D01*
X176511035Y-86139409D01*
X176453723Y-85925520D01*
X176360142Y-85724833D01*
X176233132Y-85543445D01*
X176076555Y-85386868D01*
X175895167Y-85259858D01*
X175771907Y-85202381D01*
X175719468Y-85156210D01*
X175700316Y-85089017D01*
X175720531Y-85022136D01*
X175771908Y-84977618D01*
X175895167Y-84920142D01*
X176076555Y-84793132D01*
X176233132Y-84636555D01*
X176360142Y-84455167D01*
X176453723Y-84254480D01*
X176511035Y-84040591D01*
X176530334Y-83820000D01*
X176511035Y-83599409D01*
X176453723Y-83385520D01*
X176360142Y-83184833D01*
X176233132Y-83003445D01*
X176076555Y-82846868D01*
X175895167Y-82719858D01*
X175771907Y-82662381D01*
X175719468Y-82616210D01*
X175700316Y-82549017D01*
X175720531Y-82482136D01*
X175771908Y-82437618D01*
X175895167Y-82380142D01*
X176076555Y-82253132D01*
X176233132Y-82096555D01*
X176360142Y-81915167D01*
X176453723Y-81714480D01*
X176511035Y-81500591D01*
X176530334Y-81280000D01*
X176511035Y-81059409D01*
X176453723Y-80845520D01*
X176360142Y-80644833D01*
X176233132Y-80463445D01*
X176076555Y-80306868D01*
X175895167Y-80179858D01*
X175771907Y-80122381D01*
X175719468Y-80076210D01*
X175700316Y-80009017D01*
X175720531Y-79942136D01*
X175771908Y-79897618D01*
X175895167Y-79840142D01*
X176076555Y-79713132D01*
X176233132Y-79556555D01*
X176360142Y-79375167D01*
X176453723Y-79174480D01*
X176511035Y-78960591D01*
X176530334Y-78740000D01*
X176511035Y-78519409D01*
X176453723Y-78305520D01*
X176360142Y-78104833D01*
X176233132Y-77923445D01*
X176076555Y-77766868D01*
X175895167Y-77639858D01*
X175771907Y-77582381D01*
X175719468Y-77536210D01*
X175700316Y-77469017D01*
X175720531Y-77402136D01*
X175771908Y-77357618D01*
X175895167Y-77300142D01*
X176076555Y-77173132D01*
X176233132Y-77016555D01*
X176360142Y-76835167D01*
X176453723Y-76634480D01*
X176511035Y-76420591D01*
X176530334Y-76200000D01*
X176511035Y-75979409D01*
X176453723Y-75765520D01*
X176360142Y-75564833D01*
X176233132Y-75383445D01*
X176076555Y-75226868D01*
X175895167Y-75099858D01*
X175895163Y-75099856D01*
X175771317Y-75042106D01*
X175718877Y-74995934D01*
X175699725Y-74928741D01*
X175719941Y-74861859D01*
X175771317Y-74817342D01*
X175894912Y-74759708D01*
X175894914Y-74759707D01*
X175960342Y-74713894D01*
X175401366Y-74154918D01*
X175405161Y-74154373D01*
X175538562Y-74093451D01*
X175649395Y-73997413D01*
X175728682Y-73874040D01*
X175751133Y-73797580D01*
X176313894Y-74360342D01*
X176359706Y-74294915D01*
X176453250Y-74094309D01*
X176453254Y-74094300D01*
X176510538Y-73880509D01*
X176510540Y-73880499D01*
X176529832Y-73660000D01*
X176529832Y-73659999D01*
X176510540Y-73439500D01*
X176510538Y-73439490D01*
X176453254Y-73225699D01*
X176453250Y-73225690D01*
X176359707Y-73025085D01*
X176359706Y-73025083D01*
X176313894Y-72959657D01*
X176313894Y-72959656D01*
X175751132Y-73522418D01*
X175728682Y-73445960D01*
X175649395Y-73322587D01*
X175538562Y-73226549D01*
X175405161Y-73165627D01*
X175401366Y-73165081D01*
X175960342Y-72606105D01*
X175960341Y-72606103D01*
X175894919Y-72560295D01*
X175694309Y-72466749D01*
X175694300Y-72466745D01*
X175480509Y-72409461D01*
X175480499Y-72409459D01*
X175260001Y-72390168D01*
X175259999Y-72390168D01*
X175039500Y-72409459D01*
X175039490Y-72409461D01*
X174825699Y-72466745D01*
X174825690Y-72466749D01*
X174625084Y-72560293D01*
X174559657Y-72606104D01*
X175118634Y-73165081D01*
X175114839Y-73165627D01*
X174981438Y-73226549D01*
X174870605Y-73322587D01*
X174791318Y-73445960D01*
X174768866Y-73522419D01*
X174206104Y-72959657D01*
X174160293Y-73025084D01*
X174066749Y-73225690D01*
X174066745Y-73225699D01*
X174009461Y-73439490D01*
X174009459Y-73439500D01*
X173990168Y-73659999D01*
X173990168Y-73660000D01*
X174009459Y-73880499D01*
X174009461Y-73880509D01*
X174066745Y-74094300D01*
X174066749Y-74094309D01*
X174160295Y-74294919D01*
X174206103Y-74360341D01*
X174206105Y-74360342D01*
X174768866Y-73797580D01*
X174791318Y-73874040D01*
X174870605Y-73997413D01*
X174981438Y-74093451D01*
X175114839Y-74154373D01*
X175118633Y-74154918D01*
X174559656Y-74713894D01*
X174625083Y-74759706D01*
X174625085Y-74759707D01*
X174748683Y-74817342D01*
X174801122Y-74863514D01*
X174820274Y-74930708D01*
X174800058Y-74997589D01*
X174748683Y-75042106D01*
X174624833Y-75099857D01*
X174443444Y-75226868D01*
X174286868Y-75383444D01*
X174159857Y-75564834D01*
X174159856Y-75564836D01*
X174066279Y-75765513D01*
X174066275Y-75765524D01*
X174008965Y-75979407D01*
X174008964Y-75979414D01*
X173989666Y-76199998D01*
X173989666Y-76200001D01*
X174008964Y-76420585D01*
X174008965Y-76420592D01*
X174066275Y-76634475D01*
X174066279Y-76634486D01*
X174159856Y-76835163D01*
X174159858Y-76835167D01*
X174286868Y-77016555D01*
X174443445Y-77173132D01*
X174624833Y-77300142D01*
X174686828Y-77329050D01*
X174748091Y-77357618D01*
X174800531Y-77403790D01*
X174819683Y-77470983D01*
X174799467Y-77537865D01*
X174748091Y-77582382D01*
X174624836Y-77639856D01*
X174624834Y-77639857D01*
X174443444Y-77766868D01*
X174286868Y-77923444D01*
X174159857Y-78104834D01*
X174159856Y-78104836D01*
X174066279Y-78305513D01*
X174066275Y-78305524D01*
X174008965Y-78519407D01*
X174008964Y-78519414D01*
X173989666Y-78739998D01*
X173989666Y-78740001D01*
X174008964Y-78960585D01*
X174008965Y-78960592D01*
X174066275Y-79174475D01*
X174066279Y-79174486D01*
X174159856Y-79375163D01*
X174159858Y-79375167D01*
X174286868Y-79556555D01*
X174443445Y-79713132D01*
X174624833Y-79840142D01*
X174686828Y-79869050D01*
X174748091Y-79897618D01*
X174800531Y-79943790D01*
X174819683Y-80010983D01*
X174799467Y-80077865D01*
X174748091Y-80122382D01*
X174624836Y-80179856D01*
X174624834Y-80179857D01*
X174443444Y-80306868D01*
X174286868Y-80463444D01*
X174159857Y-80644834D01*
X174159856Y-80644836D01*
X174066279Y-80845513D01*
X174066275Y-80845524D01*
X174008965Y-81059407D01*
X174008964Y-81059414D01*
X173989666Y-81279998D01*
X173989666Y-81280001D01*
X174008964Y-81500585D01*
X174008965Y-81500592D01*
X174066275Y-81714475D01*
X174066279Y-81714486D01*
X174159856Y-81915163D01*
X174159858Y-81915167D01*
X174286868Y-82096555D01*
X174443445Y-82253132D01*
X174624833Y-82380142D01*
X174686828Y-82409050D01*
X174748091Y-82437618D01*
X174800531Y-82483790D01*
X174819683Y-82550983D01*
X174799467Y-82617865D01*
X174748091Y-82662382D01*
X174624836Y-82719856D01*
X174624834Y-82719857D01*
X174443444Y-82846868D01*
X174286868Y-83003444D01*
X174159857Y-83184834D01*
X174159856Y-83184836D01*
X174066279Y-83385513D01*
X174066275Y-83385524D01*
X174008965Y-83599407D01*
X174008964Y-83599414D01*
X173989666Y-83819998D01*
X173989666Y-83820001D01*
X174008964Y-84040585D01*
X174008965Y-84040592D01*
X174066275Y-84254475D01*
X174066279Y-84254486D01*
X174120429Y-84370611D01*
X174159858Y-84455167D01*
X174286868Y-84636555D01*
X174443445Y-84793132D01*
X174624833Y-84920142D01*
X174686828Y-84949050D01*
X174748091Y-84977618D01*
X174800531Y-85023790D01*
X174819683Y-85090983D01*
X174799467Y-85157865D01*
X174748091Y-85202382D01*
X174624836Y-85259856D01*
X174624834Y-85259857D01*
X174443444Y-85386868D01*
X174286868Y-85543444D01*
X174159857Y-85724834D01*
X174159856Y-85724836D01*
X174066279Y-85925513D01*
X174066275Y-85925524D01*
X174008965Y-86139407D01*
X174008964Y-86139414D01*
X173989666Y-86359998D01*
X173989666Y-86360001D01*
X174008964Y-86580585D01*
X174008965Y-86580592D01*
X174066275Y-86794475D01*
X174066279Y-86794486D01*
X174144776Y-86962823D01*
X174159858Y-86995167D01*
X174286868Y-87176555D01*
X174443445Y-87333132D01*
X174624833Y-87460142D01*
X174686828Y-87489050D01*
X174748091Y-87517618D01*
X174800531Y-87563790D01*
X174819683Y-87630983D01*
X174799467Y-87697865D01*
X174748091Y-87742382D01*
X174624836Y-87799856D01*
X174624834Y-87799857D01*
X174443444Y-87926868D01*
X174286868Y-88083444D01*
X174159857Y-88264834D01*
X174159856Y-88264836D01*
X174066279Y-88465513D01*
X174066275Y-88465524D01*
X174008965Y-88679407D01*
X174008964Y-88679414D01*
X173989666Y-88899998D01*
X173989666Y-88900001D01*
X174008964Y-89120585D01*
X174008965Y-89120592D01*
X174066275Y-89334475D01*
X174066279Y-89334486D01*
X174159856Y-89535163D01*
X174159858Y-89535167D01*
X174286868Y-89716555D01*
X174443445Y-89873132D01*
X174624833Y-90000142D01*
X174680722Y-90026203D01*
X174748091Y-90057618D01*
X174800531Y-90103790D01*
X174819683Y-90170983D01*
X174799467Y-90237865D01*
X174748091Y-90282382D01*
X174624836Y-90339856D01*
X174624834Y-90339857D01*
X174443444Y-90466868D01*
X174286868Y-90623444D01*
X174159857Y-90804834D01*
X174159856Y-90804836D01*
X174066279Y-91005513D01*
X174066275Y-91005524D01*
X174008965Y-91219407D01*
X174008964Y-91219414D01*
X173989666Y-91439998D01*
X173989666Y-91440001D01*
X174008964Y-91660585D01*
X174008965Y-91660592D01*
X174066275Y-91874475D01*
X174066279Y-91874486D01*
X174159156Y-92073662D01*
X174159858Y-92075167D01*
X174286868Y-92256555D01*
X174443445Y-92413132D01*
X174624833Y-92540142D01*
X174680722Y-92566203D01*
X174748091Y-92597618D01*
X174800531Y-92643790D01*
X174819683Y-92710983D01*
X174799467Y-92777865D01*
X174748091Y-92822382D01*
X174624836Y-92879856D01*
X174624834Y-92879857D01*
X174443444Y-93006868D01*
X174286868Y-93163444D01*
X174159857Y-93344834D01*
X174159856Y-93344836D01*
X174066279Y-93545513D01*
X174066275Y-93545524D01*
X174008965Y-93759407D01*
X174008964Y-93759414D01*
X173989666Y-93979998D01*
X173989666Y-93980001D01*
X174008964Y-94200585D01*
X174008965Y-94200592D01*
X174066275Y-94414475D01*
X174066279Y-94414486D01*
X174159037Y-94613407D01*
X174159858Y-94615167D01*
X174286868Y-94796555D01*
X174443445Y-94953132D01*
X174624833Y-95080142D01*
X174680722Y-95106203D01*
X174748091Y-95137618D01*
X174800531Y-95183790D01*
X174819683Y-95250983D01*
X174799467Y-95317865D01*
X174748091Y-95362382D01*
X174624836Y-95419856D01*
X174624834Y-95419857D01*
X174443444Y-95546868D01*
X174286868Y-95703444D01*
X174159857Y-95884834D01*
X174159856Y-95884836D01*
X174066279Y-96085513D01*
X174066275Y-96085524D01*
X174008965Y-96299407D01*
X174008964Y-96299414D01*
X173989666Y-96519998D01*
X173989666Y-96520001D01*
X174008964Y-96740585D01*
X174008965Y-96740592D01*
X174066275Y-96954475D01*
X174066279Y-96954486D01*
X174159156Y-97153662D01*
X174159858Y-97155167D01*
X174286868Y-97336555D01*
X174443445Y-97493132D01*
X174624833Y-97620142D01*
X174680722Y-97646203D01*
X174748091Y-97677618D01*
X174800531Y-97723790D01*
X174819683Y-97790983D01*
X174799467Y-97857865D01*
X174748091Y-97902382D01*
X174624836Y-97959856D01*
X174624834Y-97959857D01*
X174443444Y-98086868D01*
X174286868Y-98243444D01*
X174159857Y-98424834D01*
X174159856Y-98424836D01*
X174066279Y-98625513D01*
X174066275Y-98625524D01*
X174008965Y-98839407D01*
X174008964Y-98839414D01*
X173989666Y-99059998D01*
X173989666Y-99060001D01*
X174008964Y-99280585D01*
X174008965Y-99280592D01*
X174066275Y-99494475D01*
X174066279Y-99494486D01*
X174144776Y-99662823D01*
X174159858Y-99695167D01*
X174286868Y-99876555D01*
X174443445Y-100033132D01*
X174624833Y-100160142D01*
X174686828Y-100189050D01*
X174748091Y-100217618D01*
X174800531Y-100263790D01*
X174819683Y-100330983D01*
X174799467Y-100397865D01*
X174748091Y-100442382D01*
X174624836Y-100499856D01*
X174624834Y-100499857D01*
X174443444Y-100626868D01*
X174286868Y-100783444D01*
X174159857Y-100964834D01*
X174159856Y-100964836D01*
X174066279Y-101165513D01*
X174066275Y-101165524D01*
X174008965Y-101379407D01*
X174008964Y-101379414D01*
X173989666Y-101599998D01*
X173989666Y-101600001D01*
X174008964Y-101820585D01*
X174008965Y-101820592D01*
X174066275Y-102034475D01*
X174066279Y-102034486D01*
X174159156Y-102233662D01*
X174159858Y-102235167D01*
X174286868Y-102416555D01*
X174443445Y-102573132D01*
X174624833Y-102700142D01*
X174686828Y-102729050D01*
X174748091Y-102757618D01*
X174800531Y-102803790D01*
X174819683Y-102870983D01*
X174799467Y-102937865D01*
X174748091Y-102982382D01*
X174624836Y-103039856D01*
X174624834Y-103039857D01*
X174443444Y-103166868D01*
X174286868Y-103323444D01*
X174159857Y-103504834D01*
X174159856Y-103504836D01*
X174066279Y-103705513D01*
X174066275Y-103705524D01*
X174008965Y-103919407D01*
X174008964Y-103919414D01*
X173989666Y-104139998D01*
X173989666Y-104140001D01*
X174008964Y-104360585D01*
X174008965Y-104360592D01*
X174066275Y-104574475D01*
X174066279Y-104574486D01*
X174159037Y-104773407D01*
X174159858Y-104775167D01*
X174286868Y-104956555D01*
X174443445Y-105113132D01*
X174624833Y-105240142D01*
X174686828Y-105269050D01*
X174748091Y-105297618D01*
X174800531Y-105343790D01*
X174819683Y-105410983D01*
X174799467Y-105477865D01*
X174748091Y-105522382D01*
X174624836Y-105579856D01*
X174624834Y-105579857D01*
X174443444Y-105706868D01*
X174286868Y-105863444D01*
X174159857Y-106044834D01*
X174159856Y-106044836D01*
X174066279Y-106245513D01*
X174066275Y-106245524D01*
X174008965Y-106459407D01*
X174008964Y-106459414D01*
X173989666Y-106679998D01*
X173989666Y-106680001D01*
X174008964Y-106900585D01*
X174008965Y-106900592D01*
X174066275Y-107114475D01*
X174066279Y-107114486D01*
X174159156Y-107313662D01*
X174159858Y-107315167D01*
X174286868Y-107496555D01*
X174443445Y-107653132D01*
X174624833Y-107780142D01*
X174686828Y-107809050D01*
X174748091Y-107837618D01*
X174800531Y-107883790D01*
X174819683Y-107950983D01*
X174799467Y-108017865D01*
X174748091Y-108062382D01*
X174624836Y-108119856D01*
X174624834Y-108119857D01*
X174443444Y-108246868D01*
X174286868Y-108403444D01*
X174159857Y-108584834D01*
X174159856Y-108584836D01*
X174066279Y-108785513D01*
X174066275Y-108785524D01*
X174008965Y-108999407D01*
X174008964Y-108999414D01*
X173989666Y-109219998D01*
X173989666Y-109220001D01*
X174008964Y-109440585D01*
X174008965Y-109440592D01*
X174066275Y-109654475D01*
X174066279Y-109654486D01*
X174159156Y-109853662D01*
X174159858Y-109855167D01*
X174286868Y-110036555D01*
X174443445Y-110193132D01*
X174624833Y-110320142D01*
X174686828Y-110349050D01*
X174748091Y-110377618D01*
X174800531Y-110423790D01*
X174819683Y-110490983D01*
X174799467Y-110557865D01*
X174748091Y-110602382D01*
X174624836Y-110659856D01*
X174624834Y-110659857D01*
X174443444Y-110786868D01*
X174286868Y-110943444D01*
X174159857Y-111124834D01*
X174159856Y-111124836D01*
X174066279Y-111325513D01*
X174066275Y-111325524D01*
X174008965Y-111539407D01*
X174008964Y-111539414D01*
X173989666Y-111759998D01*
X173989666Y-111760001D01*
X174008964Y-111980585D01*
X174008965Y-111980592D01*
X174066275Y-112194475D01*
X174066279Y-112194486D01*
X174159856Y-112395163D01*
X174159858Y-112395167D01*
X174286868Y-112576555D01*
X174443445Y-112733132D01*
X174624833Y-112860142D01*
X174686828Y-112889050D01*
X174748091Y-112917618D01*
X174800531Y-112963790D01*
X174819683Y-113030983D01*
X174799467Y-113097865D01*
X174748091Y-113142382D01*
X174624836Y-113199856D01*
X174624834Y-113199857D01*
X174443444Y-113326868D01*
X174286868Y-113483444D01*
X174159857Y-113664834D01*
X174159856Y-113664836D01*
X174066279Y-113865513D01*
X174066275Y-113865524D01*
X174008965Y-114079407D01*
X174008964Y-114079414D01*
X173989666Y-114299998D01*
X173989666Y-114300001D01*
X174008964Y-114520585D01*
X174008965Y-114520592D01*
X174066275Y-114734475D01*
X174066279Y-114734486D01*
X174159856Y-114935163D01*
X174159858Y-114935167D01*
X174286868Y-115116555D01*
X174443445Y-115273132D01*
X174624833Y-115400142D01*
X174686828Y-115429050D01*
X174748091Y-115457618D01*
X174800531Y-115503790D01*
X174819683Y-115570983D01*
X174799467Y-115637865D01*
X174748091Y-115682382D01*
X174624836Y-115739856D01*
X174624834Y-115739857D01*
X174443444Y-115866868D01*
X174286868Y-116023444D01*
X174159857Y-116204834D01*
X174159856Y-116204836D01*
X174066279Y-116405513D01*
X174066275Y-116405524D01*
X174008965Y-116619407D01*
X174008964Y-116619414D01*
X173989666Y-116839998D01*
X173989666Y-116840001D01*
X174008964Y-117060585D01*
X174008965Y-117060592D01*
X174066275Y-117274475D01*
X174066279Y-117274486D01*
X174159856Y-117475163D01*
X174159858Y-117475167D01*
X174286868Y-117656555D01*
X174443445Y-117813132D01*
X174624833Y-117940142D01*
X174686828Y-117969050D01*
X174748091Y-117997618D01*
X174800531Y-118043790D01*
X174819683Y-118110983D01*
X174799467Y-118177865D01*
X174748091Y-118222382D01*
X174624836Y-118279856D01*
X174624834Y-118279857D01*
X174443444Y-118406868D01*
X174286868Y-118563444D01*
X174159857Y-118744834D01*
X174159856Y-118744836D01*
X174066279Y-118945513D01*
X174066275Y-118945524D01*
X174008965Y-119159407D01*
X174008964Y-119159414D01*
X173989666Y-119379998D01*
X173989666Y-119380001D01*
X151130334Y-119380001D01*
X151130334Y-119380000D01*
X151111035Y-119159409D01*
X151053723Y-118945520D01*
X150960142Y-118744833D01*
X150833132Y-118563445D01*
X150676555Y-118406868D01*
X150495167Y-118279858D01*
X150371907Y-118222381D01*
X150319468Y-118176210D01*
X150300316Y-118109017D01*
X150320531Y-118042136D01*
X150371908Y-117997618D01*
X150495167Y-117940142D01*
X150676555Y-117813132D01*
X150833132Y-117656555D01*
X150960142Y-117475167D01*
X151053723Y-117274480D01*
X151111035Y-117060591D01*
X151130334Y-116840000D01*
X151111035Y-116619409D01*
X151053723Y-116405520D01*
X150960142Y-116204833D01*
X150833132Y-116023445D01*
X150676555Y-115866868D01*
X150495167Y-115739858D01*
X150371907Y-115682381D01*
X150319468Y-115636210D01*
X150300316Y-115569017D01*
X150320531Y-115502136D01*
X150371908Y-115457618D01*
X150495167Y-115400142D01*
X150676555Y-115273132D01*
X150833132Y-115116555D01*
X150960142Y-114935167D01*
X151053723Y-114734480D01*
X151111035Y-114520591D01*
X151130334Y-114300000D01*
X151111035Y-114079409D01*
X151053723Y-113865520D01*
X150960142Y-113664833D01*
X150833132Y-113483445D01*
X150676555Y-113326868D01*
X150495167Y-113199858D01*
X150371907Y-113142381D01*
X150319468Y-113096210D01*
X150300316Y-113029017D01*
X150320531Y-112962136D01*
X150371908Y-112917618D01*
X150495167Y-112860142D01*
X150676555Y-112733132D01*
X150833132Y-112576555D01*
X150960142Y-112395167D01*
X151053723Y-112194480D01*
X151111035Y-111980591D01*
X151130334Y-111760000D01*
X151111035Y-111539409D01*
X151053723Y-111325520D01*
X150960142Y-111124833D01*
X150833132Y-110943445D01*
X150676555Y-110786868D01*
X150495167Y-110659858D01*
X150371907Y-110602381D01*
X150319468Y-110556210D01*
X150300316Y-110489017D01*
X150320531Y-110422136D01*
X150371908Y-110377618D01*
X150495167Y-110320142D01*
X150676555Y-110193132D01*
X150833132Y-110036555D01*
X150960142Y-109855167D01*
X151053723Y-109654480D01*
X151111035Y-109440591D01*
X151130334Y-109220000D01*
X151111035Y-108999409D01*
X151053723Y-108785520D01*
X150960142Y-108584833D01*
X150833132Y-108403445D01*
X150676555Y-108246868D01*
X150495167Y-108119858D01*
X150371907Y-108062381D01*
X150319468Y-108016210D01*
X150300316Y-107949017D01*
X150320531Y-107882136D01*
X150371908Y-107837618D01*
X150495167Y-107780142D01*
X150676555Y-107653132D01*
X150833132Y-107496555D01*
X150960142Y-107315167D01*
X151053723Y-107114480D01*
X151111035Y-106900591D01*
X151130334Y-106680000D01*
X151111035Y-106459409D01*
X151053723Y-106245520D01*
X150960142Y-106044833D01*
X150833132Y-105863445D01*
X150676555Y-105706868D01*
X150495167Y-105579858D01*
X150371907Y-105522381D01*
X150319468Y-105476210D01*
X150300316Y-105409017D01*
X150320531Y-105342136D01*
X150371908Y-105297618D01*
X150396602Y-105286103D01*
X150495167Y-105240142D01*
X150676555Y-105113132D01*
X150833132Y-104956555D01*
X150960142Y-104775167D01*
X151053723Y-104574480D01*
X151111035Y-104360591D01*
X151130334Y-104140000D01*
X151111035Y-103919409D01*
X151053723Y-103705520D01*
X150960142Y-103504833D01*
X150833132Y-103323445D01*
X150676555Y-103166868D01*
X150495167Y-103039858D01*
X150371907Y-102982381D01*
X150319468Y-102936210D01*
X150300316Y-102869017D01*
X150320531Y-102802136D01*
X150371908Y-102757618D01*
X150495167Y-102700142D01*
X150676555Y-102573132D01*
X150833132Y-102416555D01*
X150960142Y-102235167D01*
X151053723Y-102034480D01*
X151111035Y-101820591D01*
X151130334Y-101600000D01*
X151111035Y-101379409D01*
X151053723Y-101165520D01*
X150960142Y-100964833D01*
X150833132Y-100783445D01*
X150676555Y-100626868D01*
X150495167Y-100499858D01*
X150371907Y-100442381D01*
X150319468Y-100396210D01*
X150300316Y-100329017D01*
X150320531Y-100262136D01*
X150371908Y-100217618D01*
X150406645Y-100201420D01*
X150495167Y-100160142D01*
X150676555Y-100033132D01*
X150833132Y-99876555D01*
X150960142Y-99695167D01*
X151053723Y-99494480D01*
X151111035Y-99280591D01*
X151130334Y-99060000D01*
X151111035Y-98839409D01*
X151053723Y-98625520D01*
X150960142Y-98424833D01*
X150833132Y-98243445D01*
X150676555Y-98086868D01*
X150495167Y-97959858D01*
X150371907Y-97902381D01*
X150319468Y-97856210D01*
X150300316Y-97789017D01*
X150320531Y-97722136D01*
X150371908Y-97677618D01*
X150495167Y-97620142D01*
X150676555Y-97493132D01*
X150833132Y-97336555D01*
X150960142Y-97155167D01*
X151053723Y-96954480D01*
X151111035Y-96740591D01*
X151130334Y-96520000D01*
X151111035Y-96299409D01*
X151053723Y-96085520D01*
X150960142Y-95884833D01*
X150833132Y-95703445D01*
X150676555Y-95546868D01*
X150495167Y-95419858D01*
X150371907Y-95362381D01*
X150319468Y-95316210D01*
X150300316Y-95249017D01*
X150320531Y-95182136D01*
X150371908Y-95137618D01*
X150372500Y-95137342D01*
X150495167Y-95080142D01*
X150676555Y-94953132D01*
X150833132Y-94796555D01*
X150960142Y-94615167D01*
X151053723Y-94414480D01*
X151111035Y-94200591D01*
X151130334Y-93980000D01*
X151111035Y-93759409D01*
X151053723Y-93545520D01*
X150960142Y-93344833D01*
X150833132Y-93163445D01*
X150676555Y-93006868D01*
X150495167Y-92879858D01*
X150371907Y-92822381D01*
X150319468Y-92776210D01*
X150300316Y-92709017D01*
X150320531Y-92642136D01*
X150371908Y-92597618D01*
X150495167Y-92540142D01*
X150676555Y-92413132D01*
X150833132Y-92256555D01*
X150960142Y-92075167D01*
X151053723Y-91874480D01*
X151111035Y-91660591D01*
X151130334Y-91440000D01*
X151111035Y-91219409D01*
X151053723Y-91005520D01*
X150960142Y-90804833D01*
X150833132Y-90623445D01*
X150676555Y-90466868D01*
X150495167Y-90339858D01*
X150371907Y-90282381D01*
X150319468Y-90236210D01*
X150300316Y-90169017D01*
X150320531Y-90102136D01*
X150371908Y-90057618D01*
X150495167Y-90000142D01*
X150676555Y-89873132D01*
X150833132Y-89716555D01*
X150960142Y-89535167D01*
X151053723Y-89334480D01*
X151111035Y-89120591D01*
X151130334Y-88900000D01*
X151111035Y-88679409D01*
X151053723Y-88465520D01*
X150960142Y-88264833D01*
X150833132Y-88083445D01*
X150676555Y-87926868D01*
X150495167Y-87799858D01*
X150371907Y-87742381D01*
X150319468Y-87696210D01*
X150300316Y-87629017D01*
X150320531Y-87562136D01*
X150371908Y-87517618D01*
X150495167Y-87460142D01*
X150676555Y-87333132D01*
X150833132Y-87176555D01*
X150960142Y-86995167D01*
X151053723Y-86794480D01*
X151111035Y-86580591D01*
X151130334Y-86360000D01*
X151111035Y-86139409D01*
X151053723Y-85925520D01*
X150960142Y-85724833D01*
X150833132Y-85543445D01*
X150676555Y-85386868D01*
X150495167Y-85259858D01*
X150371907Y-85202381D01*
X150319468Y-85156210D01*
X150300316Y-85089017D01*
X150320531Y-85022136D01*
X150371908Y-84977618D01*
X150495167Y-84920142D01*
X150676555Y-84793132D01*
X150833132Y-84636555D01*
X150960142Y-84455167D01*
X151053723Y-84254480D01*
X151111035Y-84040591D01*
X151130334Y-83820000D01*
X151111035Y-83599409D01*
X151053723Y-83385520D01*
X150960142Y-83184833D01*
X150833132Y-83003445D01*
X150676555Y-82846868D01*
X150495167Y-82719858D01*
X150371907Y-82662381D01*
X150319468Y-82616210D01*
X150300316Y-82549017D01*
X150320531Y-82482136D01*
X150371908Y-82437618D01*
X150495167Y-82380142D01*
X150676555Y-82253132D01*
X150833132Y-82096555D01*
X150960142Y-81915167D01*
X151053723Y-81714480D01*
X151111035Y-81500591D01*
X151130334Y-81280000D01*
X151111035Y-81059409D01*
X151053723Y-80845520D01*
X150960142Y-80644833D01*
X150833132Y-80463445D01*
X150676555Y-80306868D01*
X150495167Y-80179858D01*
X150371907Y-80122381D01*
X150319468Y-80076210D01*
X150300316Y-80009017D01*
X150320531Y-79942136D01*
X150371908Y-79897618D01*
X150495167Y-79840142D01*
X150676555Y-79713132D01*
X150833132Y-79556555D01*
X150960142Y-79375167D01*
X151053723Y-79174480D01*
X151111035Y-78960591D01*
X151130334Y-78740000D01*
X151111035Y-78519409D01*
X151053723Y-78305520D01*
X150960142Y-78104833D01*
X150833132Y-77923445D01*
X150676555Y-77766868D01*
X150495167Y-77639858D01*
X150371907Y-77582381D01*
X150319468Y-77536210D01*
X150300316Y-77469017D01*
X150320531Y-77402136D01*
X150371908Y-77357618D01*
X150495167Y-77300142D01*
X150676555Y-77173132D01*
X150833132Y-77016555D01*
X150960142Y-76835167D01*
X151053723Y-76634480D01*
X151111035Y-76420591D01*
X151130334Y-76200000D01*
X151111035Y-75979409D01*
X151053723Y-75765520D01*
X150960142Y-75564833D01*
X150833132Y-75383445D01*
X150676555Y-75226868D01*
X150676552Y-75226866D01*
X150676550Y-75226864D01*
X150617495Y-75185513D01*
X150568309Y-75151073D01*
X150524685Y-75096497D01*
X150517491Y-75026999D01*
X150549014Y-74964644D01*
X150609244Y-74929230D01*
X150639432Y-74925499D01*
X150672872Y-74925499D01*
X150732483Y-74919091D01*
X150867331Y-74868796D01*
X150982546Y-74782546D01*
X151068796Y-74667331D01*
X151119091Y-74532483D01*
X151125500Y-74472873D01*
X151125499Y-72847128D01*
X151119091Y-72787517D01*
X151068796Y-72652669D01*
X151068795Y-72652668D01*
X151068793Y-72652664D01*
X150982547Y-72537455D01*
X150982544Y-72537452D01*
X150867335Y-72451206D01*
X150867328Y-72451202D01*
X150732482Y-72400908D01*
X150732483Y-72400908D01*
X150672883Y-72394501D01*
X150672881Y-72394500D01*
X150672873Y-72394500D01*
X150672864Y-72394500D01*
X149047129Y-72394500D01*
X149047123Y-72394501D01*
X148987516Y-72400908D01*
X148852671Y-72451202D01*
X148852664Y-72451206D01*
X148737455Y-72537452D01*
X148737452Y-72537455D01*
X148651206Y-72652664D01*
X148651202Y-72652671D01*
X148600908Y-72787517D01*
X148594501Y-72847116D01*
X148594501Y-72847123D01*
X148594500Y-72847135D01*
X148594500Y-74472870D01*
X148594501Y-74472876D01*
X148600908Y-74532483D01*
X148651202Y-74667328D01*
X148651206Y-74667335D01*
X148737452Y-74782544D01*
X148737455Y-74782547D01*
X148852664Y-74868793D01*
X148852671Y-74868797D01*
X148987517Y-74919091D01*
X148987516Y-74919091D01*
X148994444Y-74919835D01*
X149047127Y-74925500D01*
X149080564Y-74925499D01*
X149147601Y-74945182D01*
X149193357Y-74997984D01*
X149203302Y-75067143D01*
X149174279Y-75130699D01*
X149151689Y-75151073D01*
X149043447Y-75226866D01*
X149043441Y-75226871D01*
X148886868Y-75383444D01*
X148759857Y-75564834D01*
X148759856Y-75564836D01*
X148666279Y-75765513D01*
X148666275Y-75765524D01*
X148608965Y-75979407D01*
X148608964Y-75979414D01*
X148589666Y-76199998D01*
X148589666Y-76200001D01*
X148608964Y-76420585D01*
X148608965Y-76420592D01*
X148666275Y-76634475D01*
X148666279Y-76634486D01*
X148759856Y-76835163D01*
X148759858Y-76835167D01*
X148886868Y-77016555D01*
X149043445Y-77173132D01*
X149224833Y-77300142D01*
X149286828Y-77329050D01*
X149348091Y-77357618D01*
X149400531Y-77403790D01*
X149419683Y-77470983D01*
X149399467Y-77537865D01*
X149348091Y-77582382D01*
X149224836Y-77639856D01*
X149224834Y-77639857D01*
X149043444Y-77766868D01*
X148886868Y-77923444D01*
X148759857Y-78104834D01*
X148759856Y-78104836D01*
X148666279Y-78305513D01*
X148666275Y-78305524D01*
X148608965Y-78519407D01*
X148608964Y-78519414D01*
X148589666Y-78739998D01*
X148589666Y-78740001D01*
X148608964Y-78960585D01*
X148608965Y-78960592D01*
X148666275Y-79174475D01*
X148666279Y-79174486D01*
X148759856Y-79375163D01*
X148759858Y-79375167D01*
X148886868Y-79556555D01*
X149043445Y-79713132D01*
X149224833Y-79840142D01*
X149286828Y-79869050D01*
X149348091Y-79897618D01*
X149400531Y-79943790D01*
X149419683Y-80010983D01*
X149399467Y-80077865D01*
X149348091Y-80122382D01*
X149224836Y-80179856D01*
X149224834Y-80179857D01*
X149043444Y-80306868D01*
X148886868Y-80463444D01*
X148759857Y-80644834D01*
X148759856Y-80644836D01*
X148666279Y-80845513D01*
X148666275Y-80845524D01*
X148608965Y-81059407D01*
X148608964Y-81059414D01*
X148589666Y-81279998D01*
X148589666Y-81280001D01*
X148608964Y-81500585D01*
X148608965Y-81500592D01*
X148666275Y-81714475D01*
X148666279Y-81714486D01*
X148759856Y-81915163D01*
X148759858Y-81915167D01*
X148886868Y-82096555D01*
X149043445Y-82253132D01*
X149224833Y-82380142D01*
X149286828Y-82409050D01*
X149348091Y-82437618D01*
X149400531Y-82483790D01*
X149419683Y-82550983D01*
X149399467Y-82617865D01*
X149348091Y-82662382D01*
X149224836Y-82719856D01*
X149224834Y-82719857D01*
X149043444Y-82846868D01*
X148886868Y-83003444D01*
X148759857Y-83184834D01*
X148759856Y-83184836D01*
X148666279Y-83385513D01*
X148666275Y-83385524D01*
X148608965Y-83599407D01*
X148608964Y-83599414D01*
X148589666Y-83819998D01*
X148589666Y-83820001D01*
X148608964Y-84040585D01*
X148608965Y-84040592D01*
X148666275Y-84254475D01*
X148666279Y-84254486D01*
X148720429Y-84370611D01*
X148759858Y-84455167D01*
X148886868Y-84636555D01*
X149043445Y-84793132D01*
X149224833Y-84920142D01*
X149286828Y-84949050D01*
X149348091Y-84977618D01*
X149400531Y-85023790D01*
X149419683Y-85090983D01*
X149399467Y-85157865D01*
X149348091Y-85202382D01*
X149224836Y-85259856D01*
X149224834Y-85259857D01*
X149043444Y-85386868D01*
X148886868Y-85543444D01*
X148759857Y-85724834D01*
X148759856Y-85724836D01*
X148666279Y-85925513D01*
X148666275Y-85925524D01*
X148608965Y-86139407D01*
X148608964Y-86139414D01*
X148589666Y-86359998D01*
X148589666Y-86360001D01*
X148608964Y-86580585D01*
X148608965Y-86580592D01*
X148666275Y-86794475D01*
X148666279Y-86794486D01*
X148744776Y-86962823D01*
X148759858Y-86995167D01*
X148886868Y-87176555D01*
X149043445Y-87333132D01*
X149224833Y-87460142D01*
X149286828Y-87489050D01*
X149348091Y-87517618D01*
X149400531Y-87563790D01*
X149419683Y-87630983D01*
X149399467Y-87697865D01*
X149348091Y-87742382D01*
X149224836Y-87799856D01*
X149224834Y-87799857D01*
X149043444Y-87926868D01*
X148886868Y-88083444D01*
X148759857Y-88264834D01*
X148759856Y-88264836D01*
X148666279Y-88465513D01*
X148666275Y-88465524D01*
X148608965Y-88679407D01*
X148608964Y-88679414D01*
X148589666Y-88899998D01*
X148589666Y-88900001D01*
X148608964Y-89120585D01*
X148608965Y-89120592D01*
X148666275Y-89334475D01*
X148666279Y-89334486D01*
X148759856Y-89535163D01*
X148759858Y-89535167D01*
X148886868Y-89716555D01*
X149043445Y-89873132D01*
X149224833Y-90000142D01*
X149280722Y-90026203D01*
X149348091Y-90057618D01*
X149400531Y-90103790D01*
X149419683Y-90170983D01*
X149399467Y-90237865D01*
X149348091Y-90282382D01*
X149224836Y-90339856D01*
X149224834Y-90339857D01*
X149043444Y-90466868D01*
X148886868Y-90623444D01*
X148759857Y-90804834D01*
X148759856Y-90804836D01*
X148666279Y-91005513D01*
X148666275Y-91005524D01*
X148608965Y-91219407D01*
X148608964Y-91219414D01*
X148589666Y-91439998D01*
X148589666Y-91440001D01*
X148608964Y-91660585D01*
X148608965Y-91660592D01*
X148666275Y-91874475D01*
X148666279Y-91874486D01*
X148759156Y-92073662D01*
X148759858Y-92075167D01*
X148886868Y-92256555D01*
X149043445Y-92413132D01*
X149224833Y-92540142D01*
X149280722Y-92566203D01*
X149348091Y-92597618D01*
X149400531Y-92643790D01*
X149419683Y-92710983D01*
X149399467Y-92777865D01*
X149348091Y-92822382D01*
X149224836Y-92879856D01*
X149224834Y-92879857D01*
X149043444Y-93006868D01*
X148886868Y-93163444D01*
X148759857Y-93344834D01*
X148759856Y-93344836D01*
X148666279Y-93545513D01*
X148666275Y-93545524D01*
X148608965Y-93759407D01*
X148608964Y-93759414D01*
X148589666Y-93979998D01*
X148589666Y-93980001D01*
X148608964Y-94200585D01*
X148608965Y-94200592D01*
X148666275Y-94414475D01*
X148666279Y-94414486D01*
X148759037Y-94613407D01*
X148759858Y-94615167D01*
X148886868Y-94796555D01*
X149043445Y-94953132D01*
X149224833Y-95080142D01*
X149280722Y-95106203D01*
X149348091Y-95137618D01*
X149400531Y-95183790D01*
X149419683Y-95250983D01*
X149399467Y-95317865D01*
X149348091Y-95362382D01*
X149224836Y-95419856D01*
X149224834Y-95419857D01*
X149043444Y-95546868D01*
X148886868Y-95703444D01*
X148759857Y-95884834D01*
X148759856Y-95884836D01*
X148666279Y-96085513D01*
X148666275Y-96085524D01*
X148608965Y-96299407D01*
X148608964Y-96299414D01*
X148589666Y-96519998D01*
X148589666Y-96520001D01*
X148608964Y-96740585D01*
X148608965Y-96740592D01*
X148666275Y-96954475D01*
X148666279Y-96954486D01*
X148759156Y-97153662D01*
X148759858Y-97155167D01*
X148886868Y-97336555D01*
X149043445Y-97493132D01*
X149224833Y-97620142D01*
X149280722Y-97646203D01*
X149348091Y-97677618D01*
X149400531Y-97723790D01*
X149419683Y-97790983D01*
X149399467Y-97857865D01*
X149348091Y-97902382D01*
X149224836Y-97959856D01*
X149224834Y-97959857D01*
X149043444Y-98086868D01*
X148886868Y-98243444D01*
X148759857Y-98424834D01*
X148759856Y-98424836D01*
X148666279Y-98625513D01*
X148666275Y-98625524D01*
X148608965Y-98839407D01*
X148608964Y-98839414D01*
X148589666Y-99059998D01*
X148589666Y-99060001D01*
X148608964Y-99280585D01*
X148608965Y-99280592D01*
X148666275Y-99494475D01*
X148666279Y-99494486D01*
X148744776Y-99662823D01*
X148759858Y-99695167D01*
X148886868Y-99876555D01*
X149043445Y-100033132D01*
X149224833Y-100160142D01*
X149286828Y-100189050D01*
X149348091Y-100217618D01*
X149400531Y-100263790D01*
X149419683Y-100330983D01*
X149399467Y-100397865D01*
X149348091Y-100442382D01*
X149224836Y-100499856D01*
X149224834Y-100499857D01*
X149043444Y-100626868D01*
X148886868Y-100783444D01*
X148759857Y-100964834D01*
X148759856Y-100964836D01*
X148666279Y-101165513D01*
X148666275Y-101165524D01*
X148608965Y-101379407D01*
X148608964Y-101379414D01*
X148589666Y-101599998D01*
X148589666Y-101600001D01*
X148608964Y-101820585D01*
X148608965Y-101820592D01*
X148666275Y-102034475D01*
X148666279Y-102034486D01*
X148759156Y-102233662D01*
X148759858Y-102235167D01*
X148886868Y-102416555D01*
X149043445Y-102573132D01*
X149224833Y-102700142D01*
X149286828Y-102729050D01*
X149348091Y-102757618D01*
X149400531Y-102803790D01*
X149419683Y-102870983D01*
X149399467Y-102937865D01*
X149348091Y-102982382D01*
X149224836Y-103039856D01*
X149224834Y-103039857D01*
X149043444Y-103166868D01*
X148886868Y-103323444D01*
X148759857Y-103504834D01*
X148759856Y-103504836D01*
X148666279Y-103705513D01*
X148666275Y-103705524D01*
X148608965Y-103919407D01*
X148608964Y-103919414D01*
X148589666Y-104139998D01*
X148589666Y-104140001D01*
X148608964Y-104360585D01*
X148608965Y-104360592D01*
X148666275Y-104574475D01*
X148666279Y-104574486D01*
X148759037Y-104773407D01*
X148759858Y-104775167D01*
X148886868Y-104956555D01*
X149043445Y-105113132D01*
X149224833Y-105240142D01*
X149286828Y-105269050D01*
X149348091Y-105297618D01*
X149400531Y-105343790D01*
X149419683Y-105410983D01*
X149399467Y-105477865D01*
X149348091Y-105522382D01*
X149224836Y-105579856D01*
X149224834Y-105579857D01*
X149043444Y-105706868D01*
X148886868Y-105863444D01*
X148759857Y-106044834D01*
X148759856Y-106044836D01*
X148666279Y-106245513D01*
X148666275Y-106245524D01*
X148608965Y-106459407D01*
X148608964Y-106459414D01*
X148589666Y-106679998D01*
X148589666Y-106680001D01*
X148608964Y-106900585D01*
X148608965Y-106900592D01*
X148666275Y-107114475D01*
X148666279Y-107114486D01*
X148759156Y-107313662D01*
X148759858Y-107315167D01*
X148886868Y-107496555D01*
X149043445Y-107653132D01*
X149224833Y-107780142D01*
X149286828Y-107809050D01*
X149348091Y-107837618D01*
X149400531Y-107883790D01*
X149419683Y-107950983D01*
X149399467Y-108017865D01*
X149348091Y-108062382D01*
X149224836Y-108119856D01*
X149224834Y-108119857D01*
X149043444Y-108246868D01*
X148886868Y-108403444D01*
X148759857Y-108584834D01*
X148759856Y-108584836D01*
X148666279Y-108785513D01*
X148666275Y-108785524D01*
X148608965Y-108999407D01*
X148608964Y-108999414D01*
X148589666Y-109219998D01*
X148589666Y-109220001D01*
X148608964Y-109440585D01*
X148608965Y-109440592D01*
X148666275Y-109654475D01*
X148666279Y-109654486D01*
X148759156Y-109853662D01*
X148759858Y-109855167D01*
X148886868Y-110036555D01*
X149043445Y-110193132D01*
X149224833Y-110320142D01*
X149286828Y-110349050D01*
X149348091Y-110377618D01*
X149400531Y-110423790D01*
X149419683Y-110490983D01*
X149399467Y-110557865D01*
X149348091Y-110602382D01*
X149224836Y-110659856D01*
X149224834Y-110659857D01*
X149043444Y-110786868D01*
X148886868Y-110943444D01*
X148759857Y-111124834D01*
X148759856Y-111124836D01*
X148666279Y-111325513D01*
X148666275Y-111325524D01*
X148608965Y-111539407D01*
X148608964Y-111539414D01*
X148589666Y-111759998D01*
X148589666Y-111760001D01*
X148608964Y-111980585D01*
X148608965Y-111980592D01*
X148666275Y-112194475D01*
X148666279Y-112194486D01*
X148759856Y-112395163D01*
X148759858Y-112395167D01*
X148886868Y-112576555D01*
X149043445Y-112733132D01*
X149224833Y-112860142D01*
X149286828Y-112889050D01*
X149348091Y-112917618D01*
X149400531Y-112963790D01*
X149419683Y-113030983D01*
X149399467Y-113097865D01*
X149348091Y-113142382D01*
X149224836Y-113199856D01*
X149224834Y-113199857D01*
X149043444Y-113326868D01*
X148886868Y-113483444D01*
X148759857Y-113664834D01*
X148759856Y-113664836D01*
X148666279Y-113865513D01*
X148666275Y-113865524D01*
X148608965Y-114079407D01*
X148608964Y-114079414D01*
X148589666Y-114299998D01*
X148589666Y-114300001D01*
X148608964Y-114520585D01*
X148608965Y-114520592D01*
X148666275Y-114734475D01*
X148666279Y-114734486D01*
X148759856Y-114935163D01*
X148759858Y-114935167D01*
X148886868Y-115116555D01*
X149043445Y-115273132D01*
X149224833Y-115400142D01*
X149286828Y-115429050D01*
X149348091Y-115457618D01*
X149400531Y-115503790D01*
X149419683Y-115570983D01*
X149399467Y-115637865D01*
X149348091Y-115682382D01*
X149224836Y-115739856D01*
X149224834Y-115739857D01*
X149043444Y-115866868D01*
X148886868Y-116023444D01*
X148759857Y-116204834D01*
X148759856Y-116204836D01*
X148666279Y-116405513D01*
X148666275Y-116405524D01*
X148608965Y-116619407D01*
X148608964Y-116619414D01*
X148589666Y-116839998D01*
X148589666Y-116840001D01*
X148608964Y-117060585D01*
X148608965Y-117060592D01*
X148666275Y-117274475D01*
X148666279Y-117274486D01*
X148759856Y-117475163D01*
X148759858Y-117475167D01*
X148886868Y-117656555D01*
X149043445Y-117813132D01*
X149224833Y-117940142D01*
X149286828Y-117969050D01*
X149348091Y-117997618D01*
X149400531Y-118043790D01*
X149419683Y-118110983D01*
X149399467Y-118177865D01*
X149348091Y-118222382D01*
X149224836Y-118279856D01*
X149224834Y-118279857D01*
X149043444Y-118406868D01*
X148886868Y-118563444D01*
X148759857Y-118744834D01*
X148759856Y-118744836D01*
X148666279Y-118945513D01*
X148666275Y-118945524D01*
X148608965Y-119159407D01*
X148608964Y-119159414D01*
X148589666Y-119379998D01*
X148589666Y-119380001D01*
X115316500Y-119380001D01*
X115316500Y-97028002D01*
X115820677Y-97028002D01*
X115839929Y-97248062D01*
X115839930Y-97248070D01*
X115897104Y-97461445D01*
X115897105Y-97461447D01*
X115897106Y-97461450D01*
X115983257Y-97646203D01*
X115990466Y-97661662D01*
X115990468Y-97661666D01*
X116117170Y-97842615D01*
X116117175Y-97842621D01*
X116273378Y-97998824D01*
X116273384Y-97998829D01*
X116454333Y-98125531D01*
X116454335Y-98125532D01*
X116454338Y-98125534D01*
X116654550Y-98218894D01*
X116867932Y-98276070D01*
X117025123Y-98289822D01*
X117087998Y-98295323D01*
X117088000Y-98295323D01*
X117088002Y-98295323D01*
X117143017Y-98290509D01*
X117308068Y-98276070D01*
X117521450Y-98218894D01*
X117721662Y-98125534D01*
X117902620Y-97998826D01*
X118058826Y-97842620D01*
X118121954Y-97752463D01*
X118160775Y-97697022D01*
X118215352Y-97653397D01*
X118284850Y-97646203D01*
X118347205Y-97677726D01*
X118382619Y-97737956D01*
X118386350Y-97768145D01*
X118386350Y-104320454D01*
X118385960Y-104327402D01*
X118381623Y-104365888D01*
X118381622Y-104365895D01*
X118384031Y-104401612D01*
X118386210Y-104433936D01*
X118386350Y-104438090D01*
X118386350Y-104450033D01*
X118390119Y-104491918D01*
X118395616Y-104573450D01*
X118396730Y-104589963D01*
X118396731Y-104589970D01*
X118397791Y-104594177D01*
X118401047Y-104613346D01*
X118401436Y-104617669D01*
X118427591Y-104712441D01*
X118443396Y-104775167D01*
X118451604Y-104807738D01*
X118453402Y-104811697D01*
X118460029Y-104829977D01*
X118461183Y-104834159D01*
X118461186Y-104834168D01*
X118503829Y-104922716D01*
X118544479Y-105012212D01*
X118546959Y-105015792D01*
X118556743Y-105032594D01*
X118558625Y-105036501D01*
X118558629Y-105036509D01*
X118612623Y-105110824D01*
X118616381Y-105115997D01*
X118668857Y-105191741D01*
X118672377Y-105196821D01*
X118675441Y-105199885D01*
X118688086Y-105214689D01*
X118690631Y-105218193D01*
X118761659Y-105286103D01*
X123432444Y-109956887D01*
X123446337Y-109973443D01*
X123489174Y-110034620D01*
X123489175Y-110034621D01*
X123489176Y-110034622D01*
X123645378Y-110190824D01*
X123645384Y-110190829D01*
X123826333Y-110317531D01*
X123826335Y-110317532D01*
X123826338Y-110317534D01*
X124026550Y-110410894D01*
X124239932Y-110468070D01*
X124397123Y-110481822D01*
X124459998Y-110487323D01*
X124460000Y-110487323D01*
X124460002Y-110487323D01*
X124515017Y-110482509D01*
X124680068Y-110468070D01*
X124893450Y-110410894D01*
X125093662Y-110317534D01*
X125274620Y-110190826D01*
X125430826Y-110034620D01*
X125557534Y-109853662D01*
X125650894Y-109653450D01*
X125708070Y-109440068D01*
X125727323Y-109220000D01*
X125708070Y-108999932D01*
X125650894Y-108786550D01*
X125557534Y-108586339D01*
X125430826Y-108405380D01*
X125274620Y-108249174D01*
X125274615Y-108249171D01*
X125274612Y-108249168D01*
X125213447Y-108206339D01*
X125196890Y-108192446D01*
X121144444Y-104140000D01*
X122939179Y-104140000D01*
X122958424Y-104359976D01*
X122958426Y-104359986D01*
X123015575Y-104573270D01*
X123015580Y-104573284D01*
X123108899Y-104773407D01*
X123108900Y-104773409D01*
X123154258Y-104838187D01*
X123821096Y-104171349D01*
X123821051Y-104171898D01*
X123852266Y-104295162D01*
X123921813Y-104401612D01*
X124022157Y-104479713D01*
X124142422Y-104521000D01*
X124178553Y-104521000D01*
X123507811Y-105191741D01*
X123572582Y-105237094D01*
X123572592Y-105237100D01*
X123772715Y-105330419D01*
X123772729Y-105330424D01*
X123986013Y-105387573D01*
X123986023Y-105387575D01*
X124205999Y-105406821D01*
X124206001Y-105406821D01*
X124425976Y-105387575D01*
X124425986Y-105387573D01*
X124639270Y-105330424D01*
X124639284Y-105330419D01*
X124839408Y-105237100D01*
X124839420Y-105237093D01*
X124904186Y-105191742D01*
X124904187Y-105191740D01*
X124233448Y-104521000D01*
X124237569Y-104521000D01*
X124331421Y-104505339D01*
X124443251Y-104444820D01*
X124529371Y-104351269D01*
X124580448Y-104234823D01*
X124586105Y-104166552D01*
X125257740Y-104838187D01*
X125257742Y-104838186D01*
X125303093Y-104773420D01*
X125303100Y-104773408D01*
X125396419Y-104573284D01*
X125396424Y-104573270D01*
X125453573Y-104359986D01*
X125453575Y-104359976D01*
X125472821Y-104140000D01*
X125472821Y-104139999D01*
X125453575Y-103920023D01*
X125453573Y-103920013D01*
X125396424Y-103706729D01*
X125396420Y-103706720D01*
X125303098Y-103506590D01*
X125257740Y-103441811D01*
X124590903Y-104108648D01*
X124590949Y-104108102D01*
X124559734Y-103984838D01*
X124490187Y-103878388D01*
X124389843Y-103800287D01*
X124269578Y-103759000D01*
X124233447Y-103759000D01*
X124904187Y-103088258D01*
X124839409Y-103042900D01*
X124839407Y-103042899D01*
X124639284Y-102949580D01*
X124639270Y-102949575D01*
X124425986Y-102892426D01*
X124425976Y-102892424D01*
X124206001Y-102873179D01*
X124205999Y-102873179D01*
X123986023Y-102892424D01*
X123986013Y-102892426D01*
X123772729Y-102949575D01*
X123772720Y-102949579D01*
X123572586Y-103042903D01*
X123507812Y-103088257D01*
X123507811Y-103088258D01*
X124178554Y-103759000D01*
X124174431Y-103759000D01*
X124080579Y-103774661D01*
X123968749Y-103835180D01*
X123882629Y-103928731D01*
X123831552Y-104045177D01*
X123825894Y-104113447D01*
X123154258Y-103441811D01*
X123154257Y-103441812D01*
X123108903Y-103506586D01*
X123015579Y-103706720D01*
X123015575Y-103706729D01*
X122958426Y-103920013D01*
X122958424Y-103920023D01*
X122939179Y-104139999D01*
X122939179Y-104140000D01*
X121144444Y-104140000D01*
X120917969Y-103913525D01*
X120884484Y-103852202D01*
X120881650Y-103825844D01*
X120881650Y-85652155D01*
X120901335Y-85585116D01*
X120917969Y-85564474D01*
X121222587Y-85259856D01*
X121608126Y-84874316D01*
X121669447Y-84840833D01*
X121739138Y-84845817D01*
X121795072Y-84887688D01*
X121808186Y-84909593D01*
X121820543Y-84936094D01*
X121832464Y-84961658D01*
X121832468Y-84961666D01*
X121959170Y-85142615D01*
X121959175Y-85142621D01*
X122115378Y-85298824D01*
X122115384Y-85298829D01*
X122296333Y-85425531D01*
X122296335Y-85425532D01*
X122296338Y-85425534D01*
X122425189Y-85485618D01*
X122425781Y-85485894D01*
X122478220Y-85532066D01*
X122497372Y-85599260D01*
X122477156Y-85666141D01*
X122425781Y-85710658D01*
X122296586Y-85770903D01*
X122231812Y-85816257D01*
X122231811Y-85816258D01*
X122902554Y-86487000D01*
X122898431Y-86487000D01*
X122804579Y-86502661D01*
X122692749Y-86563180D01*
X122606629Y-86656731D01*
X122555552Y-86773177D01*
X122549894Y-86841447D01*
X121878258Y-86169811D01*
X121878257Y-86169812D01*
X121832903Y-86234586D01*
X121739579Y-86434720D01*
X121739575Y-86434729D01*
X121682426Y-86648013D01*
X121682424Y-86648023D01*
X121663179Y-86867999D01*
X121663179Y-86868000D01*
X121682424Y-87087976D01*
X121682426Y-87087986D01*
X121739575Y-87301270D01*
X121739580Y-87301284D01*
X121832899Y-87501407D01*
X121832900Y-87501409D01*
X121878258Y-87566187D01*
X122545096Y-86899349D01*
X122545051Y-86899898D01*
X122576266Y-87023162D01*
X122645813Y-87129612D01*
X122746157Y-87207713D01*
X122866422Y-87249000D01*
X122902553Y-87249000D01*
X122231811Y-87919741D01*
X122296582Y-87965094D01*
X122296588Y-87965098D01*
X122425781Y-88025342D01*
X122478220Y-88071514D01*
X122497372Y-88138708D01*
X122477156Y-88205589D01*
X122425781Y-88250106D01*
X122296340Y-88310465D01*
X122296338Y-88310466D01*
X122115377Y-88437175D01*
X121959175Y-88593377D01*
X121832466Y-88774338D01*
X121832465Y-88774340D01*
X121739107Y-88974548D01*
X121739104Y-88974554D01*
X121681930Y-89187929D01*
X121681929Y-89187937D01*
X121662677Y-89407997D01*
X121662677Y-89408002D01*
X121681929Y-89628062D01*
X121681930Y-89628070D01*
X121739104Y-89841445D01*
X121739105Y-89841447D01*
X121739106Y-89841450D01*
X121825257Y-90026203D01*
X121832466Y-90041662D01*
X121832468Y-90041666D01*
X121959170Y-90222615D01*
X121959175Y-90222621D01*
X122115378Y-90378824D01*
X122115384Y-90378829D01*
X122296333Y-90505531D01*
X122296335Y-90505532D01*
X122296338Y-90505534D01*
X122415748Y-90561215D01*
X122425189Y-90565618D01*
X122477628Y-90611790D01*
X122496780Y-90678984D01*
X122476564Y-90745865D01*
X122425189Y-90790382D01*
X122296340Y-90850465D01*
X122296338Y-90850466D01*
X122115377Y-90977175D01*
X121959175Y-91133377D01*
X121832466Y-91314338D01*
X121832465Y-91314340D01*
X121739107Y-91514548D01*
X121739104Y-91514554D01*
X121681930Y-91727929D01*
X121681929Y-91727937D01*
X121662677Y-91947997D01*
X121662677Y-91948002D01*
X121681929Y-92168062D01*
X121681930Y-92168070D01*
X121739104Y-92381445D01*
X121739105Y-92381447D01*
X121739106Y-92381450D01*
X121825257Y-92566203D01*
X121832466Y-92581662D01*
X121832468Y-92581666D01*
X121959170Y-92762615D01*
X121959175Y-92762621D01*
X122115378Y-92918824D01*
X122115384Y-92918829D01*
X122296333Y-93045531D01*
X122296335Y-93045532D01*
X122296338Y-93045534D01*
X122415748Y-93101215D01*
X122425189Y-93105618D01*
X122477628Y-93151790D01*
X122496780Y-93218984D01*
X122476564Y-93285865D01*
X122425189Y-93330382D01*
X122296340Y-93390465D01*
X122296338Y-93390466D01*
X122115377Y-93517175D01*
X121959175Y-93673377D01*
X121832466Y-93854338D01*
X121832465Y-93854340D01*
X121739107Y-94054548D01*
X121739104Y-94054554D01*
X121681930Y-94267929D01*
X121681929Y-94267937D01*
X121662677Y-94487997D01*
X121662677Y-94488002D01*
X121681929Y-94708062D01*
X121681930Y-94708070D01*
X121739104Y-94921445D01*
X121739105Y-94921447D01*
X121739106Y-94921450D01*
X121825257Y-95106203D01*
X121832466Y-95121662D01*
X121832468Y-95121666D01*
X121959170Y-95302615D01*
X121959175Y-95302621D01*
X122115378Y-95458824D01*
X122115384Y-95458829D01*
X122296333Y-95585531D01*
X122296335Y-95585532D01*
X122296338Y-95585534D01*
X122415748Y-95641215D01*
X122425189Y-95645618D01*
X122477628Y-95691790D01*
X122496780Y-95758984D01*
X122476564Y-95825865D01*
X122425189Y-95870382D01*
X122296340Y-95930465D01*
X122296338Y-95930466D01*
X122115377Y-96057175D01*
X121959175Y-96213377D01*
X121832466Y-96394338D01*
X121832465Y-96394340D01*
X121739107Y-96594548D01*
X121739104Y-96594554D01*
X121681930Y-96807929D01*
X121681929Y-96807937D01*
X121662677Y-97027997D01*
X121662677Y-97028002D01*
X121681929Y-97248062D01*
X121681930Y-97248070D01*
X121739104Y-97461445D01*
X121739105Y-97461447D01*
X121739106Y-97461450D01*
X121825257Y-97646203D01*
X121832466Y-97661662D01*
X121832468Y-97661666D01*
X121959170Y-97842615D01*
X121959175Y-97842621D01*
X122115378Y-97998824D01*
X122115384Y-97998829D01*
X122296333Y-98125531D01*
X122296335Y-98125532D01*
X122296338Y-98125534D01*
X122425781Y-98185894D01*
X122478220Y-98232066D01*
X122497372Y-98299260D01*
X122477156Y-98366141D01*
X122425781Y-98410658D01*
X122296586Y-98470903D01*
X122231812Y-98516257D01*
X122231811Y-98516258D01*
X122902554Y-99187000D01*
X122898431Y-99187000D01*
X122804579Y-99202661D01*
X122692749Y-99263180D01*
X122606629Y-99356731D01*
X122555552Y-99473177D01*
X122549894Y-99541447D01*
X121878258Y-98869811D01*
X121878257Y-98869812D01*
X121832903Y-98934586D01*
X121739579Y-99134720D01*
X121739575Y-99134729D01*
X121682426Y-99348013D01*
X121682424Y-99348023D01*
X121663179Y-99567999D01*
X121663179Y-99568000D01*
X121682424Y-99787976D01*
X121682426Y-99787986D01*
X121739575Y-100001270D01*
X121739580Y-100001284D01*
X121832899Y-100201407D01*
X121832900Y-100201409D01*
X121878258Y-100266187D01*
X122545096Y-99599349D01*
X122545051Y-99599898D01*
X122576266Y-99723162D01*
X122645813Y-99829612D01*
X122746157Y-99907713D01*
X122866422Y-99949000D01*
X122902553Y-99949000D01*
X122231811Y-100619741D01*
X122296582Y-100665094D01*
X122296592Y-100665100D01*
X122496715Y-100758419D01*
X122496729Y-100758424D01*
X122710013Y-100815573D01*
X122710023Y-100815575D01*
X122929999Y-100834821D01*
X122930001Y-100834821D01*
X123149976Y-100815575D01*
X123149986Y-100815573D01*
X123363270Y-100758424D01*
X123363284Y-100758419D01*
X123563408Y-100665100D01*
X123563420Y-100665093D01*
X123628186Y-100619742D01*
X123628187Y-100619740D01*
X122957448Y-99949000D01*
X122961569Y-99949000D01*
X123055421Y-99933339D01*
X123167251Y-99872820D01*
X123253371Y-99779269D01*
X123304448Y-99662823D01*
X123310105Y-99594552D01*
X123981740Y-100266187D01*
X123981742Y-100266186D01*
X124027093Y-100201420D01*
X124027100Y-100201408D01*
X124120419Y-100001284D01*
X124120424Y-100001270D01*
X124177573Y-99787986D01*
X124177575Y-99787976D01*
X124196821Y-99568000D01*
X124196821Y-99567999D01*
X124177575Y-99348023D01*
X124177573Y-99348013D01*
X124120424Y-99134729D01*
X124120420Y-99134720D01*
X124027098Y-98934590D01*
X123981740Y-98869811D01*
X123314903Y-99536648D01*
X123314949Y-99536102D01*
X123283734Y-99412838D01*
X123214187Y-99306388D01*
X123113843Y-99228287D01*
X122993578Y-99187000D01*
X122957447Y-99187000D01*
X123628187Y-98516258D01*
X123563409Y-98470900D01*
X123563407Y-98470899D01*
X123434219Y-98410658D01*
X123381779Y-98364486D01*
X123362627Y-98297293D01*
X123382843Y-98230411D01*
X123434219Y-98185894D01*
X123563662Y-98125534D01*
X123744620Y-97998826D01*
X123900826Y-97842620D01*
X124027534Y-97661662D01*
X124120894Y-97461450D01*
X124178070Y-97248068D01*
X124197323Y-97028002D01*
X137162677Y-97028002D01*
X137181929Y-97248062D01*
X137181930Y-97248070D01*
X137239104Y-97461445D01*
X137239105Y-97461447D01*
X137239106Y-97461450D01*
X137325257Y-97646203D01*
X137332466Y-97661662D01*
X137332468Y-97661666D01*
X137459170Y-97842615D01*
X137459175Y-97842621D01*
X137615378Y-97998824D01*
X137615384Y-97998829D01*
X137796333Y-98125531D01*
X137796335Y-98125532D01*
X137796338Y-98125534D01*
X137925781Y-98185894D01*
X137978220Y-98232066D01*
X137997372Y-98299260D01*
X137977156Y-98366141D01*
X137925781Y-98410658D01*
X137796586Y-98470903D01*
X137731812Y-98516257D01*
X137731811Y-98516258D01*
X138402554Y-99187000D01*
X138398431Y-99187000D01*
X138304579Y-99202661D01*
X138192749Y-99263180D01*
X138106629Y-99356731D01*
X138055552Y-99473177D01*
X138049894Y-99541447D01*
X137378258Y-98869811D01*
X137378257Y-98869812D01*
X137332903Y-98934586D01*
X137239579Y-99134720D01*
X137239575Y-99134729D01*
X137182426Y-99348013D01*
X137182424Y-99348023D01*
X137163179Y-99567999D01*
X137163179Y-99568000D01*
X137182424Y-99787976D01*
X137182426Y-99787986D01*
X137239575Y-100001270D01*
X137239580Y-100001284D01*
X137332899Y-100201407D01*
X137332900Y-100201409D01*
X137378258Y-100266187D01*
X138045096Y-99599349D01*
X138045051Y-99599898D01*
X138076266Y-99723162D01*
X138145813Y-99829612D01*
X138246157Y-99907713D01*
X138366422Y-99949000D01*
X138402553Y-99949000D01*
X137731811Y-100619741D01*
X137796582Y-100665094D01*
X137796592Y-100665100D01*
X137996715Y-100758419D01*
X137996729Y-100758424D01*
X138210013Y-100815573D01*
X138210023Y-100815575D01*
X138429999Y-100834821D01*
X138430001Y-100834821D01*
X138649976Y-100815575D01*
X138649986Y-100815573D01*
X138863270Y-100758424D01*
X138863284Y-100758419D01*
X139063408Y-100665100D01*
X139063420Y-100665093D01*
X139128186Y-100619742D01*
X139128187Y-100619740D01*
X138457448Y-99949000D01*
X138461569Y-99949000D01*
X138555421Y-99933339D01*
X138667251Y-99872820D01*
X138753371Y-99779269D01*
X138804448Y-99662823D01*
X138810105Y-99594552D01*
X139481740Y-100266187D01*
X139481742Y-100266186D01*
X139527093Y-100201420D01*
X139527100Y-100201408D01*
X139620419Y-100001284D01*
X139620424Y-100001270D01*
X139677573Y-99787986D01*
X139677575Y-99787976D01*
X139696821Y-99568000D01*
X139696821Y-99567999D01*
X139677575Y-99348023D01*
X139677573Y-99348013D01*
X139620424Y-99134729D01*
X139620420Y-99134720D01*
X139527098Y-98934590D01*
X139481740Y-98869811D01*
X138814903Y-99536648D01*
X138814949Y-99536102D01*
X138783734Y-99412838D01*
X138714187Y-99306388D01*
X138613843Y-99228287D01*
X138493578Y-99187000D01*
X138457447Y-99187000D01*
X139128187Y-98516258D01*
X139063409Y-98470900D01*
X139063407Y-98470899D01*
X138934219Y-98410658D01*
X138881779Y-98364486D01*
X138862627Y-98297293D01*
X138882843Y-98230411D01*
X138934219Y-98185894D01*
X139063662Y-98125534D01*
X139244620Y-97998826D01*
X139400826Y-97842620D01*
X139527534Y-97661662D01*
X139620894Y-97461450D01*
X139678070Y-97248068D01*
X139697323Y-97028000D01*
X139678070Y-96807932D01*
X139620894Y-96594550D01*
X139527534Y-96394339D01*
X139400826Y-96213380D01*
X139244620Y-96057174D01*
X139244616Y-96057171D01*
X139244615Y-96057170D01*
X139063666Y-95930468D01*
X139063658Y-95930464D01*
X138934811Y-95870382D01*
X138882371Y-95824210D01*
X138863219Y-95757017D01*
X138883435Y-95690135D01*
X138934811Y-95645618D01*
X138940802Y-95642824D01*
X139063662Y-95585534D01*
X139244620Y-95458826D01*
X139400826Y-95302620D01*
X139527534Y-95121662D01*
X139620894Y-94921450D01*
X139678070Y-94708068D01*
X139697323Y-94488000D01*
X139678070Y-94267932D01*
X139620894Y-94054550D01*
X139527534Y-93854339D01*
X139432341Y-93718388D01*
X139400827Y-93673381D01*
X139326446Y-93599000D01*
X139244620Y-93517174D01*
X139244616Y-93517171D01*
X139244615Y-93517170D01*
X139063666Y-93390468D01*
X139063658Y-93390464D01*
X138934811Y-93330382D01*
X138882371Y-93284210D01*
X138863219Y-93217017D01*
X138883435Y-93150135D01*
X138934811Y-93105618D01*
X138940802Y-93102824D01*
X139063662Y-93045534D01*
X139244620Y-92918826D01*
X139400826Y-92762620D01*
X139527534Y-92581662D01*
X139620894Y-92381450D01*
X139678070Y-92168068D01*
X139697323Y-91948000D01*
X139678070Y-91727932D01*
X139620894Y-91514550D01*
X139527534Y-91314339D01*
X139400826Y-91133380D01*
X139244620Y-90977174D01*
X139244616Y-90977171D01*
X139244615Y-90977170D01*
X139063666Y-90850468D01*
X139063658Y-90850464D01*
X138934811Y-90790382D01*
X138882371Y-90744210D01*
X138863219Y-90677017D01*
X138883435Y-90610135D01*
X138934811Y-90565618D01*
X138940802Y-90562824D01*
X139063662Y-90505534D01*
X139244620Y-90378826D01*
X139400826Y-90222620D01*
X139527534Y-90041662D01*
X139620894Y-89841450D01*
X139678070Y-89628068D01*
X139697323Y-89408000D01*
X139678070Y-89187932D01*
X139620894Y-88974550D01*
X139527534Y-88774339D01*
X139400826Y-88593380D01*
X139244620Y-88437174D01*
X139244616Y-88437171D01*
X139244615Y-88437170D01*
X139063666Y-88310468D01*
X139063658Y-88310464D01*
X138934811Y-88250382D01*
X138882371Y-88204210D01*
X138863219Y-88137017D01*
X138883435Y-88070135D01*
X138934811Y-88025618D01*
X138940802Y-88022824D01*
X139063662Y-87965534D01*
X139244620Y-87838826D01*
X139400826Y-87682620D01*
X139527534Y-87501662D01*
X139620894Y-87301450D01*
X139678070Y-87088068D01*
X139697323Y-86868000D01*
X139694532Y-86836102D01*
X139683748Y-86712838D01*
X139678070Y-86647932D01*
X139620894Y-86434550D01*
X139527534Y-86234339D01*
X139400826Y-86053380D01*
X139244620Y-85897174D01*
X139244616Y-85897171D01*
X139244615Y-85897170D01*
X139063666Y-85770468D01*
X139063658Y-85770464D01*
X138934811Y-85710382D01*
X138882371Y-85664210D01*
X138863219Y-85597017D01*
X138883435Y-85530135D01*
X138934811Y-85485618D01*
X138940802Y-85482824D01*
X139063662Y-85425534D01*
X139244620Y-85298826D01*
X139400826Y-85142620D01*
X139527534Y-84961662D01*
X139620894Y-84761450D01*
X139678070Y-84548068D01*
X139693595Y-84370611D01*
X139697323Y-84328002D01*
X139697323Y-84327997D01*
X139684249Y-84178560D01*
X139678070Y-84107932D01*
X139620894Y-83894550D01*
X139527534Y-83694339D01*
X139400826Y-83513380D01*
X139244620Y-83357174D01*
X139244616Y-83357171D01*
X139244615Y-83357170D01*
X139063666Y-83230468D01*
X139063658Y-83230464D01*
X138934811Y-83170382D01*
X138882371Y-83124210D01*
X138863219Y-83057017D01*
X138883435Y-82990135D01*
X138934811Y-82945618D01*
X138940802Y-82942824D01*
X139063662Y-82885534D01*
X139244620Y-82758826D01*
X139400826Y-82602620D01*
X139527534Y-82421662D01*
X139620894Y-82221450D01*
X139678070Y-82008068D01*
X139697323Y-81788000D01*
X139678070Y-81567932D01*
X139620894Y-81354550D01*
X139527534Y-81154339D01*
X139443656Y-81034548D01*
X139400827Y-80973381D01*
X139400823Y-80973377D01*
X139244620Y-80817174D01*
X139244616Y-80817171D01*
X139244615Y-80817170D01*
X139063666Y-80690468D01*
X139063662Y-80690466D01*
X139063660Y-80690465D01*
X138863450Y-80597106D01*
X138863447Y-80597105D01*
X138863445Y-80597104D01*
X138650070Y-80539930D01*
X138650062Y-80539929D01*
X138430002Y-80520677D01*
X138429998Y-80520677D01*
X138209937Y-80539929D01*
X138209929Y-80539930D01*
X137996554Y-80597104D01*
X137996548Y-80597107D01*
X137796340Y-80690465D01*
X137796338Y-80690466D01*
X137615377Y-80817175D01*
X137459175Y-80973377D01*
X137332466Y-81154338D01*
X137332465Y-81154340D01*
X137239107Y-81354548D01*
X137239104Y-81354554D01*
X137181930Y-81567929D01*
X137181929Y-81567937D01*
X137162677Y-81787997D01*
X137162677Y-81788002D01*
X137181929Y-82008062D01*
X137181930Y-82008070D01*
X137239104Y-82221445D01*
X137239105Y-82221447D01*
X137239106Y-82221450D01*
X137332466Y-82421662D01*
X137332468Y-82421666D01*
X137459170Y-82602615D01*
X137459175Y-82602621D01*
X137615378Y-82758824D01*
X137615384Y-82758829D01*
X137796333Y-82885531D01*
X137796335Y-82885532D01*
X137796338Y-82885534D01*
X137915748Y-82941215D01*
X137925189Y-82945618D01*
X137977628Y-82991790D01*
X137996780Y-83058984D01*
X137976564Y-83125865D01*
X137925189Y-83170382D01*
X137796340Y-83230465D01*
X137796338Y-83230466D01*
X137615377Y-83357175D01*
X137459175Y-83513377D01*
X137332466Y-83694338D01*
X137332465Y-83694340D01*
X137239107Y-83894548D01*
X137239104Y-83894554D01*
X137181930Y-84107929D01*
X137181929Y-84107937D01*
X137162677Y-84327997D01*
X137162677Y-84328002D01*
X137181929Y-84548062D01*
X137181930Y-84548070D01*
X137239104Y-84761445D01*
X137239105Y-84761447D01*
X137239106Y-84761450D01*
X137332464Y-84961658D01*
X137332466Y-84961662D01*
X137332468Y-84961666D01*
X137459170Y-85142615D01*
X137459175Y-85142621D01*
X137615378Y-85298824D01*
X137615384Y-85298829D01*
X137796333Y-85425531D01*
X137796335Y-85425532D01*
X137796338Y-85425534D01*
X137915748Y-85481215D01*
X137925189Y-85485618D01*
X137977628Y-85531790D01*
X137996780Y-85598984D01*
X137976564Y-85665865D01*
X137925189Y-85710382D01*
X137796340Y-85770465D01*
X137796338Y-85770466D01*
X137615377Y-85897175D01*
X137459175Y-86053377D01*
X137332466Y-86234338D01*
X137332465Y-86234340D01*
X137239107Y-86434548D01*
X137239104Y-86434554D01*
X137181930Y-86647929D01*
X137181929Y-86647937D01*
X137162677Y-86867997D01*
X137162677Y-86868002D01*
X137181929Y-87088062D01*
X137181930Y-87088070D01*
X137239104Y-87301445D01*
X137239105Y-87301447D01*
X137239106Y-87301450D01*
X137332347Y-87501407D01*
X137332466Y-87501662D01*
X137332468Y-87501666D01*
X137459170Y-87682615D01*
X137459175Y-87682621D01*
X137615378Y-87838824D01*
X137615384Y-87838829D01*
X137796333Y-87965531D01*
X137796335Y-87965532D01*
X137796338Y-87965534D01*
X137915748Y-88021215D01*
X137925189Y-88025618D01*
X137977628Y-88071790D01*
X137996780Y-88138984D01*
X137976564Y-88205865D01*
X137925189Y-88250382D01*
X137796340Y-88310465D01*
X137796338Y-88310466D01*
X137615377Y-88437175D01*
X137459175Y-88593377D01*
X137332466Y-88774338D01*
X137332465Y-88774340D01*
X137239107Y-88974548D01*
X137239104Y-88974554D01*
X137181930Y-89187929D01*
X137181929Y-89187937D01*
X137162677Y-89407997D01*
X137162677Y-89408002D01*
X137181929Y-89628062D01*
X137181930Y-89628070D01*
X137239104Y-89841445D01*
X137239105Y-89841447D01*
X137239106Y-89841450D01*
X137325257Y-90026203D01*
X137332466Y-90041662D01*
X137332468Y-90041666D01*
X137459170Y-90222615D01*
X137459175Y-90222621D01*
X137615378Y-90378824D01*
X137615384Y-90378829D01*
X137796333Y-90505531D01*
X137796335Y-90505532D01*
X137796338Y-90505534D01*
X137915748Y-90561215D01*
X137925189Y-90565618D01*
X137977628Y-90611790D01*
X137996780Y-90678984D01*
X137976564Y-90745865D01*
X137925189Y-90790382D01*
X137796340Y-90850465D01*
X137796338Y-90850466D01*
X137615377Y-90977175D01*
X137459175Y-91133377D01*
X137332466Y-91314338D01*
X137332465Y-91314340D01*
X137239107Y-91514548D01*
X137239104Y-91514554D01*
X137181930Y-91727929D01*
X137181929Y-91727937D01*
X137162677Y-91947997D01*
X137162677Y-91948002D01*
X137181929Y-92168062D01*
X137181930Y-92168070D01*
X137239104Y-92381445D01*
X137239105Y-92381447D01*
X137239106Y-92381450D01*
X137325257Y-92566203D01*
X137332466Y-92581662D01*
X137332468Y-92581666D01*
X137459170Y-92762615D01*
X137459175Y-92762621D01*
X137615378Y-92918824D01*
X137615384Y-92918829D01*
X137796333Y-93045531D01*
X137796335Y-93045532D01*
X137796338Y-93045534D01*
X137915748Y-93101215D01*
X137925189Y-93105618D01*
X137977628Y-93151790D01*
X137996780Y-93218984D01*
X137976564Y-93285865D01*
X137925189Y-93330382D01*
X137796340Y-93390465D01*
X137796338Y-93390466D01*
X137615377Y-93517175D01*
X137459175Y-93673377D01*
X137332466Y-93854338D01*
X137332465Y-93854340D01*
X137239107Y-94054548D01*
X137239104Y-94054554D01*
X137181930Y-94267929D01*
X137181929Y-94267937D01*
X137162677Y-94487997D01*
X137162677Y-94488002D01*
X137181929Y-94708062D01*
X137181930Y-94708070D01*
X137239104Y-94921445D01*
X137239105Y-94921447D01*
X137239106Y-94921450D01*
X137325257Y-95106203D01*
X137332466Y-95121662D01*
X137332468Y-95121666D01*
X137459170Y-95302615D01*
X137459175Y-95302621D01*
X137615378Y-95458824D01*
X137615384Y-95458829D01*
X137796333Y-95585531D01*
X137796335Y-95585532D01*
X137796338Y-95585534D01*
X137915748Y-95641215D01*
X137925189Y-95645618D01*
X137977628Y-95691790D01*
X137996780Y-95758984D01*
X137976564Y-95825865D01*
X137925189Y-95870382D01*
X137796340Y-95930465D01*
X137796338Y-95930466D01*
X137615377Y-96057175D01*
X137459175Y-96213377D01*
X137332466Y-96394338D01*
X137332465Y-96394340D01*
X137239107Y-96594548D01*
X137239104Y-96594554D01*
X137181930Y-96807929D01*
X137181929Y-96807937D01*
X137162677Y-97027997D01*
X137162677Y-97028002D01*
X124197323Y-97028002D01*
X124197323Y-97028000D01*
X124178070Y-96807932D01*
X124120894Y-96594550D01*
X124027534Y-96394339D01*
X123900826Y-96213380D01*
X123744620Y-96057174D01*
X123744616Y-96057171D01*
X123744615Y-96057170D01*
X123563666Y-95930468D01*
X123563658Y-95930464D01*
X123434811Y-95870382D01*
X123382371Y-95824210D01*
X123363219Y-95757017D01*
X123383435Y-95690135D01*
X123434811Y-95645618D01*
X123440802Y-95642824D01*
X123563662Y-95585534D01*
X123744620Y-95458826D01*
X123900826Y-95302620D01*
X124027534Y-95121662D01*
X124120894Y-94921450D01*
X124178070Y-94708068D01*
X124197323Y-94488000D01*
X124178070Y-94267932D01*
X124120894Y-94054550D01*
X124027534Y-93854339D01*
X123932341Y-93718388D01*
X123900827Y-93673381D01*
X123826446Y-93599000D01*
X123744620Y-93517174D01*
X123744616Y-93517171D01*
X123744615Y-93517170D01*
X123563666Y-93390468D01*
X123563658Y-93390464D01*
X123434811Y-93330382D01*
X123382371Y-93284210D01*
X123363219Y-93217017D01*
X123383435Y-93150135D01*
X123434811Y-93105618D01*
X123440802Y-93102824D01*
X123563662Y-93045534D01*
X123744620Y-92918826D01*
X123900826Y-92762620D01*
X124027534Y-92581662D01*
X124120894Y-92381450D01*
X124178070Y-92168068D01*
X124197323Y-91948000D01*
X124178070Y-91727932D01*
X124120894Y-91514550D01*
X124027534Y-91314339D01*
X123900826Y-91133380D01*
X123744620Y-90977174D01*
X123744616Y-90977171D01*
X123744615Y-90977170D01*
X123563666Y-90850468D01*
X123563658Y-90850464D01*
X123434811Y-90790382D01*
X123382371Y-90744210D01*
X123363219Y-90677017D01*
X123383435Y-90610135D01*
X123434811Y-90565618D01*
X123440802Y-90562824D01*
X123563662Y-90505534D01*
X123744620Y-90378826D01*
X123900826Y-90222620D01*
X124027534Y-90041662D01*
X124120894Y-89841450D01*
X124178070Y-89628068D01*
X124197323Y-89408000D01*
X124178070Y-89187932D01*
X124120894Y-88974550D01*
X124027534Y-88774339D01*
X123900826Y-88593380D01*
X123744620Y-88437174D01*
X123744616Y-88437171D01*
X123744615Y-88437170D01*
X123563666Y-88310468D01*
X123563658Y-88310464D01*
X123434219Y-88250106D01*
X123381779Y-88203934D01*
X123362627Y-88136741D01*
X123382843Y-88069859D01*
X123434219Y-88025342D01*
X123563408Y-87965100D01*
X123563420Y-87965093D01*
X123628186Y-87919742D01*
X123628187Y-87919740D01*
X122957448Y-87249000D01*
X122961569Y-87249000D01*
X123055421Y-87233339D01*
X123167251Y-87172820D01*
X123253371Y-87079269D01*
X123304448Y-86962823D01*
X123310105Y-86894552D01*
X123981740Y-87566187D01*
X123981742Y-87566186D01*
X124027093Y-87501420D01*
X124027100Y-87501408D01*
X124120419Y-87301284D01*
X124120424Y-87301270D01*
X124177573Y-87087986D01*
X124177575Y-87087976D01*
X124196821Y-86868000D01*
X124196821Y-86867999D01*
X124177575Y-86648023D01*
X124177573Y-86648013D01*
X124120424Y-86434729D01*
X124120420Y-86434720D01*
X124027098Y-86234590D01*
X123981740Y-86169811D01*
X123314903Y-86836648D01*
X123314949Y-86836102D01*
X123283734Y-86712838D01*
X123214187Y-86606388D01*
X123113843Y-86528287D01*
X122993578Y-86487000D01*
X122957447Y-86487000D01*
X123628187Y-85816258D01*
X123563409Y-85770900D01*
X123563407Y-85770899D01*
X123434219Y-85710658D01*
X123381779Y-85664486D01*
X123362627Y-85597293D01*
X123382843Y-85530411D01*
X123434219Y-85485894D01*
X123434811Y-85485618D01*
X123563662Y-85425534D01*
X123744620Y-85298826D01*
X123900826Y-85142620D01*
X124027534Y-84961662D01*
X124120894Y-84761450D01*
X124178070Y-84548068D01*
X124193595Y-84370611D01*
X124197323Y-84328002D01*
X124197323Y-84327997D01*
X124184249Y-84178560D01*
X124178070Y-84107932D01*
X124120894Y-83894550D01*
X124027534Y-83694339D01*
X123900826Y-83513380D01*
X123744620Y-83357174D01*
X123744616Y-83357171D01*
X123744615Y-83357170D01*
X123563666Y-83230468D01*
X123563657Y-83230464D01*
X123511592Y-83206185D01*
X123459154Y-83160013D01*
X123440003Y-83092819D01*
X123460219Y-83025938D01*
X123476313Y-83006128D01*
X123666894Y-82815547D01*
X123683445Y-82801660D01*
X123744620Y-82758826D01*
X123900826Y-82602620D01*
X124027534Y-82421662D01*
X124120894Y-82221450D01*
X124178070Y-82008068D01*
X124197323Y-81788000D01*
X124178070Y-81567932D01*
X124120894Y-81354550D01*
X124027534Y-81154339D01*
X123943656Y-81034548D01*
X123900827Y-80973381D01*
X123900823Y-80973377D01*
X123744620Y-80817174D01*
X123744616Y-80817171D01*
X123744615Y-80817170D01*
X123563666Y-80690468D01*
X123563662Y-80690466D01*
X123563660Y-80690465D01*
X123363450Y-80597106D01*
X123363447Y-80597105D01*
X123363445Y-80597104D01*
X123150070Y-80539930D01*
X123150062Y-80539929D01*
X122930002Y-80520677D01*
X122929998Y-80520677D01*
X122709937Y-80539929D01*
X122709929Y-80539930D01*
X122496554Y-80597104D01*
X122496548Y-80597107D01*
X122296340Y-80690465D01*
X122296338Y-80690466D01*
X122115381Y-80817172D01*
X121959172Y-80973382D01*
X121916343Y-81034548D01*
X121902450Y-81051104D01*
X118803793Y-84149762D01*
X118798607Y-84154397D01*
X118768314Y-84178556D01*
X118768306Y-84178565D01*
X118723448Y-84229908D01*
X118720603Y-84232952D01*
X118712164Y-84241391D01*
X118712159Y-84241397D01*
X118685221Y-84273664D01*
X118620545Y-84347691D01*
X118620544Y-84347692D01*
X118618314Y-84351425D01*
X118607073Y-84367269D01*
X118604283Y-84370611D01*
X118555771Y-84456106D01*
X118505365Y-84540472D01*
X118505363Y-84540477D01*
X118503835Y-84544548D01*
X118495595Y-84562158D01*
X118493457Y-84565924D01*
X118493450Y-84565940D01*
X118460986Y-84658718D01*
X118426450Y-84750735D01*
X118425672Y-84755022D01*
X118420711Y-84773814D01*
X118419279Y-84777906D01*
X118419277Y-84777914D01*
X118403904Y-84874973D01*
X118386350Y-84971704D01*
X118386350Y-84976051D01*
X118384823Y-84995451D01*
X118384144Y-84999731D01*
X118386350Y-85097981D01*
X118386350Y-88667856D01*
X118366665Y-88734895D01*
X118313861Y-88780650D01*
X118244703Y-88790594D01*
X118181147Y-88761569D01*
X118160775Y-88738979D01*
X118058827Y-88593381D01*
X118058823Y-88593377D01*
X117902620Y-88437174D01*
X117902616Y-88437171D01*
X117902615Y-88437170D01*
X117721666Y-88310468D01*
X117721662Y-88310466D01*
X117721658Y-88310464D01*
X117521450Y-88217106D01*
X117521447Y-88217105D01*
X117521445Y-88217104D01*
X117308070Y-88159930D01*
X117308062Y-88159929D01*
X117088002Y-88140677D01*
X117087998Y-88140677D01*
X116867937Y-88159929D01*
X116867929Y-88159930D01*
X116654554Y-88217104D01*
X116654548Y-88217107D01*
X116454340Y-88310465D01*
X116454338Y-88310466D01*
X116273377Y-88437175D01*
X116117175Y-88593377D01*
X115990466Y-88774338D01*
X115990465Y-88774340D01*
X115897107Y-88974548D01*
X115897104Y-88974554D01*
X115839930Y-89187929D01*
X115839929Y-89187937D01*
X115820677Y-89407997D01*
X115820677Y-89408002D01*
X115839929Y-89628062D01*
X115839930Y-89628070D01*
X115897104Y-89841445D01*
X115897105Y-89841447D01*
X115897106Y-89841450D01*
X115983257Y-90026203D01*
X115990466Y-90041662D01*
X115990468Y-90041666D01*
X116117170Y-90222615D01*
X116117175Y-90222621D01*
X116273378Y-90378824D01*
X116273384Y-90378829D01*
X116454333Y-90505531D01*
X116454335Y-90505532D01*
X116454338Y-90505534D01*
X116573748Y-90561215D01*
X116583189Y-90565618D01*
X116635628Y-90611790D01*
X116654780Y-90678984D01*
X116634564Y-90745865D01*
X116583189Y-90790382D01*
X116454340Y-90850465D01*
X116454338Y-90850466D01*
X116273377Y-90977175D01*
X116117175Y-91133377D01*
X115990466Y-91314338D01*
X115990465Y-91314340D01*
X115897107Y-91514548D01*
X115897104Y-91514554D01*
X115839930Y-91727929D01*
X115839929Y-91727937D01*
X115820677Y-91947997D01*
X115820677Y-91948002D01*
X115839929Y-92168062D01*
X115839930Y-92168070D01*
X115897104Y-92381445D01*
X115897105Y-92381447D01*
X115897106Y-92381450D01*
X115983257Y-92566203D01*
X115990466Y-92581662D01*
X115990468Y-92581666D01*
X116117170Y-92762615D01*
X116117175Y-92762621D01*
X116273378Y-92918824D01*
X116273384Y-92918829D01*
X116454333Y-93045531D01*
X116454335Y-93045532D01*
X116454338Y-93045534D01*
X116573748Y-93101215D01*
X116583189Y-93105618D01*
X116635628Y-93151790D01*
X116654780Y-93218984D01*
X116634564Y-93285865D01*
X116583189Y-93330382D01*
X116454340Y-93390465D01*
X116454338Y-93390466D01*
X116273377Y-93517175D01*
X116117175Y-93673377D01*
X115990466Y-93854338D01*
X115990465Y-93854340D01*
X115897107Y-94054548D01*
X115897104Y-94054554D01*
X115839930Y-94267929D01*
X115839929Y-94267937D01*
X115820677Y-94487997D01*
X115820677Y-94488002D01*
X115839929Y-94708062D01*
X115839930Y-94708070D01*
X115897104Y-94921445D01*
X115897105Y-94921447D01*
X115897106Y-94921450D01*
X115983257Y-95106203D01*
X115990466Y-95121662D01*
X115990468Y-95121666D01*
X116117170Y-95302615D01*
X116117175Y-95302621D01*
X116273378Y-95458824D01*
X116273384Y-95458829D01*
X116454333Y-95585531D01*
X116454335Y-95585532D01*
X116454338Y-95585534D01*
X116573748Y-95641215D01*
X116583189Y-95645618D01*
X116635628Y-95691790D01*
X116654780Y-95758984D01*
X116634564Y-95825865D01*
X116583189Y-95870382D01*
X116454340Y-95930465D01*
X116454338Y-95930466D01*
X116273377Y-96057175D01*
X116117175Y-96213377D01*
X115990466Y-96394338D01*
X115990465Y-96394340D01*
X115897107Y-96594548D01*
X115897104Y-96594554D01*
X115839930Y-96807929D01*
X115839929Y-96807937D01*
X115820677Y-97027997D01*
X115820677Y-97028002D01*
X115316500Y-97028002D01*
X115316500Y-63377187D01*
X118645500Y-63377187D01*
X118665794Y-63511823D01*
X118684604Y-63636615D01*
X118684605Y-63636617D01*
X118684606Y-63636623D01*
X118761938Y-63887326D01*
X118875767Y-64123696D01*
X118875768Y-64123697D01*
X118875770Y-64123700D01*
X118875772Y-64123704D01*
X119023567Y-64340479D01*
X119202014Y-64532801D01*
X119202018Y-64532804D01*
X119202019Y-64532805D01*
X119407143Y-64696386D01*
X119634357Y-64827568D01*
X119878584Y-64923420D01*
X120134370Y-64981802D01*
X120134376Y-64981802D01*
X120134379Y-64981803D01*
X120330500Y-64996500D01*
X120330506Y-64996500D01*
X120461500Y-64996500D01*
X120657620Y-64981803D01*
X120657622Y-64981802D01*
X120657630Y-64981802D01*
X120913416Y-64923420D01*
X121157643Y-64827568D01*
X121384857Y-64696386D01*
X121589981Y-64532805D01*
X121768433Y-64340479D01*
X121916228Y-64123704D01*
X122030063Y-63887323D01*
X122107396Y-63636615D01*
X122146499Y-63377187D01*
X182653500Y-63377187D01*
X182673794Y-63511823D01*
X182692604Y-63636615D01*
X182692605Y-63636617D01*
X182692606Y-63636623D01*
X182769938Y-63887326D01*
X182883767Y-64123696D01*
X182883768Y-64123697D01*
X182883770Y-64123700D01*
X182883772Y-64123704D01*
X183031567Y-64340479D01*
X183210014Y-64532801D01*
X183210018Y-64532804D01*
X183210019Y-64532805D01*
X183415143Y-64696386D01*
X183642357Y-64827568D01*
X183886584Y-64923420D01*
X184142370Y-64981802D01*
X184142376Y-64981802D01*
X184142379Y-64981803D01*
X184338500Y-64996500D01*
X184338506Y-64996500D01*
X184469500Y-64996500D01*
X184665620Y-64981803D01*
X184665622Y-64981802D01*
X184665630Y-64981802D01*
X184921416Y-64923420D01*
X185165643Y-64827568D01*
X185392857Y-64696386D01*
X185597981Y-64532805D01*
X185776433Y-64340479D01*
X185924228Y-64123704D01*
X186038063Y-63887323D01*
X186115396Y-63636615D01*
X186154500Y-63377182D01*
X186154500Y-63114818D01*
X186115396Y-62855385D01*
X186038063Y-62604677D01*
X186026121Y-62579880D01*
X185924232Y-62368303D01*
X185924231Y-62368302D01*
X185924230Y-62368301D01*
X185924228Y-62368296D01*
X185776433Y-62151521D01*
X185766441Y-62140753D01*
X185597985Y-61959198D01*
X185558533Y-61927736D01*
X185392857Y-61795614D01*
X185165643Y-61664432D01*
X184921416Y-61568580D01*
X184921411Y-61568578D01*
X184921402Y-61568576D01*
X184703818Y-61518914D01*
X184665630Y-61510198D01*
X184665629Y-61510197D01*
X184665625Y-61510197D01*
X184665620Y-61510196D01*
X184469500Y-61495500D01*
X184469494Y-61495500D01*
X184338506Y-61495500D01*
X184338500Y-61495500D01*
X184142379Y-61510196D01*
X184142374Y-61510197D01*
X183886597Y-61568576D01*
X183886578Y-61568582D01*
X183642356Y-61664432D01*
X183415143Y-61795614D01*
X183210014Y-61959198D01*
X183031567Y-62151520D01*
X182883768Y-62368302D01*
X182883767Y-62368303D01*
X182769938Y-62604673D01*
X182692606Y-62855376D01*
X182692605Y-62855381D01*
X182692604Y-62855385D01*
X182677853Y-62953247D01*
X182653500Y-63114812D01*
X182653500Y-63377187D01*
X122146499Y-63377187D01*
X122146500Y-63377182D01*
X122146500Y-63114818D01*
X122107396Y-62855385D01*
X122030063Y-62604677D01*
X122018121Y-62579880D01*
X121916232Y-62368303D01*
X121916231Y-62368302D01*
X121916230Y-62368301D01*
X121916228Y-62368296D01*
X121768433Y-62151521D01*
X121758441Y-62140753D01*
X121589985Y-61959198D01*
X121550533Y-61927736D01*
X121384857Y-61795614D01*
X121157643Y-61664432D01*
X120913416Y-61568580D01*
X120913411Y-61568578D01*
X120913402Y-61568576D01*
X120695818Y-61518914D01*
X120657630Y-61510198D01*
X120657629Y-61510197D01*
X120657625Y-61510197D01*
X120657620Y-61510196D01*
X120461500Y-61495500D01*
X120461494Y-61495500D01*
X120330506Y-61495500D01*
X120330500Y-61495500D01*
X120134379Y-61510196D01*
X120134374Y-61510197D01*
X119878597Y-61568576D01*
X119878578Y-61568582D01*
X119634356Y-61664432D01*
X119407143Y-61795614D01*
X119202014Y-61959198D01*
X119023567Y-62151520D01*
X118875768Y-62368302D01*
X118875767Y-62368303D01*
X118761938Y-62604673D01*
X118684606Y-62855376D01*
X118684605Y-62855381D01*
X118684604Y-62855385D01*
X118669853Y-62953247D01*
X118645500Y-63114812D01*
X118645500Y-63377187D01*
X115316500Y-63377187D01*
X115316500Y-58544500D01*
X115336185Y-58477461D01*
X115388989Y-58431706D01*
X115440500Y-58420500D01*
X189867500Y-58420500D01*
X189934539Y-58440185D01*
G37*
%TD.AperFunction*%
%TD*%
M02*
