%TF.GenerationSoftware,KiCad,Pcbnew,7.0.8*%
%TF.CreationDate,2024-03-14T17:11:55+01:00*%
%TF.ProjectId,pendulo_invert,70656e64-756c-46f5-9f69-6e766572742e,rev?*%
%TF.SameCoordinates,Original*%
%TF.FileFunction,Copper,L1,Top*%
%TF.FilePolarity,Positive*%
%FSLAX46Y46*%
G04 Gerber Fmt 4.6, Leading zero omitted, Abs format (unit mm)*
G04 Created by KiCad (PCBNEW 7.0.8) date 2024-03-14 17:11:55*
%MOMM*%
%LPD*%
G01*
G04 APERTURE LIST*
%TA.AperFunction,ComponentPad*%
%ADD10C,1.524000*%
%TD*%
%TA.AperFunction,ComponentPad*%
%ADD11R,1.530000X1.530000*%
%TD*%
%TA.AperFunction,ComponentPad*%
%ADD12C,1.530000*%
%TD*%
%TA.AperFunction,SMDPad,CuDef*%
%ADD13R,1.600000X3.500000*%
%TD*%
%TA.AperFunction,SMDPad,CuDef*%
%ADD14R,12.200000X9.750000*%
%TD*%
%TA.AperFunction,Conductor*%
%ADD15C,0.250000*%
%TD*%
%TA.AperFunction,Conductor*%
%ADD16C,1.494300*%
%TD*%
G04 APERTURE END LIST*
D10*
%TO.P,U1,1,PWMA*%
%TO.N,Net-(U1-PWMA)*%
X138430000Y-81788000D03*
%TO.P,U1,2,AIN2*%
%TO.N,Net-(U1-AIN2)*%
X138430000Y-84328000D03*
%TO.P,U1,3,AIN1*%
%TO.N,Net-(U1-AIN1)*%
X138430000Y-86868000D03*
%TO.P,U1,4,STBY*%
%TO.N,Net-(U1-STBY)*%
X138430000Y-89408000D03*
%TO.P,U1,5,BIN1*%
%TO.N,Net-(U1-BIN1)*%
X138430000Y-91948000D03*
%TO.P,U1,6,BIN2*%
%TO.N,Net-(U1-BIN2)*%
X138430000Y-94488000D03*
%TO.P,U1,7,PWMB*%
%TO.N,Net-(U1-PWMB)*%
X138430000Y-97028000D03*
%TO.P,U1,8,GND*%
%TO.N,GND*%
X138430000Y-99568000D03*
%TO.P,U1,9,VM*%
%TO.N,Net-(J1-Pin_1)*%
X122930000Y-81788000D03*
%TO.P,U1,10,VCC*%
%TO.N,Net-(U1-VCC)*%
X122930000Y-84328000D03*
%TO.P,U1,11,GND*%
%TO.N,GND*%
X122930000Y-86868000D03*
%TO.P,U1,12,AO1*%
%TO.N,Net-(J2-Pin_1)*%
X122930000Y-89408000D03*
%TO.P,U1,13,AO2*%
%TO.N,Net-(J3-Pin_1)*%
X122930000Y-91948000D03*
%TO.P,U1,14,B02*%
%TO.N,Net-(J4-Pin_1)*%
X122930000Y-94488000D03*
%TO.P,U1,15,BO1*%
%TO.N,Net-(J5-Pin_1)*%
X122930000Y-97028000D03*
%TO.P,U1,16,GND*%
%TO.N,GND*%
X122930000Y-99568000D03*
%TD*%
%TO.P,J3,1,Pin_1*%
%TO.N,Net-(J3-Pin_1)*%
X117088000Y-91948000D03*
%TD*%
D11*
%TO.P,U2,1,3V3*%
%TO.N,Net-(U1-VCC)*%
X149860000Y-73660000D03*
D12*
%TO.P,U2,2,EN*%
%TO.N,unconnected-(U2-EN-Pad2)*%
X149860000Y-76200000D03*
%TO.P,U2,3,SENSOR_VP*%
%TO.N,unconnected-(U2-SENSOR_VP-Pad3)*%
X149860000Y-78740000D03*
%TO.P,U2,4,SENSOR_VN*%
%TO.N,unconnected-(U2-SENSOR_VN-Pad4)*%
X149860000Y-81280000D03*
%TO.P,U2,5,IO34*%
%TO.N,unconnected-(U2-IO34-Pad5)*%
X149860000Y-83820000D03*
%TO.P,U2,6,IO35*%
%TO.N,unconnected-(U2-IO35-Pad6)*%
X149860000Y-86360000D03*
%TO.P,U2,7,IO32*%
%TO.N,Net-(U1-PWMA)*%
X149860000Y-88900000D03*
%TO.P,U2,8,IO33*%
%TO.N,Net-(U1-AIN2)*%
X149860000Y-91440000D03*
%TO.P,U2,9,IO25*%
%TO.N,Net-(U1-AIN1)*%
X149860000Y-93980000D03*
%TO.P,U2,10,IO26*%
%TO.N,Net-(U1-STBY)*%
X149860000Y-96520000D03*
%TO.P,U2,11,IO27*%
%TO.N,Net-(U1-BIN1)*%
X149860000Y-99060000D03*
%TO.P,U2,12,IO14*%
%TO.N,Net-(U1-BIN2)*%
X149860000Y-101600000D03*
%TO.P,U2,13,IO12*%
%TO.N,Net-(U1-PWMB)*%
X149860000Y-104140000D03*
%TO.P,U2,14,GND1*%
%TO.N,unconnected-(U2-GND1-Pad14)*%
X149860000Y-106680000D03*
%TO.P,U2,15,IO13*%
%TO.N,unconnected-(U2-IO13-Pad15)*%
X149860000Y-109220000D03*
%TO.P,U2,16,SD2*%
%TO.N,unconnected-(U2-SD2-Pad16)*%
X149860000Y-111760000D03*
%TO.P,U2,17,SD3*%
%TO.N,unconnected-(U2-SD3-Pad17)*%
X149860000Y-114300000D03*
%TO.P,U2,18,CMD*%
%TO.N,unconnected-(U2-CMD-Pad18)*%
X149860000Y-116840000D03*
%TO.P,U2,19,EXT_5V*%
%TO.N,Net-(U2-EXT_5V)*%
X149860000Y-119380000D03*
%TO.P,U2,20,CLK*%
%TO.N,unconnected-(U2-CLK-Pad20)*%
X175260000Y-119380000D03*
%TO.P,U2,21,SD0*%
%TO.N,unconnected-(U2-SD0-Pad21)*%
X175260000Y-116840000D03*
%TO.P,U2,22,SD1*%
%TO.N,unconnected-(U2-SD1-Pad22)*%
X175260000Y-114300000D03*
%TO.P,U2,23,IO15*%
%TO.N,unconnected-(U2-IO15-Pad23)*%
X175260000Y-111760000D03*
%TO.P,U2,24,IO2*%
%TO.N,Net-(U2-IO2)*%
X175260000Y-109220000D03*
%TO.P,U2,25,IO0*%
%TO.N,Net-(U2-IO0)*%
X175260000Y-106680000D03*
%TO.P,U2,26,IO4*%
%TO.N,Net-(U2-IO4)*%
X175260000Y-104140000D03*
%TO.P,U2,27,IO16*%
%TO.N,unconnected-(U2-IO16-Pad27)*%
X175260000Y-101600000D03*
%TO.P,U2,28,IO17*%
%TO.N,unconnected-(U2-IO17-Pad28)*%
X175260000Y-99060000D03*
%TO.P,U2,29,IO5*%
%TO.N,unconnected-(U2-IO5-Pad29)*%
X175260000Y-96520000D03*
%TO.P,U2,30,IO18*%
%TO.N,unconnected-(U2-IO18-Pad30)*%
X175260000Y-93980000D03*
%TO.P,U2,31,IO19*%
%TO.N,unconnected-(U2-IO19-Pad31)*%
X175260000Y-91440000D03*
%TO.P,U2,32,GND2*%
%TO.N,unconnected-(U2-GND2-Pad32)*%
X175260000Y-88900000D03*
%TO.P,U2,33,IO21*%
%TO.N,unconnected-(U2-IO21-Pad33)*%
X175260000Y-86360000D03*
%TO.P,U2,34,RXD0*%
%TO.N,unconnected-(U2-RXD0-Pad34)*%
X175260000Y-83820000D03*
%TO.P,U2,35,TXD0*%
%TO.N,unconnected-(U2-TXD0-Pad35)*%
X175260000Y-81280000D03*
%TO.P,U2,36,IO22*%
%TO.N,unconnected-(U2-IO22-Pad36)*%
X175260000Y-78740000D03*
%TO.P,U2,37,IO23*%
%TO.N,unconnected-(U2-IO23-Pad37)*%
X175260000Y-76200000D03*
%TO.P,U2,38,GND3*%
%TO.N,GND*%
X175260000Y-73660000D03*
%TD*%
D10*
%TO.P,J6,1,Pin_1*%
%TO.N,GND*%
X124206000Y-104140000D03*
%TD*%
%TO.P,J4,1,Pin_1*%
%TO.N,Net-(J4-Pin_1)*%
X117088000Y-94488000D03*
%TD*%
%TO.P,J2,1,Pin_1*%
%TO.N,Net-(J2-Pin_1)*%
X117088000Y-89408000D03*
%TD*%
%TO.P,J5,1,Pin_1*%
%TO.N,Net-(J5-Pin_1)*%
X117088000Y-97028000D03*
%TD*%
%TO.P,J1,1,Pin_1*%
%TO.N,Net-(J1-Pin_1)*%
X124460000Y-109220000D03*
%TD*%
D13*
%TO.P,U4,1,OUT*%
%TO.N,Net-(U2-EXT_5V)*%
X139700000Y-109105000D03*
%TO.P,U4,3,IN*%
%TO.N,Net-(J1-Pin_1)*%
X134620000Y-109105000D03*
D14*
%TO.P,U4,4,GND*%
%TO.N,GND*%
X137160000Y-119380000D03*
%TD*%
D10*
%TO.P,U5,1,VCC*%
%TO.N,Net-(U1-VCC)*%
X185420000Y-91440000D03*
%TO.P,U5,2,GND*%
%TO.N,GND*%
X185420000Y-93980000D03*
%TO.P,U5,3,SCLK*%
%TO.N,Net-(U2-IO4)*%
X185420000Y-96520000D03*
%TO.P,U5,4,SDA*%
%TO.N,Net-(U2-IO0)*%
X185420000Y-99060000D03*
%TO.P,U5,5,XDA*%
%TO.N,unconnected-(U5-XDA-Pad5)*%
X185420000Y-101600000D03*
%TO.P,U5,6,XCLK*%
%TO.N,unconnected-(U5-XCLK-Pad6)*%
X185420000Y-104140000D03*
%TO.P,U5,7,ADO*%
%TO.N,unconnected-(U5-ADO-Pad7)*%
X185420000Y-106680000D03*
%TO.P,U5,8,INT*%
%TO.N,Net-(U2-IO2)*%
X185420000Y-109220000D03*
%TD*%
D15*
%TO.N,Net-(J2-Pin_1)*%
X117294000Y-89408000D02*
X117088000Y-89202000D01*
D16*
X117088000Y-89408000D02*
X122930000Y-89408000D01*
%TO.N,Net-(J3-Pin_1)*%
X117088000Y-91948000D02*
X122930000Y-91948000D01*
D15*
X117310000Y-91948000D02*
X117088000Y-91726000D01*
D16*
%TO.N,Net-(J5-Pin_1)*%
X117088000Y-97028000D02*
X122930000Y-97028000D01*
D15*
%TO.N,Net-(J4-Pin_1)*%
X117326000Y-94488000D02*
X117088000Y-94250000D01*
D16*
X117088000Y-94488000D02*
X122930000Y-94488000D01*
D15*
%TO.N,Net-(U2-EXT_5V)*%
X147320000Y-119380000D02*
X149860000Y-119380000D01*
X144780000Y-114185000D02*
X144780000Y-116840000D01*
X144780000Y-116840000D02*
X147320000Y-119380000D01*
X139700000Y-109105000D02*
X144780000Y-114185000D01*
%TO.N,Net-(U2-IO2)*%
X175260000Y-109220000D02*
X185420000Y-109220000D01*
%TO.N,Net-(U2-IO0)*%
X182880000Y-99060000D02*
X175260000Y-106680000D01*
X185420000Y-99060000D02*
X182880000Y-99060000D01*
%TO.N,Net-(U2-IO4)*%
X185420000Y-96520000D02*
X182880000Y-96520000D01*
X182880000Y-96520000D02*
X175260000Y-104140000D01*
D16*
%TO.N,Net-(J1-Pin_1)*%
X124460000Y-109220000D02*
X134505000Y-109220000D01*
X134505000Y-109220000D02*
X134620000Y-109105000D01*
D15*
X124575000Y-109105000D02*
X124460000Y-109220000D01*
%TO.N,Net-(U1-VCC)*%
X122930000Y-84328000D02*
X119634000Y-84328000D01*
X118364000Y-79502000D02*
X124206000Y-73660000D01*
X149860000Y-67310000D02*
X153162000Y-64008000D01*
X171958000Y-64008000D02*
X185420000Y-77470000D01*
X153162000Y-64008000D02*
X171958000Y-64008000D01*
X118364000Y-83058000D02*
X118364000Y-79502000D01*
X124206000Y-73660000D02*
X131064000Y-73660000D01*
X131064000Y-73660000D02*
X149860000Y-73660000D01*
X185420000Y-77470000D02*
X185420000Y-91440000D01*
X149860000Y-73660000D02*
X149860000Y-67310000D01*
X119634000Y-84328000D02*
X118364000Y-83058000D01*
%TO.N,Net-(U1-PWMB)*%
X142748000Y-97028000D02*
X149860000Y-104140000D01*
X138430000Y-97028000D02*
X142748000Y-97028000D01*
X149860000Y-103632000D02*
X149860000Y-104140000D01*
%TO.N,Net-(U1-BIN2)*%
X138430000Y-94488000D02*
X142748000Y-94488000D01*
X149860000Y-101092000D02*
X149860000Y-101600000D01*
X142748000Y-94488000D02*
X149860000Y-101600000D01*
%TO.N,Net-(U1-BIN1)*%
X138430000Y-91948000D02*
X142748000Y-91948000D01*
X142748000Y-91948000D02*
X149860000Y-99060000D01*
X149860000Y-98552000D02*
X149860000Y-99060000D01*
%TO.N,Net-(U1-STBY)*%
X149860000Y-96012000D02*
X149860000Y-96520000D01*
X142748000Y-89408000D02*
X149860000Y-96520000D01*
X138430000Y-89408000D02*
X142748000Y-89408000D01*
%TO.N,Net-(U1-AIN1)*%
X138430000Y-86868000D02*
X142748000Y-86868000D01*
X142748000Y-86868000D02*
X149860000Y-93980000D01*
X149860000Y-93472000D02*
X149860000Y-93980000D01*
%TO.N,Net-(U1-AIN2)*%
X149860000Y-90932000D02*
X149860000Y-91440000D01*
X142748000Y-84328000D02*
X149860000Y-91440000D01*
X138430000Y-84328000D02*
X142748000Y-84328000D01*
%TO.N,Net-(U1-PWMA)*%
X142748000Y-81788000D02*
X149860000Y-88900000D01*
X138430000Y-81788000D02*
X142748000Y-81788000D01*
X149860000Y-88392000D02*
X149860000Y-88900000D01*
%TD*%
%TA.AperFunction,Conductor*%
%TO.N,GND*%
G36*
X189934539Y-58440185D02*
G01*
X189980294Y-58492989D01*
X189991500Y-58544500D01*
X189991500Y-126875500D01*
X189971815Y-126942539D01*
X189919011Y-126988294D01*
X189867500Y-126999500D01*
X115440500Y-126999500D01*
X115373461Y-126979815D01*
X115327706Y-126927011D01*
X115316500Y-126875500D01*
X115316500Y-121543187D01*
X118645500Y-121543187D01*
X118665794Y-121677823D01*
X118684604Y-121802615D01*
X118684605Y-121802617D01*
X118684606Y-121802623D01*
X118761938Y-122053326D01*
X118875767Y-122289696D01*
X118875768Y-122289697D01*
X118875770Y-122289700D01*
X118875772Y-122289704D01*
X119023567Y-122506479D01*
X119202014Y-122698801D01*
X119202018Y-122698804D01*
X119202019Y-122698805D01*
X119407143Y-122862386D01*
X119634357Y-122993568D01*
X119878584Y-123089420D01*
X120134370Y-123147802D01*
X120134376Y-123147802D01*
X120134379Y-123147803D01*
X120330500Y-123162500D01*
X120330506Y-123162500D01*
X120461500Y-123162500D01*
X120657620Y-123147803D01*
X120657622Y-123147802D01*
X120657630Y-123147802D01*
X120913416Y-123089420D01*
X121157643Y-122993568D01*
X121384857Y-122862386D01*
X121589981Y-122698805D01*
X121768433Y-122506479D01*
X121916228Y-122289704D01*
X122030063Y-122053323D01*
X122107396Y-121802615D01*
X122146500Y-121543182D01*
X122146500Y-121280818D01*
X122107396Y-121021385D01*
X122030063Y-120770677D01*
X121935216Y-120573724D01*
X121916232Y-120534303D01*
X121916231Y-120534302D01*
X121916230Y-120534301D01*
X121916228Y-120534296D01*
X121768433Y-120317521D01*
X121758441Y-120306753D01*
X121589985Y-120125198D01*
X121550533Y-120093736D01*
X121384857Y-119961614D01*
X121157643Y-119830432D01*
X120913416Y-119734580D01*
X120913411Y-119734578D01*
X120913402Y-119734576D01*
X120695818Y-119684914D01*
X120657630Y-119676198D01*
X120657629Y-119676197D01*
X120657625Y-119676197D01*
X120657620Y-119676196D01*
X120461500Y-119661500D01*
X120461494Y-119661500D01*
X120330506Y-119661500D01*
X120330500Y-119661500D01*
X120134379Y-119676196D01*
X120134374Y-119676197D01*
X119878597Y-119734576D01*
X119878578Y-119734582D01*
X119634356Y-119830432D01*
X119407143Y-119961614D01*
X119202014Y-120125198D01*
X119023567Y-120317520D01*
X118875768Y-120534302D01*
X118875767Y-120534303D01*
X118761938Y-120770673D01*
X118684606Y-121021376D01*
X118684605Y-121021381D01*
X118684604Y-121021385D01*
X118669853Y-121119247D01*
X118645500Y-121280812D01*
X118645500Y-121543187D01*
X115316500Y-121543187D01*
X115316500Y-119630000D01*
X130560000Y-119630000D01*
X130560000Y-124302844D01*
X130566401Y-124362372D01*
X130566403Y-124362379D01*
X130616645Y-124497086D01*
X130616649Y-124497093D01*
X130702809Y-124612187D01*
X130702812Y-124612190D01*
X130817906Y-124698350D01*
X130817913Y-124698354D01*
X130952620Y-124748596D01*
X130952627Y-124748598D01*
X131012155Y-124754999D01*
X131012172Y-124755000D01*
X136910000Y-124755000D01*
X136910000Y-119630000D01*
X137410000Y-119630000D01*
X137410000Y-124755000D01*
X143307828Y-124755000D01*
X143307844Y-124754999D01*
X143367372Y-124748598D01*
X143367379Y-124748596D01*
X143502086Y-124698354D01*
X143502093Y-124698350D01*
X143617187Y-124612190D01*
X143617190Y-124612187D01*
X143703350Y-124497093D01*
X143703354Y-124497086D01*
X143753596Y-124362379D01*
X143753598Y-124362372D01*
X143759999Y-124302844D01*
X143760000Y-124302827D01*
X143760000Y-121543187D01*
X182653500Y-121543187D01*
X182673794Y-121677823D01*
X182692604Y-121802615D01*
X182692605Y-121802617D01*
X182692606Y-121802623D01*
X182769938Y-122053326D01*
X182883767Y-122289696D01*
X182883768Y-122289697D01*
X182883770Y-122289700D01*
X182883772Y-122289704D01*
X183031567Y-122506479D01*
X183210014Y-122698801D01*
X183210018Y-122698804D01*
X183210019Y-122698805D01*
X183415143Y-122862386D01*
X183642357Y-122993568D01*
X183886584Y-123089420D01*
X184142370Y-123147802D01*
X184142376Y-123147802D01*
X184142379Y-123147803D01*
X184338500Y-123162500D01*
X184338506Y-123162500D01*
X184469500Y-123162500D01*
X184665620Y-123147803D01*
X184665622Y-123147802D01*
X184665630Y-123147802D01*
X184921416Y-123089420D01*
X185165643Y-122993568D01*
X185392857Y-122862386D01*
X185597981Y-122698805D01*
X185776433Y-122506479D01*
X185924228Y-122289704D01*
X186038063Y-122053323D01*
X186115396Y-121802615D01*
X186154500Y-121543182D01*
X186154500Y-121280818D01*
X186115396Y-121021385D01*
X186038063Y-120770677D01*
X185943216Y-120573724D01*
X185924232Y-120534303D01*
X185924231Y-120534302D01*
X185924230Y-120534301D01*
X185924228Y-120534296D01*
X185776433Y-120317521D01*
X185766441Y-120306753D01*
X185597985Y-120125198D01*
X185558533Y-120093736D01*
X185392857Y-119961614D01*
X185165643Y-119830432D01*
X184921416Y-119734580D01*
X184921411Y-119734578D01*
X184921402Y-119734576D01*
X184703818Y-119684914D01*
X184665630Y-119676198D01*
X184665629Y-119676197D01*
X184665625Y-119676197D01*
X184665620Y-119676196D01*
X184469500Y-119661500D01*
X184469494Y-119661500D01*
X184338506Y-119661500D01*
X184338500Y-119661500D01*
X184142379Y-119676196D01*
X184142374Y-119676197D01*
X183886597Y-119734576D01*
X183886578Y-119734582D01*
X183642356Y-119830432D01*
X183415143Y-119961614D01*
X183210014Y-120125198D01*
X183031567Y-120317520D01*
X182883768Y-120534302D01*
X182883767Y-120534303D01*
X182769938Y-120770673D01*
X182692606Y-121021376D01*
X182692605Y-121021381D01*
X182692604Y-121021385D01*
X182677853Y-121119247D01*
X182653500Y-121280812D01*
X182653500Y-121543187D01*
X143760000Y-121543187D01*
X143760000Y-119630000D01*
X137410000Y-119630000D01*
X136910000Y-119630000D01*
X130560000Y-119630000D01*
X115316500Y-119630000D01*
X115316500Y-119130000D01*
X130560000Y-119130000D01*
X136910000Y-119130000D01*
X136910000Y-114005000D01*
X131012155Y-114005000D01*
X130952627Y-114011401D01*
X130952620Y-114011403D01*
X130817913Y-114061645D01*
X130817906Y-114061649D01*
X130702812Y-114147809D01*
X130702809Y-114147812D01*
X130616649Y-114262906D01*
X130616645Y-114262913D01*
X130566403Y-114397620D01*
X130566401Y-114397627D01*
X130560000Y-114457155D01*
X130560000Y-119130000D01*
X115316500Y-119130000D01*
X115316500Y-109220002D01*
X123192677Y-109220002D01*
X123211929Y-109440062D01*
X123211930Y-109440070D01*
X123269104Y-109653445D01*
X123269105Y-109653447D01*
X123269106Y-109653450D01*
X123358660Y-109845500D01*
X123362466Y-109853662D01*
X123362468Y-109853666D01*
X123489170Y-110034615D01*
X123489175Y-110034621D01*
X123645378Y-110190824D01*
X123645384Y-110190829D01*
X123826333Y-110317531D01*
X123826335Y-110317532D01*
X123826338Y-110317534D01*
X124026550Y-110410894D01*
X124239932Y-110468070D01*
X124397123Y-110481822D01*
X124459998Y-110487323D01*
X124460000Y-110487323D01*
X124460002Y-110487323D01*
X124599758Y-110475095D01*
X124680068Y-110468070D01*
X124680068Y-110468069D01*
X124682170Y-110467886D01*
X124687576Y-110467650D01*
X133195501Y-110467650D01*
X133262540Y-110487335D01*
X133308295Y-110540139D01*
X133319501Y-110591650D01*
X133319501Y-110902876D01*
X133325908Y-110962483D01*
X133376202Y-111097328D01*
X133376206Y-111097335D01*
X133462452Y-111212544D01*
X133462455Y-111212547D01*
X133577664Y-111298793D01*
X133577671Y-111298797D01*
X133712517Y-111349091D01*
X133712516Y-111349091D01*
X133719444Y-111349835D01*
X133772127Y-111355500D01*
X135467872Y-111355499D01*
X135527483Y-111349091D01*
X135662331Y-111298796D01*
X135777546Y-111212546D01*
X135863796Y-111097331D01*
X135914091Y-110962483D01*
X135920500Y-110902873D01*
X135920499Y-107307128D01*
X135914091Y-107247517D01*
X135864471Y-107114480D01*
X135863797Y-107112671D01*
X135863793Y-107112664D01*
X135777547Y-106997455D01*
X135777544Y-106997452D01*
X135662335Y-106911206D01*
X135662328Y-106911202D01*
X135527482Y-106860908D01*
X135527483Y-106860908D01*
X135467883Y-106854501D01*
X135467881Y-106854500D01*
X135467873Y-106854500D01*
X135467864Y-106854500D01*
X133772129Y-106854500D01*
X133772123Y-106854501D01*
X133712516Y-106860908D01*
X133577671Y-106911202D01*
X133577664Y-106911206D01*
X133462455Y-106997452D01*
X133462452Y-106997455D01*
X133376206Y-107112664D01*
X133376202Y-107112671D01*
X133325908Y-107247517D01*
X133319501Y-107307116D01*
X133319501Y-107307123D01*
X133319500Y-107307135D01*
X133319500Y-107848350D01*
X133299815Y-107915389D01*
X133247011Y-107961144D01*
X133195500Y-107972350D01*
X124687576Y-107972350D01*
X124682170Y-107972114D01*
X124680068Y-107971930D01*
X124556781Y-107961144D01*
X124460002Y-107952677D01*
X124459998Y-107952677D01*
X124239937Y-107971929D01*
X124239929Y-107971930D01*
X124026554Y-108029104D01*
X124026548Y-108029107D01*
X123826340Y-108122465D01*
X123826338Y-108122466D01*
X123645377Y-108249175D01*
X123489175Y-108405377D01*
X123362466Y-108586338D01*
X123362465Y-108586340D01*
X123269107Y-108786548D01*
X123269104Y-108786554D01*
X123211930Y-108999929D01*
X123211929Y-108999937D01*
X123192677Y-109219997D01*
X123192677Y-109220002D01*
X115316500Y-109220002D01*
X115316500Y-104140000D01*
X122939179Y-104140000D01*
X122958424Y-104359976D01*
X122958426Y-104359986D01*
X123015575Y-104573270D01*
X123015580Y-104573284D01*
X123108899Y-104773407D01*
X123108900Y-104773409D01*
X123154258Y-104838187D01*
X123821096Y-104171349D01*
X123821051Y-104171898D01*
X123852266Y-104295162D01*
X123921813Y-104401612D01*
X124022157Y-104479713D01*
X124142422Y-104521000D01*
X124178553Y-104521000D01*
X123507811Y-105191741D01*
X123572582Y-105237094D01*
X123572592Y-105237100D01*
X123772715Y-105330419D01*
X123772729Y-105330424D01*
X123986013Y-105387573D01*
X123986023Y-105387575D01*
X124205999Y-105406821D01*
X124206001Y-105406821D01*
X124425976Y-105387575D01*
X124425986Y-105387573D01*
X124639270Y-105330424D01*
X124639284Y-105330419D01*
X124839408Y-105237100D01*
X124839420Y-105237093D01*
X124904186Y-105191742D01*
X124904187Y-105191740D01*
X124233448Y-104521000D01*
X124237569Y-104521000D01*
X124331421Y-104505339D01*
X124443251Y-104444820D01*
X124529371Y-104351269D01*
X124580448Y-104234823D01*
X124586105Y-104166552D01*
X125257740Y-104838187D01*
X125257742Y-104838186D01*
X125303093Y-104773420D01*
X125303100Y-104773408D01*
X125396419Y-104573284D01*
X125396424Y-104573270D01*
X125453573Y-104359986D01*
X125453575Y-104359976D01*
X125472821Y-104140000D01*
X125472821Y-104139999D01*
X125453575Y-103920023D01*
X125453573Y-103920013D01*
X125396424Y-103706729D01*
X125396420Y-103706720D01*
X125303098Y-103506590D01*
X125257740Y-103441811D01*
X124590903Y-104108648D01*
X124590949Y-104108102D01*
X124559734Y-103984838D01*
X124490187Y-103878388D01*
X124389843Y-103800287D01*
X124269578Y-103759000D01*
X124233447Y-103759000D01*
X124904187Y-103088258D01*
X124839409Y-103042900D01*
X124839407Y-103042899D01*
X124639284Y-102949580D01*
X124639270Y-102949575D01*
X124425986Y-102892426D01*
X124425976Y-102892424D01*
X124206001Y-102873179D01*
X124205999Y-102873179D01*
X123986023Y-102892424D01*
X123986013Y-102892426D01*
X123772729Y-102949575D01*
X123772720Y-102949579D01*
X123572586Y-103042903D01*
X123507812Y-103088257D01*
X123507811Y-103088258D01*
X124178554Y-103759000D01*
X124174431Y-103759000D01*
X124080579Y-103774661D01*
X123968749Y-103835180D01*
X123882629Y-103928731D01*
X123831552Y-104045177D01*
X123825894Y-104113447D01*
X123154258Y-103441811D01*
X123154257Y-103441812D01*
X123108903Y-103506586D01*
X123015579Y-103706720D01*
X123015575Y-103706729D01*
X122958426Y-103920013D01*
X122958424Y-103920023D01*
X122939179Y-104139999D01*
X122939179Y-104140000D01*
X115316500Y-104140000D01*
X115316500Y-97028002D01*
X115820677Y-97028002D01*
X115839929Y-97248062D01*
X115839930Y-97248070D01*
X115897104Y-97461445D01*
X115897105Y-97461447D01*
X115897106Y-97461450D01*
X115986660Y-97653500D01*
X115990466Y-97661662D01*
X115990468Y-97661666D01*
X116117170Y-97842615D01*
X116117175Y-97842621D01*
X116273378Y-97998824D01*
X116273384Y-97998829D01*
X116454333Y-98125531D01*
X116454335Y-98125532D01*
X116454338Y-98125534D01*
X116654550Y-98218894D01*
X116867932Y-98276070D01*
X117025123Y-98289822D01*
X117087998Y-98295323D01*
X117088000Y-98295323D01*
X117088002Y-98295323D01*
X117227758Y-98283095D01*
X117308068Y-98276070D01*
X117308068Y-98276069D01*
X117310170Y-98275886D01*
X117315576Y-98275650D01*
X122182159Y-98275650D01*
X122249198Y-98295335D01*
X122294953Y-98348139D01*
X122304897Y-98417297D01*
X122275872Y-98480853D01*
X122253282Y-98501225D01*
X122231812Y-98516258D01*
X122231811Y-98516258D01*
X122902554Y-99187000D01*
X122898431Y-99187000D01*
X122804579Y-99202661D01*
X122692749Y-99263180D01*
X122606629Y-99356731D01*
X122555552Y-99473177D01*
X122549894Y-99541447D01*
X121878258Y-98869811D01*
X121878257Y-98869812D01*
X121832903Y-98934586D01*
X121739579Y-99134720D01*
X121739575Y-99134729D01*
X121682426Y-99348013D01*
X121682424Y-99348023D01*
X121663179Y-99567999D01*
X121663179Y-99568000D01*
X121682424Y-99787976D01*
X121682426Y-99787986D01*
X121739575Y-100001270D01*
X121739580Y-100001284D01*
X121832899Y-100201407D01*
X121832900Y-100201409D01*
X121878258Y-100266187D01*
X122545096Y-99599349D01*
X122545051Y-99599898D01*
X122576266Y-99723162D01*
X122645813Y-99829612D01*
X122746157Y-99907713D01*
X122866422Y-99949000D01*
X122902553Y-99949000D01*
X122231811Y-100619741D01*
X122296582Y-100665094D01*
X122296592Y-100665100D01*
X122496715Y-100758419D01*
X122496729Y-100758424D01*
X122710013Y-100815573D01*
X122710023Y-100815575D01*
X122929999Y-100834821D01*
X122930001Y-100834821D01*
X123149976Y-100815575D01*
X123149986Y-100815573D01*
X123363270Y-100758424D01*
X123363284Y-100758419D01*
X123563408Y-100665100D01*
X123563420Y-100665093D01*
X123628186Y-100619742D01*
X123628187Y-100619740D01*
X122957448Y-99949000D01*
X122961569Y-99949000D01*
X123055421Y-99933339D01*
X123167251Y-99872820D01*
X123253371Y-99779269D01*
X123304448Y-99662823D01*
X123310105Y-99594552D01*
X123981740Y-100266187D01*
X123981742Y-100266186D01*
X124027093Y-100201420D01*
X124027100Y-100201408D01*
X124120419Y-100001284D01*
X124120424Y-100001270D01*
X124177573Y-99787986D01*
X124177575Y-99787976D01*
X124196821Y-99568000D01*
X124196821Y-99567999D01*
X124177575Y-99348023D01*
X124177573Y-99348013D01*
X124120424Y-99134729D01*
X124120420Y-99134720D01*
X124027098Y-98934590D01*
X123981740Y-98869811D01*
X123314903Y-99536648D01*
X123314949Y-99536102D01*
X123283734Y-99412838D01*
X123214187Y-99306388D01*
X123113843Y-99228287D01*
X122993578Y-99187000D01*
X122957447Y-99187000D01*
X123628187Y-98516258D01*
X123563409Y-98470900D01*
X123563407Y-98470899D01*
X123434219Y-98410658D01*
X123381779Y-98364486D01*
X123362627Y-98297293D01*
X123382843Y-98230411D01*
X123434219Y-98185894D01*
X123563662Y-98125534D01*
X123744620Y-97998826D01*
X123900826Y-97842620D01*
X124027534Y-97661662D01*
X124120894Y-97461450D01*
X124178070Y-97248068D01*
X124197323Y-97028000D01*
X124178070Y-96807932D01*
X124120894Y-96594550D01*
X124027534Y-96394339D01*
X123900826Y-96213380D01*
X123744620Y-96057174D01*
X123744616Y-96057171D01*
X123744615Y-96057170D01*
X123563666Y-95930468D01*
X123563658Y-95930464D01*
X123434811Y-95870382D01*
X123382371Y-95824210D01*
X123363219Y-95757017D01*
X123383435Y-95690135D01*
X123434811Y-95645618D01*
X123440802Y-95642824D01*
X123563662Y-95585534D01*
X123744620Y-95458826D01*
X123900826Y-95302620D01*
X124027534Y-95121662D01*
X124120894Y-94921450D01*
X124178070Y-94708068D01*
X124197323Y-94488000D01*
X124178070Y-94267932D01*
X124120894Y-94054550D01*
X124027534Y-93854339D01*
X123928938Y-93713528D01*
X123900827Y-93673381D01*
X123826446Y-93599000D01*
X123744620Y-93517174D01*
X123744616Y-93517171D01*
X123744615Y-93517170D01*
X123563666Y-93390468D01*
X123563658Y-93390464D01*
X123434811Y-93330382D01*
X123382371Y-93284210D01*
X123363219Y-93217017D01*
X123383435Y-93150135D01*
X123434811Y-93105618D01*
X123440802Y-93102824D01*
X123563662Y-93045534D01*
X123744620Y-92918826D01*
X123900826Y-92762620D01*
X124027534Y-92581662D01*
X124120894Y-92381450D01*
X124178070Y-92168068D01*
X124197323Y-91948000D01*
X124178070Y-91727932D01*
X124120894Y-91514550D01*
X124027534Y-91314339D01*
X123900826Y-91133380D01*
X123744620Y-90977174D01*
X123744616Y-90977171D01*
X123744615Y-90977170D01*
X123563666Y-90850468D01*
X123563658Y-90850464D01*
X123434811Y-90790382D01*
X123382371Y-90744210D01*
X123363219Y-90677017D01*
X123383435Y-90610135D01*
X123434811Y-90565618D01*
X123440802Y-90562824D01*
X123563662Y-90505534D01*
X123744620Y-90378826D01*
X123900826Y-90222620D01*
X124027534Y-90041662D01*
X124120894Y-89841450D01*
X124178070Y-89628068D01*
X124197323Y-89408000D01*
X124178070Y-89187932D01*
X124120894Y-88974550D01*
X124027534Y-88774339D01*
X123900826Y-88593380D01*
X123744620Y-88437174D01*
X123744616Y-88437171D01*
X123744615Y-88437170D01*
X123563666Y-88310468D01*
X123563658Y-88310464D01*
X123434219Y-88250106D01*
X123381779Y-88203934D01*
X123362627Y-88136741D01*
X123382843Y-88069859D01*
X123434219Y-88025342D01*
X123563408Y-87965100D01*
X123563420Y-87965093D01*
X123628186Y-87919742D01*
X123628187Y-87919740D01*
X122957448Y-87249000D01*
X122961569Y-87249000D01*
X123055421Y-87233339D01*
X123167251Y-87172820D01*
X123253371Y-87079269D01*
X123304448Y-86962823D01*
X123310105Y-86894552D01*
X123981740Y-87566187D01*
X123981742Y-87566186D01*
X124027093Y-87501420D01*
X124027100Y-87501408D01*
X124120419Y-87301284D01*
X124120424Y-87301270D01*
X124177573Y-87087986D01*
X124177575Y-87087976D01*
X124196821Y-86868000D01*
X124196821Y-86867999D01*
X124177575Y-86648023D01*
X124177573Y-86648013D01*
X124120424Y-86434729D01*
X124120420Y-86434720D01*
X124027098Y-86234590D01*
X123981740Y-86169811D01*
X123314903Y-86836648D01*
X123314949Y-86836102D01*
X123283734Y-86712838D01*
X123214187Y-86606388D01*
X123113843Y-86528287D01*
X122993578Y-86487000D01*
X122957447Y-86487000D01*
X123628187Y-85816258D01*
X123563409Y-85770900D01*
X123563407Y-85770899D01*
X123434219Y-85710658D01*
X123381779Y-85664486D01*
X123362627Y-85597293D01*
X123382843Y-85530411D01*
X123434219Y-85485894D01*
X123434811Y-85485618D01*
X123563662Y-85425534D01*
X123744620Y-85298826D01*
X123900826Y-85142620D01*
X124027534Y-84961662D01*
X124120894Y-84761450D01*
X124178070Y-84548068D01*
X124197323Y-84328000D01*
X124178070Y-84107932D01*
X124120894Y-83894550D01*
X124027534Y-83694339D01*
X123900826Y-83513380D01*
X123744620Y-83357174D01*
X123744616Y-83357171D01*
X123744615Y-83357170D01*
X123563666Y-83230468D01*
X123563658Y-83230464D01*
X123434811Y-83170382D01*
X123382371Y-83124210D01*
X123363219Y-83057017D01*
X123383435Y-82990135D01*
X123434811Y-82945618D01*
X123440802Y-82942824D01*
X123563662Y-82885534D01*
X123744620Y-82758826D01*
X123900826Y-82602620D01*
X124027534Y-82421662D01*
X124120894Y-82221450D01*
X124178070Y-82008068D01*
X124197323Y-81788000D01*
X124178070Y-81567932D01*
X124120894Y-81354550D01*
X124027534Y-81154339D01*
X123900826Y-80973380D01*
X123744620Y-80817174D01*
X123744616Y-80817171D01*
X123744615Y-80817170D01*
X123563666Y-80690468D01*
X123563662Y-80690466D01*
X123563660Y-80690465D01*
X123363450Y-80597106D01*
X123363447Y-80597105D01*
X123363445Y-80597104D01*
X123150070Y-80539930D01*
X123150062Y-80539929D01*
X122930002Y-80520677D01*
X122929998Y-80520677D01*
X122709937Y-80539929D01*
X122709929Y-80539930D01*
X122496554Y-80597104D01*
X122496548Y-80597107D01*
X122296340Y-80690465D01*
X122296338Y-80690466D01*
X122115377Y-80817175D01*
X121959175Y-80973377D01*
X121832466Y-81154338D01*
X121832465Y-81154340D01*
X121739107Y-81354548D01*
X121739104Y-81354554D01*
X121681930Y-81567929D01*
X121681929Y-81567937D01*
X121662677Y-81787997D01*
X121662677Y-81788002D01*
X121681929Y-82008062D01*
X121681930Y-82008070D01*
X121739104Y-82221445D01*
X121739105Y-82221447D01*
X121739106Y-82221450D01*
X121828660Y-82413500D01*
X121832466Y-82421662D01*
X121832468Y-82421666D01*
X121959170Y-82602615D01*
X121959175Y-82602621D01*
X122115378Y-82758824D01*
X122115384Y-82758829D01*
X122296333Y-82885531D01*
X122296335Y-82885532D01*
X122296338Y-82885534D01*
X122415748Y-82941215D01*
X122425189Y-82945618D01*
X122477628Y-82991790D01*
X122496780Y-83058984D01*
X122476564Y-83125865D01*
X122425189Y-83170382D01*
X122296340Y-83230465D01*
X122296338Y-83230466D01*
X122115377Y-83357175D01*
X121959175Y-83513377D01*
X121863776Y-83649623D01*
X121809199Y-83693248D01*
X121762201Y-83702500D01*
X119944453Y-83702500D01*
X119877414Y-83682815D01*
X119856772Y-83666181D01*
X119025819Y-82835228D01*
X118992334Y-82773905D01*
X118989500Y-82747547D01*
X118989500Y-79812452D01*
X119009185Y-79745413D01*
X119025819Y-79724771D01*
X124428771Y-74321819D01*
X124490094Y-74288334D01*
X124516452Y-74285500D01*
X130984981Y-74285500D01*
X148470501Y-74285500D01*
X148537540Y-74305185D01*
X148583295Y-74357989D01*
X148594501Y-74409500D01*
X148594501Y-74472876D01*
X148600908Y-74532483D01*
X148651202Y-74667328D01*
X148651206Y-74667335D01*
X148737452Y-74782544D01*
X148737455Y-74782547D01*
X148852664Y-74868793D01*
X148852671Y-74868797D01*
X148987517Y-74919091D01*
X148987516Y-74919091D01*
X148994444Y-74919835D01*
X149047127Y-74925500D01*
X149080564Y-74925499D01*
X149147601Y-74945182D01*
X149193357Y-74997984D01*
X149203302Y-75067143D01*
X149174279Y-75130699D01*
X149151689Y-75151073D01*
X149043447Y-75226866D01*
X149043441Y-75226871D01*
X148886868Y-75383444D01*
X148759857Y-75564834D01*
X148759856Y-75564836D01*
X148666279Y-75765513D01*
X148666275Y-75765524D01*
X148608965Y-75979407D01*
X148608964Y-75979414D01*
X148589666Y-76199998D01*
X148589666Y-76200001D01*
X148608964Y-76420585D01*
X148608965Y-76420592D01*
X148666275Y-76634475D01*
X148666279Y-76634486D01*
X148759856Y-76835163D01*
X148759858Y-76835167D01*
X148886868Y-77016555D01*
X149043445Y-77173132D01*
X149224833Y-77300142D01*
X149286828Y-77329050D01*
X149348091Y-77357618D01*
X149400531Y-77403790D01*
X149419683Y-77470983D01*
X149399467Y-77537865D01*
X149348091Y-77582382D01*
X149224836Y-77639856D01*
X149224834Y-77639857D01*
X149043444Y-77766868D01*
X148886868Y-77923444D01*
X148759857Y-78104834D01*
X148759856Y-78104836D01*
X148666279Y-78305513D01*
X148666275Y-78305524D01*
X148608965Y-78519407D01*
X148608964Y-78519414D01*
X148589666Y-78739998D01*
X148589666Y-78740001D01*
X148608964Y-78960585D01*
X148608965Y-78960592D01*
X148666275Y-79174475D01*
X148666279Y-79174486D01*
X148759856Y-79375163D01*
X148759858Y-79375167D01*
X148886868Y-79556555D01*
X149043445Y-79713132D01*
X149224833Y-79840142D01*
X149286828Y-79869050D01*
X149348091Y-79897618D01*
X149400531Y-79943790D01*
X149419683Y-80010983D01*
X149399467Y-80077865D01*
X149348091Y-80122382D01*
X149224836Y-80179856D01*
X149224834Y-80179857D01*
X149043444Y-80306868D01*
X148886868Y-80463444D01*
X148759857Y-80644834D01*
X148759856Y-80644836D01*
X148666279Y-80845513D01*
X148666275Y-80845524D01*
X148608965Y-81059407D01*
X148608964Y-81059414D01*
X148589666Y-81279998D01*
X148589666Y-81280001D01*
X148608964Y-81500585D01*
X148608965Y-81500592D01*
X148666275Y-81714475D01*
X148666279Y-81714486D01*
X148759856Y-81915163D01*
X148759858Y-81915167D01*
X148886868Y-82096555D01*
X149043445Y-82253132D01*
X149224833Y-82380142D01*
X149286828Y-82409050D01*
X149348091Y-82437618D01*
X149400531Y-82483790D01*
X149419683Y-82550983D01*
X149399467Y-82617865D01*
X149348091Y-82662382D01*
X149224836Y-82719856D01*
X149224834Y-82719857D01*
X149043444Y-82846868D01*
X148886868Y-83003444D01*
X148759857Y-83184834D01*
X148759856Y-83184836D01*
X148666279Y-83385513D01*
X148666275Y-83385524D01*
X148608965Y-83599407D01*
X148608964Y-83599414D01*
X148589666Y-83819998D01*
X148589666Y-83820001D01*
X148608964Y-84040585D01*
X148608965Y-84040592D01*
X148666275Y-84254475D01*
X148666279Y-84254486D01*
X148759856Y-84455163D01*
X148759858Y-84455167D01*
X148886868Y-84636555D01*
X149043445Y-84793132D01*
X149224833Y-84920142D01*
X149268974Y-84940725D01*
X149348091Y-84977618D01*
X149400531Y-85023790D01*
X149419683Y-85090983D01*
X149399467Y-85157865D01*
X149348091Y-85202382D01*
X149224836Y-85259856D01*
X149224834Y-85259857D01*
X149043444Y-85386868D01*
X148886868Y-85543444D01*
X148759857Y-85724834D01*
X148759856Y-85724836D01*
X148666279Y-85925513D01*
X148666275Y-85925524D01*
X148608965Y-86139407D01*
X148608964Y-86139414D01*
X148589666Y-86359998D01*
X148589666Y-86360003D01*
X148596892Y-86442605D01*
X148583125Y-86511105D01*
X148534509Y-86561287D01*
X148466480Y-86577220D01*
X148400637Y-86553844D01*
X148385683Y-86541092D01*
X143248803Y-81404212D01*
X143238980Y-81391950D01*
X143238759Y-81392134D01*
X143233786Y-81386123D01*
X143183364Y-81338773D01*
X143172919Y-81328328D01*
X143162475Y-81317883D01*
X143156986Y-81313625D01*
X143152561Y-81309847D01*
X143118582Y-81277938D01*
X143118580Y-81277936D01*
X143118577Y-81277935D01*
X143101029Y-81268288D01*
X143084763Y-81257604D01*
X143068933Y-81245325D01*
X143026168Y-81226818D01*
X143020922Y-81224248D01*
X142980093Y-81201803D01*
X142980092Y-81201802D01*
X142960693Y-81196822D01*
X142942281Y-81190518D01*
X142923898Y-81182562D01*
X142923892Y-81182560D01*
X142877874Y-81175272D01*
X142872152Y-81174087D01*
X142827021Y-81162500D01*
X142827019Y-81162500D01*
X142806984Y-81162500D01*
X142787586Y-81160973D01*
X142780162Y-81159797D01*
X142767805Y-81157840D01*
X142767804Y-81157840D01*
X142721416Y-81162225D01*
X142715578Y-81162500D01*
X139597799Y-81162500D01*
X139530760Y-81142815D01*
X139496224Y-81109623D01*
X139400827Y-80973381D01*
X139400823Y-80973377D01*
X139244620Y-80817174D01*
X139244616Y-80817171D01*
X139244615Y-80817170D01*
X139063666Y-80690468D01*
X139063662Y-80690466D01*
X139063660Y-80690465D01*
X138863450Y-80597106D01*
X138863447Y-80597105D01*
X138863445Y-80597104D01*
X138650070Y-80539930D01*
X138650062Y-80539929D01*
X138430002Y-80520677D01*
X138429998Y-80520677D01*
X138209937Y-80539929D01*
X138209929Y-80539930D01*
X137996554Y-80597104D01*
X137996548Y-80597107D01*
X137796340Y-80690465D01*
X137796338Y-80690466D01*
X137615377Y-80817175D01*
X137459175Y-80973377D01*
X137332466Y-81154338D01*
X137332465Y-81154340D01*
X137239107Y-81354548D01*
X137239104Y-81354554D01*
X137181930Y-81567929D01*
X137181929Y-81567937D01*
X137162677Y-81787997D01*
X137162677Y-81788002D01*
X137181929Y-82008062D01*
X137181930Y-82008070D01*
X137239104Y-82221445D01*
X137239105Y-82221447D01*
X137239106Y-82221450D01*
X137328660Y-82413500D01*
X137332466Y-82421662D01*
X137332468Y-82421666D01*
X137459170Y-82602615D01*
X137459175Y-82602621D01*
X137615378Y-82758824D01*
X137615384Y-82758829D01*
X137796333Y-82885531D01*
X137796335Y-82885532D01*
X137796338Y-82885534D01*
X137915748Y-82941215D01*
X137925189Y-82945618D01*
X137977628Y-82991790D01*
X137996780Y-83058984D01*
X137976564Y-83125865D01*
X137925189Y-83170382D01*
X137796340Y-83230465D01*
X137796338Y-83230466D01*
X137615377Y-83357175D01*
X137459175Y-83513377D01*
X137332466Y-83694338D01*
X137332465Y-83694340D01*
X137239107Y-83894548D01*
X137239104Y-83894554D01*
X137181930Y-84107929D01*
X137181929Y-84107937D01*
X137162677Y-84327997D01*
X137162677Y-84328002D01*
X137181929Y-84548062D01*
X137181930Y-84548070D01*
X137239104Y-84761445D01*
X137239105Y-84761447D01*
X137239106Y-84761450D01*
X137313788Y-84921606D01*
X137332466Y-84961662D01*
X137332468Y-84961666D01*
X137459170Y-85142615D01*
X137459175Y-85142621D01*
X137615378Y-85298824D01*
X137615384Y-85298829D01*
X137796333Y-85425531D01*
X137796335Y-85425532D01*
X137796338Y-85425534D01*
X137915748Y-85481215D01*
X137925189Y-85485618D01*
X137977628Y-85531790D01*
X137996780Y-85598984D01*
X137976564Y-85665865D01*
X137925189Y-85710382D01*
X137796340Y-85770465D01*
X137796338Y-85770466D01*
X137615377Y-85897175D01*
X137459175Y-86053377D01*
X137332466Y-86234338D01*
X137332465Y-86234340D01*
X137239107Y-86434548D01*
X137239104Y-86434554D01*
X137181930Y-86647929D01*
X137181929Y-86647937D01*
X137162677Y-86867997D01*
X137162677Y-86868002D01*
X137181929Y-87088062D01*
X137181930Y-87088070D01*
X137239104Y-87301445D01*
X137239105Y-87301447D01*
X137239106Y-87301450D01*
X137328660Y-87493500D01*
X137332466Y-87501662D01*
X137332468Y-87501666D01*
X137459170Y-87682615D01*
X137459175Y-87682621D01*
X137615378Y-87838824D01*
X137615384Y-87838829D01*
X137796333Y-87965531D01*
X137796335Y-87965532D01*
X137796338Y-87965534D01*
X137915748Y-88021215D01*
X137925189Y-88025618D01*
X137977628Y-88071790D01*
X137996780Y-88138984D01*
X137976564Y-88205865D01*
X137925189Y-88250382D01*
X137796340Y-88310465D01*
X137796338Y-88310466D01*
X137615377Y-88437175D01*
X137459175Y-88593377D01*
X137332466Y-88774338D01*
X137332465Y-88774340D01*
X137239107Y-88974548D01*
X137239104Y-88974554D01*
X137181930Y-89187929D01*
X137181929Y-89187937D01*
X137162677Y-89407997D01*
X137162677Y-89408002D01*
X137181929Y-89628062D01*
X137181930Y-89628070D01*
X137239104Y-89841445D01*
X137239105Y-89841447D01*
X137239106Y-89841450D01*
X137328660Y-90033500D01*
X137332466Y-90041662D01*
X137332468Y-90041666D01*
X137459170Y-90222615D01*
X137459175Y-90222621D01*
X137615378Y-90378824D01*
X137615384Y-90378829D01*
X137796333Y-90505531D01*
X137796335Y-90505532D01*
X137796338Y-90505534D01*
X137915748Y-90561215D01*
X137925189Y-90565618D01*
X137977628Y-90611790D01*
X137996780Y-90678984D01*
X137976564Y-90745865D01*
X137925189Y-90790382D01*
X137796340Y-90850465D01*
X137796338Y-90850466D01*
X137615377Y-90977175D01*
X137459175Y-91133377D01*
X137332466Y-91314338D01*
X137332465Y-91314340D01*
X137239107Y-91514548D01*
X137239104Y-91514554D01*
X137181930Y-91727929D01*
X137181929Y-91727937D01*
X137162677Y-91947997D01*
X137162677Y-91948002D01*
X137181929Y-92168062D01*
X137181930Y-92168070D01*
X137239104Y-92381445D01*
X137239105Y-92381447D01*
X137239106Y-92381450D01*
X137328660Y-92573500D01*
X137332466Y-92581662D01*
X137332468Y-92581666D01*
X137459170Y-92762615D01*
X137459175Y-92762621D01*
X137615378Y-92918824D01*
X137615384Y-92918829D01*
X137796333Y-93045531D01*
X137796335Y-93045532D01*
X137796338Y-93045534D01*
X137915748Y-93101215D01*
X137925189Y-93105618D01*
X137977628Y-93151790D01*
X137996780Y-93218984D01*
X137976564Y-93285865D01*
X137925189Y-93330382D01*
X137796340Y-93390465D01*
X137796338Y-93390466D01*
X137615377Y-93517175D01*
X137459175Y-93673377D01*
X137332466Y-93854338D01*
X137332465Y-93854340D01*
X137239107Y-94054548D01*
X137239104Y-94054554D01*
X137181930Y-94267929D01*
X137181929Y-94267937D01*
X137162677Y-94487997D01*
X137162677Y-94488002D01*
X137181929Y-94708062D01*
X137181930Y-94708070D01*
X137239104Y-94921445D01*
X137239105Y-94921447D01*
X137239106Y-94921450D01*
X137328660Y-95113500D01*
X137332466Y-95121662D01*
X137332468Y-95121666D01*
X137459170Y-95302615D01*
X137459175Y-95302621D01*
X137615378Y-95458824D01*
X137615384Y-95458829D01*
X137796333Y-95585531D01*
X137796335Y-95585532D01*
X137796338Y-95585534D01*
X137915748Y-95641215D01*
X137925189Y-95645618D01*
X137977628Y-95691790D01*
X137996780Y-95758984D01*
X137976564Y-95825865D01*
X137925189Y-95870382D01*
X137796340Y-95930465D01*
X137796338Y-95930466D01*
X137615377Y-96057175D01*
X137459175Y-96213377D01*
X137332466Y-96394338D01*
X137332465Y-96394340D01*
X137239107Y-96594548D01*
X137239104Y-96594554D01*
X137181930Y-96807929D01*
X137181929Y-96807937D01*
X137162677Y-97027997D01*
X137162677Y-97028002D01*
X137181929Y-97248062D01*
X137181930Y-97248070D01*
X137239104Y-97461445D01*
X137239105Y-97461447D01*
X137239106Y-97461450D01*
X137328660Y-97653500D01*
X137332466Y-97661662D01*
X137332468Y-97661666D01*
X137459170Y-97842615D01*
X137459175Y-97842621D01*
X137615378Y-97998824D01*
X137615384Y-97998829D01*
X137796333Y-98125531D01*
X137796335Y-98125532D01*
X137796338Y-98125534D01*
X137925781Y-98185894D01*
X137978220Y-98232066D01*
X137997372Y-98299260D01*
X137977156Y-98366141D01*
X137925781Y-98410658D01*
X137796586Y-98470903D01*
X137731812Y-98516257D01*
X137731811Y-98516258D01*
X138402554Y-99187000D01*
X138398431Y-99187000D01*
X138304579Y-99202661D01*
X138192749Y-99263180D01*
X138106629Y-99356731D01*
X138055552Y-99473177D01*
X138049894Y-99541447D01*
X137378258Y-98869811D01*
X137378257Y-98869812D01*
X137332903Y-98934586D01*
X137239579Y-99134720D01*
X137239575Y-99134729D01*
X137182426Y-99348013D01*
X137182424Y-99348023D01*
X137163179Y-99567999D01*
X137163179Y-99568000D01*
X137182424Y-99787976D01*
X137182426Y-99787986D01*
X137239575Y-100001270D01*
X137239580Y-100001284D01*
X137332899Y-100201407D01*
X137332900Y-100201409D01*
X137378258Y-100266187D01*
X138045096Y-99599349D01*
X138045051Y-99599898D01*
X138076266Y-99723162D01*
X138145813Y-99829612D01*
X138246157Y-99907713D01*
X138366422Y-99949000D01*
X138402553Y-99949000D01*
X137731811Y-100619741D01*
X137796582Y-100665094D01*
X137796592Y-100665100D01*
X137996715Y-100758419D01*
X137996729Y-100758424D01*
X138210013Y-100815573D01*
X138210023Y-100815575D01*
X138429999Y-100834821D01*
X138430001Y-100834821D01*
X138649976Y-100815575D01*
X138649986Y-100815573D01*
X138863270Y-100758424D01*
X138863284Y-100758419D01*
X139063408Y-100665100D01*
X139063420Y-100665093D01*
X139128186Y-100619742D01*
X139128187Y-100619740D01*
X138457448Y-99949000D01*
X138461569Y-99949000D01*
X138555421Y-99933339D01*
X138667251Y-99872820D01*
X138753371Y-99779269D01*
X138804448Y-99662823D01*
X138810105Y-99594552D01*
X139481740Y-100266187D01*
X139481742Y-100266186D01*
X139527093Y-100201420D01*
X139527100Y-100201408D01*
X139620419Y-100001284D01*
X139620424Y-100001270D01*
X139677573Y-99787986D01*
X139677575Y-99787976D01*
X139696821Y-99568000D01*
X139696821Y-99567999D01*
X139677575Y-99348023D01*
X139677573Y-99348013D01*
X139620424Y-99134729D01*
X139620420Y-99134720D01*
X139527098Y-98934590D01*
X139481740Y-98869811D01*
X138814903Y-99536648D01*
X138814949Y-99536102D01*
X138783734Y-99412838D01*
X138714187Y-99306388D01*
X138613843Y-99228287D01*
X138493578Y-99187000D01*
X138457447Y-99187000D01*
X139128187Y-98516258D01*
X139063409Y-98470900D01*
X139063407Y-98470899D01*
X138934219Y-98410658D01*
X138881779Y-98364486D01*
X138862627Y-98297293D01*
X138882843Y-98230411D01*
X138934219Y-98185894D01*
X139063662Y-98125534D01*
X139244620Y-97998826D01*
X139400826Y-97842620D01*
X139496225Y-97706376D01*
X139550802Y-97662752D01*
X139597800Y-97653500D01*
X142437548Y-97653500D01*
X142504587Y-97673185D01*
X142525229Y-97689819D01*
X148589164Y-103753755D01*
X148622649Y-103815078D01*
X148621258Y-103873528D01*
X148608966Y-103919403D01*
X148608965Y-103919407D01*
X148608965Y-103919409D01*
X148603241Y-103984838D01*
X148589666Y-104139998D01*
X148589666Y-104140001D01*
X148608964Y-104360585D01*
X148608965Y-104360592D01*
X148666275Y-104574475D01*
X148666279Y-104574486D01*
X148690047Y-104625456D01*
X148759858Y-104775167D01*
X148886868Y-104956555D01*
X149043445Y-105113132D01*
X149224833Y-105240142D01*
X149286828Y-105269050D01*
X149348091Y-105297618D01*
X149400531Y-105343790D01*
X149419683Y-105410983D01*
X149399467Y-105477865D01*
X149348091Y-105522382D01*
X149224836Y-105579856D01*
X149224834Y-105579857D01*
X149043444Y-105706868D01*
X148886868Y-105863444D01*
X148759857Y-106044834D01*
X148759856Y-106044836D01*
X148666279Y-106245513D01*
X148666275Y-106245524D01*
X148608965Y-106459407D01*
X148608964Y-106459414D01*
X148589666Y-106679998D01*
X148589666Y-106680001D01*
X148608964Y-106900585D01*
X148608965Y-106900592D01*
X148666275Y-107114475D01*
X148666279Y-107114486D01*
X148759156Y-107313662D01*
X148759858Y-107315167D01*
X148886868Y-107496555D01*
X149043445Y-107653132D01*
X149224833Y-107780142D01*
X149286828Y-107809050D01*
X149348091Y-107837618D01*
X149400531Y-107883790D01*
X149419683Y-107950983D01*
X149399467Y-108017865D01*
X149348091Y-108062382D01*
X149224836Y-108119856D01*
X149224834Y-108119857D01*
X149043444Y-108246868D01*
X148886868Y-108403444D01*
X148759857Y-108584834D01*
X148759856Y-108584836D01*
X148666279Y-108785513D01*
X148666275Y-108785524D01*
X148608965Y-108999407D01*
X148608964Y-108999414D01*
X148589666Y-109219998D01*
X148589666Y-109220001D01*
X148608964Y-109440585D01*
X148608965Y-109440592D01*
X148666275Y-109654475D01*
X148666279Y-109654486D01*
X148755350Y-109845500D01*
X148759858Y-109855167D01*
X148886868Y-110036555D01*
X149043445Y-110193132D01*
X149224833Y-110320142D01*
X149286828Y-110349050D01*
X149348091Y-110377618D01*
X149400531Y-110423790D01*
X149419683Y-110490983D01*
X149399467Y-110557865D01*
X149348091Y-110602382D01*
X149224836Y-110659856D01*
X149224834Y-110659857D01*
X149043444Y-110786868D01*
X148886868Y-110943444D01*
X148759857Y-111124834D01*
X148759856Y-111124836D01*
X148666279Y-111325513D01*
X148666275Y-111325524D01*
X148608965Y-111539407D01*
X148608964Y-111539414D01*
X148589666Y-111759998D01*
X148589666Y-111760001D01*
X148608964Y-111980585D01*
X148608965Y-111980592D01*
X148666275Y-112194475D01*
X148666279Y-112194486D01*
X148759856Y-112395163D01*
X148759858Y-112395167D01*
X148886868Y-112576555D01*
X149043445Y-112733132D01*
X149224833Y-112860142D01*
X149286828Y-112889050D01*
X149348091Y-112917618D01*
X149400531Y-112963790D01*
X149419683Y-113030983D01*
X149399467Y-113097865D01*
X149348091Y-113142382D01*
X149224836Y-113199856D01*
X149224834Y-113199857D01*
X149043444Y-113326868D01*
X148886868Y-113483444D01*
X148759857Y-113664834D01*
X148759856Y-113664836D01*
X148666279Y-113865513D01*
X148666275Y-113865524D01*
X148608965Y-114079407D01*
X148608964Y-114079414D01*
X148589666Y-114299998D01*
X148589666Y-114300001D01*
X148608964Y-114520585D01*
X148608965Y-114520592D01*
X148666275Y-114734475D01*
X148666279Y-114734486D01*
X148759856Y-114935163D01*
X148759858Y-114935167D01*
X148886868Y-115116555D01*
X149043445Y-115273132D01*
X149224833Y-115400142D01*
X149286828Y-115429050D01*
X149348091Y-115457618D01*
X149400531Y-115503790D01*
X149419683Y-115570983D01*
X149399467Y-115637865D01*
X149348091Y-115682382D01*
X149224836Y-115739856D01*
X149224834Y-115739857D01*
X149043444Y-115866868D01*
X148886868Y-116023444D01*
X148759857Y-116204834D01*
X148759856Y-116204836D01*
X148666279Y-116405513D01*
X148666275Y-116405524D01*
X148608965Y-116619407D01*
X148608964Y-116619414D01*
X148589666Y-116839998D01*
X148589666Y-116840001D01*
X148608964Y-117060585D01*
X148608965Y-117060592D01*
X148666275Y-117274475D01*
X148666279Y-117274486D01*
X148759856Y-117475163D01*
X148759858Y-117475167D01*
X148886868Y-117656555D01*
X149043445Y-117813132D01*
X149224833Y-117940142D01*
X149286828Y-117969050D01*
X149348091Y-117997618D01*
X149400531Y-118043790D01*
X149419683Y-118110983D01*
X149399467Y-118177865D01*
X149348091Y-118222382D01*
X149224836Y-118279856D01*
X149224834Y-118279857D01*
X149043444Y-118406868D01*
X148886868Y-118563444D01*
X148832791Y-118640673D01*
X148790112Y-118701625D01*
X148735537Y-118745249D01*
X148688539Y-118754500D01*
X147630453Y-118754500D01*
X147563414Y-118734815D01*
X147542772Y-118718181D01*
X145441819Y-116617228D01*
X145408334Y-116555905D01*
X145405500Y-116529547D01*
X145405500Y-114267742D01*
X145407224Y-114252122D01*
X145406939Y-114252096D01*
X145407671Y-114244340D01*
X145407673Y-114244333D01*
X145405500Y-114175185D01*
X145405500Y-114145650D01*
X145404631Y-114138772D01*
X145404172Y-114132943D01*
X145402709Y-114086372D01*
X145397122Y-114067144D01*
X145393174Y-114048084D01*
X145390663Y-114028204D01*
X145373512Y-113984887D01*
X145371619Y-113979358D01*
X145358618Y-113934609D01*
X145358616Y-113934606D01*
X145348423Y-113917371D01*
X145339861Y-113899894D01*
X145332487Y-113881270D01*
X145331924Y-113880495D01*
X145305079Y-113843545D01*
X145301888Y-113838686D01*
X145278172Y-113798583D01*
X145278165Y-113798574D01*
X145264006Y-113784415D01*
X145251368Y-113769619D01*
X145239594Y-113753413D01*
X145203688Y-113723709D01*
X145199376Y-113719786D01*
X141036818Y-109557227D01*
X141003333Y-109495904D01*
X141000499Y-109469546D01*
X141000499Y-107307129D01*
X141000498Y-107307123D01*
X141000497Y-107307116D01*
X140994091Y-107247517D01*
X140944471Y-107114480D01*
X140943797Y-107112671D01*
X140943793Y-107112664D01*
X140857547Y-106997455D01*
X140857544Y-106997452D01*
X140742335Y-106911206D01*
X140742328Y-106911202D01*
X140607482Y-106860908D01*
X140607483Y-106860908D01*
X140547883Y-106854501D01*
X140547881Y-106854500D01*
X140547873Y-106854500D01*
X140547864Y-106854500D01*
X138852129Y-106854500D01*
X138852123Y-106854501D01*
X138792516Y-106860908D01*
X138657671Y-106911202D01*
X138657664Y-106911206D01*
X138542455Y-106997452D01*
X138542452Y-106997455D01*
X138456206Y-107112664D01*
X138456202Y-107112671D01*
X138405908Y-107247517D01*
X138399501Y-107307116D01*
X138399501Y-107307123D01*
X138399500Y-107307135D01*
X138399500Y-110902870D01*
X138399501Y-110902876D01*
X138405908Y-110962483D01*
X138456202Y-111097328D01*
X138456206Y-111097335D01*
X138542452Y-111212544D01*
X138542455Y-111212547D01*
X138657664Y-111298793D01*
X138657671Y-111298797D01*
X138792517Y-111349091D01*
X138792516Y-111349091D01*
X138799444Y-111349835D01*
X138852127Y-111355500D01*
X140547872Y-111355499D01*
X140607483Y-111349091D01*
X140742331Y-111298796D01*
X140808937Y-111248934D01*
X140874400Y-111224517D01*
X140942674Y-111239368D01*
X140970929Y-111260520D01*
X142443541Y-112733132D01*
X143529582Y-113819172D01*
X143563067Y-113880495D01*
X143558083Y-113950187D01*
X143516211Y-114006120D01*
X143450747Y-114030537D01*
X143398570Y-114023036D01*
X143367378Y-114011403D01*
X143367372Y-114011401D01*
X143307844Y-114005000D01*
X137410000Y-114005000D01*
X137410000Y-119130000D01*
X143760000Y-119130000D01*
X143760000Y-114457172D01*
X143759999Y-114457155D01*
X143753598Y-114397627D01*
X143753597Y-114397622D01*
X143741964Y-114366434D01*
X143736978Y-114296742D01*
X143770462Y-114235418D01*
X143831785Y-114201932D01*
X143901476Y-114206915D01*
X143945826Y-114235417D01*
X144118181Y-114407771D01*
X144151666Y-114469094D01*
X144154500Y-114495452D01*
X144154500Y-116757255D01*
X144152775Y-116772872D01*
X144153061Y-116772899D01*
X144152326Y-116780665D01*
X144154500Y-116849814D01*
X144154500Y-116879343D01*
X144154501Y-116879360D01*
X144155368Y-116886231D01*
X144155826Y-116892050D01*
X144157290Y-116938624D01*
X144157291Y-116938627D01*
X144162880Y-116957867D01*
X144166824Y-116976911D01*
X144169336Y-116996791D01*
X144186490Y-117040119D01*
X144188382Y-117045647D01*
X144201381Y-117090388D01*
X144211580Y-117107634D01*
X144220138Y-117125103D01*
X144227514Y-117143732D01*
X144254898Y-117181423D01*
X144258106Y-117186307D01*
X144281827Y-117226416D01*
X144281833Y-117226424D01*
X144295990Y-117240580D01*
X144308628Y-117255376D01*
X144320405Y-117271586D01*
X144320406Y-117271587D01*
X144356309Y-117301288D01*
X144360620Y-117305210D01*
X146214816Y-119159407D01*
X146819197Y-119763788D01*
X146829022Y-119776051D01*
X146829243Y-119775869D01*
X146834214Y-119781878D01*
X146860217Y-119806295D01*
X146884635Y-119829226D01*
X146905529Y-119850120D01*
X146911011Y-119854373D01*
X146915443Y-119858157D01*
X146949418Y-119890062D01*
X146966976Y-119899714D01*
X146983235Y-119910395D01*
X146999064Y-119922673D01*
X147041838Y-119941182D01*
X147047056Y-119943738D01*
X147087908Y-119966197D01*
X147107316Y-119971180D01*
X147125717Y-119977480D01*
X147144104Y-119985437D01*
X147187488Y-119992308D01*
X147190119Y-119992725D01*
X147195839Y-119993909D01*
X147240981Y-120005500D01*
X147261016Y-120005500D01*
X147280414Y-120007026D01*
X147300194Y-120010159D01*
X147300195Y-120010160D01*
X147300195Y-120010159D01*
X147300196Y-120010160D01*
X147346584Y-120005775D01*
X147352422Y-120005500D01*
X148688539Y-120005500D01*
X148755578Y-120025185D01*
X148790112Y-120058374D01*
X148886868Y-120196555D01*
X149043445Y-120353132D01*
X149224833Y-120480142D01*
X149340968Y-120534296D01*
X149425513Y-120573720D01*
X149425515Y-120573720D01*
X149425520Y-120573723D01*
X149639409Y-120631035D01*
X149796974Y-120644820D01*
X149859998Y-120650334D01*
X149860000Y-120650334D01*
X149860002Y-120650334D01*
X149915147Y-120645509D01*
X150080591Y-120631035D01*
X150294480Y-120573723D01*
X150495167Y-120480142D01*
X150676555Y-120353132D01*
X150833132Y-120196555D01*
X150960142Y-120015167D01*
X151053723Y-119814480D01*
X151111035Y-119600591D01*
X151130334Y-119380000D01*
X151111035Y-119159409D01*
X151053723Y-118945520D01*
X150960142Y-118744833D01*
X150833132Y-118563445D01*
X150676555Y-118406868D01*
X150495167Y-118279858D01*
X150371907Y-118222381D01*
X150319468Y-118176210D01*
X150300316Y-118109017D01*
X150320531Y-118042136D01*
X150371908Y-117997618D01*
X150495167Y-117940142D01*
X150676555Y-117813132D01*
X150833132Y-117656555D01*
X150960142Y-117475167D01*
X151053723Y-117274480D01*
X151111035Y-117060591D01*
X151130334Y-116840000D01*
X151111035Y-116619409D01*
X151053723Y-116405520D01*
X150960142Y-116204833D01*
X150833132Y-116023445D01*
X150676555Y-115866868D01*
X150495167Y-115739858D01*
X150371907Y-115682381D01*
X150319468Y-115636210D01*
X150300316Y-115569017D01*
X150320531Y-115502136D01*
X150371908Y-115457618D01*
X150495167Y-115400142D01*
X150676555Y-115273132D01*
X150833132Y-115116555D01*
X150960142Y-114935167D01*
X151053723Y-114734480D01*
X151111035Y-114520591D01*
X151130334Y-114300000D01*
X151111035Y-114079409D01*
X151053723Y-113865520D01*
X150960142Y-113664833D01*
X150833132Y-113483445D01*
X150676555Y-113326868D01*
X150495167Y-113199858D01*
X150371907Y-113142381D01*
X150319468Y-113096210D01*
X150300316Y-113029017D01*
X150320531Y-112962136D01*
X150371908Y-112917618D01*
X150495167Y-112860142D01*
X150676555Y-112733132D01*
X150833132Y-112576555D01*
X150960142Y-112395167D01*
X151053723Y-112194480D01*
X151111035Y-111980591D01*
X151130334Y-111760000D01*
X151111035Y-111539409D01*
X151053723Y-111325520D01*
X150960142Y-111124833D01*
X150833132Y-110943445D01*
X150676555Y-110786868D01*
X150495167Y-110659858D01*
X150371907Y-110602381D01*
X150319468Y-110556210D01*
X150300316Y-110489017D01*
X150320531Y-110422136D01*
X150371908Y-110377618D01*
X150495167Y-110320142D01*
X150676555Y-110193132D01*
X150833132Y-110036555D01*
X150960142Y-109855167D01*
X151053723Y-109654480D01*
X151111035Y-109440591D01*
X151130334Y-109220000D01*
X151111035Y-108999409D01*
X151053723Y-108785520D01*
X150960142Y-108584833D01*
X150833132Y-108403445D01*
X150676555Y-108246868D01*
X150495167Y-108119858D01*
X150371907Y-108062381D01*
X150319468Y-108016210D01*
X150300316Y-107949017D01*
X150320531Y-107882136D01*
X150371908Y-107837618D01*
X150495167Y-107780142D01*
X150676555Y-107653132D01*
X150833132Y-107496555D01*
X150960142Y-107315167D01*
X151053723Y-107114480D01*
X151111035Y-106900591D01*
X151130334Y-106680000D01*
X151111035Y-106459409D01*
X151053723Y-106245520D01*
X150960142Y-106044833D01*
X150833132Y-105863445D01*
X150676555Y-105706868D01*
X150495167Y-105579858D01*
X150371907Y-105522381D01*
X150319468Y-105476210D01*
X150300316Y-105409017D01*
X150320531Y-105342136D01*
X150371908Y-105297618D01*
X150495167Y-105240142D01*
X150676555Y-105113132D01*
X150833132Y-104956555D01*
X150960142Y-104775167D01*
X151053723Y-104574480D01*
X151111035Y-104360591D01*
X151130334Y-104140000D01*
X151111035Y-103919409D01*
X151053723Y-103705520D01*
X150960142Y-103504833D01*
X150833132Y-103323445D01*
X150676555Y-103166868D01*
X150495167Y-103039858D01*
X150371907Y-102982381D01*
X150319468Y-102936210D01*
X150300316Y-102869017D01*
X150320531Y-102802136D01*
X150371908Y-102757618D01*
X150495167Y-102700142D01*
X150676555Y-102573132D01*
X150833132Y-102416555D01*
X150960142Y-102235167D01*
X151053723Y-102034480D01*
X151111035Y-101820591D01*
X151130334Y-101600000D01*
X151111035Y-101379409D01*
X151053723Y-101165520D01*
X150960142Y-100964833D01*
X150833132Y-100783445D01*
X150676555Y-100626868D01*
X150495167Y-100499858D01*
X150371907Y-100442381D01*
X150319468Y-100396210D01*
X150300316Y-100329017D01*
X150320531Y-100262136D01*
X150371908Y-100217618D01*
X150406645Y-100201420D01*
X150495167Y-100160142D01*
X150676555Y-100033132D01*
X150833132Y-99876555D01*
X150960142Y-99695167D01*
X151053723Y-99494480D01*
X151111035Y-99280591D01*
X151130334Y-99060000D01*
X151111035Y-98839409D01*
X151053723Y-98625520D01*
X150960142Y-98424833D01*
X150833132Y-98243445D01*
X150676555Y-98086868D01*
X150495167Y-97959858D01*
X150371907Y-97902381D01*
X150319468Y-97856210D01*
X150300316Y-97789017D01*
X150320531Y-97722136D01*
X150371908Y-97677618D01*
X150381415Y-97673185D01*
X150495167Y-97620142D01*
X150676555Y-97493132D01*
X150833132Y-97336555D01*
X150960142Y-97155167D01*
X151053723Y-96954480D01*
X151111035Y-96740591D01*
X151130334Y-96520000D01*
X151130153Y-96517936D01*
X151121809Y-96422560D01*
X151111035Y-96299409D01*
X151053723Y-96085520D01*
X150960142Y-95884833D01*
X150833132Y-95703445D01*
X150676555Y-95546868D01*
X150495167Y-95419858D01*
X150371907Y-95362381D01*
X150319468Y-95316210D01*
X150300316Y-95249017D01*
X150320531Y-95182136D01*
X150371908Y-95137618D01*
X150381415Y-95133185D01*
X150495167Y-95080142D01*
X150676555Y-94953132D01*
X150833132Y-94796555D01*
X150960142Y-94615167D01*
X151053723Y-94414480D01*
X151111035Y-94200591D01*
X151130334Y-93980000D01*
X151130153Y-93977936D01*
X151121809Y-93882560D01*
X151111035Y-93759409D01*
X151053723Y-93545520D01*
X150960142Y-93344833D01*
X150833132Y-93163445D01*
X150676555Y-93006868D01*
X150495167Y-92879858D01*
X150371907Y-92822381D01*
X150319468Y-92776210D01*
X150300316Y-92709017D01*
X150320531Y-92642136D01*
X150371908Y-92597618D01*
X150381415Y-92593185D01*
X150495167Y-92540142D01*
X150676555Y-92413132D01*
X150833132Y-92256555D01*
X150960142Y-92075167D01*
X151053723Y-91874480D01*
X151111035Y-91660591D01*
X151130334Y-91440000D01*
X151130153Y-91437936D01*
X151121809Y-91342560D01*
X151111035Y-91219409D01*
X151053723Y-91005520D01*
X150960142Y-90804833D01*
X150833132Y-90623445D01*
X150676555Y-90466868D01*
X150495167Y-90339858D01*
X150371907Y-90282381D01*
X150319468Y-90236210D01*
X150300316Y-90169017D01*
X150320531Y-90102136D01*
X150371908Y-90057618D01*
X150381415Y-90053185D01*
X150495167Y-90000142D01*
X150676555Y-89873132D01*
X150833132Y-89716555D01*
X150960142Y-89535167D01*
X151053723Y-89334480D01*
X151111035Y-89120591D01*
X151130334Y-88900000D01*
X151130153Y-88897936D01*
X151121809Y-88802560D01*
X151111035Y-88679409D01*
X151053723Y-88465520D01*
X150960142Y-88264833D01*
X150833132Y-88083445D01*
X150676555Y-87926868D01*
X150495167Y-87799858D01*
X150371907Y-87742381D01*
X150319468Y-87696210D01*
X150300316Y-87629017D01*
X150320531Y-87562136D01*
X150371908Y-87517618D01*
X150381415Y-87513185D01*
X150495167Y-87460142D01*
X150676555Y-87333132D01*
X150833132Y-87176555D01*
X150960142Y-86995167D01*
X151053723Y-86794480D01*
X151111035Y-86580591D01*
X151130334Y-86360000D01*
X151130153Y-86357936D01*
X151121809Y-86262560D01*
X151111035Y-86139409D01*
X151053723Y-85925520D01*
X150960142Y-85724833D01*
X150833132Y-85543445D01*
X150676555Y-85386868D01*
X150495167Y-85259858D01*
X150371907Y-85202381D01*
X150319468Y-85156210D01*
X150300316Y-85089017D01*
X150320531Y-85022136D01*
X150371908Y-84977618D01*
X150381415Y-84973185D01*
X150495167Y-84920142D01*
X150676555Y-84793132D01*
X150833132Y-84636555D01*
X150960142Y-84455167D01*
X151053723Y-84254480D01*
X151111035Y-84040591D01*
X151130334Y-83820000D01*
X151130153Y-83817936D01*
X151121809Y-83722560D01*
X151111035Y-83599409D01*
X151053723Y-83385520D01*
X150960142Y-83184833D01*
X150833132Y-83003445D01*
X150676555Y-82846868D01*
X150495167Y-82719858D01*
X150371907Y-82662381D01*
X150319468Y-82616210D01*
X150300316Y-82549017D01*
X150320531Y-82482136D01*
X150371908Y-82437618D01*
X150381415Y-82433185D01*
X150495167Y-82380142D01*
X150676555Y-82253132D01*
X150833132Y-82096555D01*
X150960142Y-81915167D01*
X151053723Y-81714480D01*
X151111035Y-81500591D01*
X151130334Y-81280000D01*
X151130153Y-81277936D01*
X151121809Y-81182560D01*
X151111035Y-81059409D01*
X151053723Y-80845520D01*
X150960142Y-80644833D01*
X150833132Y-80463445D01*
X150676555Y-80306868D01*
X150495167Y-80179858D01*
X150371907Y-80122381D01*
X150319468Y-80076210D01*
X150300316Y-80009017D01*
X150320531Y-79942136D01*
X150371908Y-79897618D01*
X150495167Y-79840142D01*
X150676555Y-79713132D01*
X150833132Y-79556555D01*
X150960142Y-79375167D01*
X151053723Y-79174480D01*
X151111035Y-78960591D01*
X151130334Y-78740000D01*
X151111035Y-78519409D01*
X151053723Y-78305520D01*
X150960142Y-78104833D01*
X150833132Y-77923445D01*
X150676555Y-77766868D01*
X150495167Y-77639858D01*
X150371907Y-77582381D01*
X150319468Y-77536210D01*
X150300316Y-77469017D01*
X150320531Y-77402136D01*
X150371908Y-77357618D01*
X150383647Y-77352144D01*
X150495167Y-77300142D01*
X150676555Y-77173132D01*
X150833132Y-77016555D01*
X150960142Y-76835167D01*
X151053723Y-76634480D01*
X151111035Y-76420591D01*
X151130334Y-76200000D01*
X151111035Y-75979409D01*
X151053723Y-75765520D01*
X150960142Y-75564833D01*
X150833132Y-75383445D01*
X150676555Y-75226868D01*
X150676552Y-75226866D01*
X150676550Y-75226864D01*
X150617495Y-75185513D01*
X150568309Y-75151073D01*
X150524685Y-75096497D01*
X150517491Y-75026999D01*
X150549014Y-74964644D01*
X150609244Y-74929230D01*
X150639432Y-74925499D01*
X150672872Y-74925499D01*
X150732483Y-74919091D01*
X150867331Y-74868796D01*
X150982546Y-74782546D01*
X151068796Y-74667331D01*
X151119091Y-74532483D01*
X151125500Y-74472873D01*
X151125499Y-72847128D01*
X151119091Y-72787517D01*
X151068796Y-72652669D01*
X151068795Y-72652668D01*
X151068793Y-72652664D01*
X150982547Y-72537455D01*
X150982544Y-72537452D01*
X150867335Y-72451206D01*
X150867328Y-72451202D01*
X150732482Y-72400908D01*
X150732483Y-72400908D01*
X150672883Y-72394501D01*
X150672881Y-72394500D01*
X150672873Y-72394500D01*
X150672865Y-72394500D01*
X150609500Y-72394500D01*
X150542461Y-72374815D01*
X150496706Y-72322011D01*
X150485500Y-72270500D01*
X150485500Y-67620452D01*
X150505185Y-67553413D01*
X150521819Y-67532771D01*
X153384772Y-64669819D01*
X153446095Y-64636334D01*
X153472453Y-64633500D01*
X171647548Y-64633500D01*
X171714587Y-64653185D01*
X171735229Y-64669819D01*
X184758181Y-77692771D01*
X184791666Y-77754094D01*
X184794500Y-77780452D01*
X184794500Y-90272201D01*
X184774815Y-90339240D01*
X184741623Y-90373776D01*
X184605377Y-90469175D01*
X184449175Y-90625377D01*
X184322466Y-90806338D01*
X184322465Y-90806340D01*
X184229107Y-91006548D01*
X184229104Y-91006554D01*
X184171930Y-91219929D01*
X184171929Y-91219937D01*
X184152677Y-91439997D01*
X184152677Y-91440002D01*
X184171929Y-91660062D01*
X184171930Y-91660070D01*
X184229104Y-91873445D01*
X184229105Y-91873447D01*
X184229106Y-91873450D01*
X184263868Y-91947997D01*
X184322466Y-92073662D01*
X184322468Y-92073666D01*
X184449170Y-92254615D01*
X184449175Y-92254621D01*
X184605378Y-92410824D01*
X184605384Y-92410829D01*
X184786333Y-92537531D01*
X184786335Y-92537532D01*
X184786338Y-92537534D01*
X184915189Y-92597618D01*
X184915781Y-92597894D01*
X184968220Y-92644066D01*
X184987372Y-92711260D01*
X184967156Y-92778141D01*
X184915781Y-92822658D01*
X184786586Y-92882903D01*
X184721812Y-92928257D01*
X184721811Y-92928258D01*
X185392554Y-93599000D01*
X185388431Y-93599000D01*
X185294579Y-93614661D01*
X185182749Y-93675180D01*
X185096629Y-93768731D01*
X185045552Y-93885177D01*
X185039894Y-93953447D01*
X184368258Y-93281811D01*
X184368257Y-93281812D01*
X184322903Y-93346586D01*
X184229579Y-93546720D01*
X184229575Y-93546729D01*
X184172426Y-93760013D01*
X184172424Y-93760023D01*
X184153179Y-93979999D01*
X184153179Y-93980000D01*
X184172424Y-94199976D01*
X184172426Y-94199986D01*
X184229575Y-94413270D01*
X184229580Y-94413284D01*
X184322899Y-94613407D01*
X184322900Y-94613409D01*
X184368258Y-94678187D01*
X185035096Y-94011349D01*
X185035051Y-94011898D01*
X185066266Y-94135162D01*
X185135813Y-94241612D01*
X185236157Y-94319713D01*
X185356422Y-94361000D01*
X185392553Y-94361000D01*
X184721811Y-95031741D01*
X184786582Y-95077094D01*
X184786588Y-95077098D01*
X184915781Y-95137342D01*
X184968220Y-95183514D01*
X184987372Y-95250708D01*
X184967156Y-95317589D01*
X184915781Y-95362106D01*
X184786340Y-95422465D01*
X184786338Y-95422466D01*
X184605377Y-95549175D01*
X184449175Y-95705377D01*
X184353776Y-95841623D01*
X184299199Y-95885248D01*
X184252201Y-95894500D01*
X182962737Y-95894500D01*
X182947120Y-95892776D01*
X182947093Y-95893062D01*
X182939331Y-95892327D01*
X182870203Y-95894500D01*
X182840650Y-95894500D01*
X182839929Y-95894590D01*
X182833757Y-95895369D01*
X182827945Y-95895826D01*
X182781378Y-95897290D01*
X182781367Y-95897292D01*
X182762134Y-95902879D01*
X182743094Y-95906822D01*
X182723217Y-95909334D01*
X182723210Y-95909335D01*
X182723208Y-95909336D01*
X182723206Y-95909336D01*
X182723205Y-95909337D01*
X182679868Y-95926494D01*
X182674342Y-95928386D01*
X182629611Y-95941382D01*
X182629608Y-95941383D01*
X182612363Y-95951581D01*
X182594901Y-95960135D01*
X182576272Y-95967511D01*
X182576267Y-95967513D01*
X182538564Y-95994906D01*
X182533682Y-95998112D01*
X182493580Y-96021828D01*
X182479408Y-96036000D01*
X182464623Y-96048628D01*
X182448412Y-96060407D01*
X182418709Y-96096310D01*
X182414777Y-96100631D01*
X176734316Y-101781091D01*
X176672993Y-101814576D01*
X176603301Y-101809592D01*
X176547368Y-101767720D01*
X176522951Y-101702256D01*
X176523107Y-101682602D01*
X176530334Y-101600000D01*
X176530334Y-101599998D01*
X176511081Y-101379937D01*
X176511035Y-101379409D01*
X176453723Y-101165520D01*
X176360142Y-100964833D01*
X176233132Y-100783445D01*
X176076555Y-100626868D01*
X175895167Y-100499858D01*
X175771907Y-100442381D01*
X175719468Y-100396210D01*
X175700316Y-100329017D01*
X175720531Y-100262136D01*
X175771908Y-100217618D01*
X175806645Y-100201420D01*
X175895167Y-100160142D01*
X176076555Y-100033132D01*
X176233132Y-99876555D01*
X176360142Y-99695167D01*
X176453723Y-99494480D01*
X176511035Y-99280591D01*
X176530334Y-99060000D01*
X176511035Y-98839409D01*
X176453723Y-98625520D01*
X176360142Y-98424833D01*
X176233132Y-98243445D01*
X176076555Y-98086868D01*
X175895167Y-97959858D01*
X175771907Y-97902381D01*
X175719468Y-97856210D01*
X175700316Y-97789017D01*
X175720531Y-97722136D01*
X175771908Y-97677618D01*
X175781415Y-97673185D01*
X175895167Y-97620142D01*
X176076555Y-97493132D01*
X176233132Y-97336555D01*
X176360142Y-97155167D01*
X176453723Y-96954480D01*
X176511035Y-96740591D01*
X176530334Y-96520000D01*
X176530153Y-96517936D01*
X176521809Y-96422560D01*
X176511035Y-96299409D01*
X176453723Y-96085520D01*
X176360142Y-95884833D01*
X176233132Y-95703445D01*
X176076555Y-95546868D01*
X175895167Y-95419858D01*
X175771907Y-95362381D01*
X175719468Y-95316210D01*
X175700316Y-95249017D01*
X175720531Y-95182136D01*
X175771908Y-95137618D01*
X175781415Y-95133185D01*
X175895167Y-95080142D01*
X176076555Y-94953132D01*
X176233132Y-94796555D01*
X176360142Y-94615167D01*
X176453723Y-94414480D01*
X176511035Y-94200591D01*
X176530334Y-93980000D01*
X176530153Y-93977936D01*
X176521809Y-93882560D01*
X176511035Y-93759409D01*
X176453723Y-93545520D01*
X176360142Y-93344833D01*
X176233132Y-93163445D01*
X176076555Y-93006868D01*
X175895167Y-92879858D01*
X175771907Y-92822381D01*
X175719468Y-92776210D01*
X175700316Y-92709017D01*
X175720531Y-92642136D01*
X175771908Y-92597618D01*
X175781415Y-92593185D01*
X175895167Y-92540142D01*
X176076555Y-92413132D01*
X176233132Y-92256555D01*
X176360142Y-92075167D01*
X176453723Y-91874480D01*
X176511035Y-91660591D01*
X176530334Y-91440000D01*
X176530153Y-91437936D01*
X176521809Y-91342560D01*
X176511035Y-91219409D01*
X176453723Y-91005520D01*
X176360142Y-90804833D01*
X176233132Y-90623445D01*
X176076555Y-90466868D01*
X175895167Y-90339858D01*
X175771907Y-90282381D01*
X175719468Y-90236210D01*
X175700316Y-90169017D01*
X175720531Y-90102136D01*
X175771908Y-90057618D01*
X175781415Y-90053185D01*
X175895167Y-90000142D01*
X176076555Y-89873132D01*
X176233132Y-89716555D01*
X176360142Y-89535167D01*
X176453723Y-89334480D01*
X176511035Y-89120591D01*
X176530334Y-88900000D01*
X176530153Y-88897936D01*
X176521809Y-88802560D01*
X176511035Y-88679409D01*
X176453723Y-88465520D01*
X176360142Y-88264833D01*
X176233132Y-88083445D01*
X176076555Y-87926868D01*
X175895167Y-87799858D01*
X175771907Y-87742381D01*
X175719468Y-87696210D01*
X175700316Y-87629017D01*
X175720531Y-87562136D01*
X175771908Y-87517618D01*
X175781415Y-87513185D01*
X175895167Y-87460142D01*
X176076555Y-87333132D01*
X176233132Y-87176555D01*
X176360142Y-86995167D01*
X176453723Y-86794480D01*
X176511035Y-86580591D01*
X176530334Y-86360000D01*
X176530153Y-86357936D01*
X176521809Y-86262560D01*
X176511035Y-86139409D01*
X176453723Y-85925520D01*
X176360142Y-85724833D01*
X176233132Y-85543445D01*
X176076555Y-85386868D01*
X175895167Y-85259858D01*
X175771907Y-85202381D01*
X175719468Y-85156210D01*
X175700316Y-85089017D01*
X175720531Y-85022136D01*
X175771908Y-84977618D01*
X175781415Y-84973185D01*
X175895167Y-84920142D01*
X176076555Y-84793132D01*
X176233132Y-84636555D01*
X176360142Y-84455167D01*
X176453723Y-84254480D01*
X176511035Y-84040591D01*
X176530334Y-83820000D01*
X176530153Y-83817936D01*
X176521809Y-83722560D01*
X176511035Y-83599409D01*
X176453723Y-83385520D01*
X176360142Y-83184833D01*
X176233132Y-83003445D01*
X176076555Y-82846868D01*
X175895167Y-82719858D01*
X175771907Y-82662381D01*
X175719468Y-82616210D01*
X175700316Y-82549017D01*
X175720531Y-82482136D01*
X175771908Y-82437618D01*
X175781415Y-82433185D01*
X175895167Y-82380142D01*
X176076555Y-82253132D01*
X176233132Y-82096555D01*
X176360142Y-81915167D01*
X176453723Y-81714480D01*
X176511035Y-81500591D01*
X176530334Y-81280000D01*
X176530153Y-81277936D01*
X176521809Y-81182560D01*
X176511035Y-81059409D01*
X176453723Y-80845520D01*
X176360142Y-80644833D01*
X176233132Y-80463445D01*
X176076555Y-80306868D01*
X175895167Y-80179858D01*
X175771907Y-80122381D01*
X175719468Y-80076210D01*
X175700316Y-80009017D01*
X175720531Y-79942136D01*
X175771908Y-79897618D01*
X175895167Y-79840142D01*
X176076555Y-79713132D01*
X176233132Y-79556555D01*
X176360142Y-79375167D01*
X176453723Y-79174480D01*
X176511035Y-78960591D01*
X176530334Y-78740000D01*
X176511035Y-78519409D01*
X176453723Y-78305520D01*
X176360142Y-78104833D01*
X176233132Y-77923445D01*
X176076555Y-77766868D01*
X175895167Y-77639858D01*
X175771907Y-77582381D01*
X175719468Y-77536210D01*
X175700316Y-77469017D01*
X175720531Y-77402136D01*
X175771908Y-77357618D01*
X175783647Y-77352144D01*
X175895167Y-77300142D01*
X176076555Y-77173132D01*
X176233132Y-77016555D01*
X176360142Y-76835167D01*
X176453723Y-76634480D01*
X176511035Y-76420591D01*
X176530334Y-76200000D01*
X176511035Y-75979409D01*
X176453723Y-75765520D01*
X176360142Y-75564833D01*
X176233132Y-75383445D01*
X176076555Y-75226868D01*
X175895167Y-75099858D01*
X175895163Y-75099856D01*
X175771317Y-75042106D01*
X175718877Y-74995934D01*
X175699725Y-74928741D01*
X175719941Y-74861859D01*
X175771317Y-74817342D01*
X175894912Y-74759708D01*
X175894914Y-74759707D01*
X175960342Y-74713894D01*
X175401366Y-74154918D01*
X175405161Y-74154373D01*
X175538562Y-74093451D01*
X175649395Y-73997413D01*
X175728682Y-73874040D01*
X175751133Y-73797580D01*
X176313894Y-74360342D01*
X176359706Y-74294915D01*
X176453250Y-74094309D01*
X176453254Y-74094300D01*
X176510538Y-73880509D01*
X176510540Y-73880499D01*
X176529832Y-73660000D01*
X176529832Y-73659999D01*
X176510540Y-73439500D01*
X176510538Y-73439490D01*
X176453254Y-73225699D01*
X176453250Y-73225690D01*
X176359707Y-73025085D01*
X176359706Y-73025083D01*
X176313894Y-72959657D01*
X176313894Y-72959656D01*
X175751132Y-73522418D01*
X175728682Y-73445960D01*
X175649395Y-73322587D01*
X175538562Y-73226549D01*
X175405161Y-73165627D01*
X175401366Y-73165081D01*
X175960342Y-72606105D01*
X175960341Y-72606103D01*
X175894919Y-72560295D01*
X175694309Y-72466749D01*
X175694300Y-72466745D01*
X175480509Y-72409461D01*
X175480499Y-72409459D01*
X175260001Y-72390168D01*
X175259999Y-72390168D01*
X175039500Y-72409459D01*
X175039490Y-72409461D01*
X174825699Y-72466745D01*
X174825690Y-72466749D01*
X174625084Y-72560293D01*
X174559657Y-72606104D01*
X175118634Y-73165081D01*
X175114839Y-73165627D01*
X174981438Y-73226549D01*
X174870605Y-73322587D01*
X174791318Y-73445960D01*
X174768866Y-73522419D01*
X174206104Y-72959657D01*
X174160293Y-73025084D01*
X174066749Y-73225690D01*
X174066745Y-73225699D01*
X174009461Y-73439490D01*
X174009459Y-73439500D01*
X173990168Y-73659999D01*
X173990168Y-73660000D01*
X174009459Y-73880499D01*
X174009461Y-73880509D01*
X174066745Y-74094300D01*
X174066749Y-74094309D01*
X174160295Y-74294919D01*
X174206103Y-74360341D01*
X174206105Y-74360342D01*
X174768866Y-73797580D01*
X174791318Y-73874040D01*
X174870605Y-73997413D01*
X174981438Y-74093451D01*
X175114839Y-74154373D01*
X175118633Y-74154918D01*
X174559656Y-74713894D01*
X174625083Y-74759706D01*
X174625085Y-74759707D01*
X174748683Y-74817342D01*
X174801122Y-74863514D01*
X174820274Y-74930708D01*
X174800058Y-74997589D01*
X174748683Y-75042106D01*
X174624833Y-75099857D01*
X174443444Y-75226868D01*
X174286868Y-75383444D01*
X174159857Y-75564834D01*
X174159856Y-75564836D01*
X174066279Y-75765513D01*
X174066275Y-75765524D01*
X174008965Y-75979407D01*
X174008964Y-75979414D01*
X173989666Y-76199998D01*
X173989666Y-76200001D01*
X174008964Y-76420585D01*
X174008965Y-76420592D01*
X174066275Y-76634475D01*
X174066279Y-76634486D01*
X174159856Y-76835163D01*
X174159858Y-76835167D01*
X174286868Y-77016555D01*
X174443445Y-77173132D01*
X174624833Y-77300142D01*
X174686828Y-77329050D01*
X174748091Y-77357618D01*
X174800531Y-77403790D01*
X174819683Y-77470983D01*
X174799467Y-77537865D01*
X174748091Y-77582382D01*
X174624836Y-77639856D01*
X174624834Y-77639857D01*
X174443444Y-77766868D01*
X174286868Y-77923444D01*
X174159857Y-78104834D01*
X174159856Y-78104836D01*
X174066279Y-78305513D01*
X174066275Y-78305524D01*
X174008965Y-78519407D01*
X174008964Y-78519414D01*
X173989666Y-78739998D01*
X173989666Y-78740001D01*
X174008964Y-78960585D01*
X174008965Y-78960592D01*
X174066275Y-79174475D01*
X174066279Y-79174486D01*
X174159856Y-79375163D01*
X174159858Y-79375167D01*
X174286868Y-79556555D01*
X174443445Y-79713132D01*
X174624833Y-79840142D01*
X174686828Y-79869050D01*
X174748091Y-79897618D01*
X174800531Y-79943790D01*
X174819683Y-80010983D01*
X174799467Y-80077865D01*
X174748091Y-80122382D01*
X174624836Y-80179856D01*
X174624834Y-80179857D01*
X174443444Y-80306868D01*
X174286868Y-80463444D01*
X174159857Y-80644834D01*
X174159856Y-80644836D01*
X174066279Y-80845513D01*
X174066275Y-80845524D01*
X174008965Y-81059407D01*
X174008964Y-81059414D01*
X173989666Y-81279998D01*
X173989666Y-81280001D01*
X174008964Y-81500585D01*
X174008965Y-81500592D01*
X174066275Y-81714475D01*
X174066279Y-81714486D01*
X174159856Y-81915163D01*
X174159858Y-81915167D01*
X174286868Y-82096555D01*
X174443445Y-82253132D01*
X174624833Y-82380142D01*
X174686828Y-82409050D01*
X174748091Y-82437618D01*
X174800531Y-82483790D01*
X174819683Y-82550983D01*
X174799467Y-82617865D01*
X174748091Y-82662382D01*
X174624836Y-82719856D01*
X174624834Y-82719857D01*
X174443444Y-82846868D01*
X174286868Y-83003444D01*
X174159857Y-83184834D01*
X174159856Y-83184836D01*
X174066279Y-83385513D01*
X174066275Y-83385524D01*
X174008965Y-83599407D01*
X174008964Y-83599414D01*
X173989666Y-83819998D01*
X173989666Y-83820001D01*
X174008964Y-84040585D01*
X174008965Y-84040592D01*
X174066275Y-84254475D01*
X174066279Y-84254486D01*
X174159856Y-84455163D01*
X174159858Y-84455167D01*
X174286868Y-84636555D01*
X174443445Y-84793132D01*
X174624833Y-84920142D01*
X174668974Y-84940725D01*
X174748091Y-84977618D01*
X174800531Y-85023790D01*
X174819683Y-85090983D01*
X174799467Y-85157865D01*
X174748091Y-85202382D01*
X174624836Y-85259856D01*
X174624834Y-85259857D01*
X174443444Y-85386868D01*
X174286868Y-85543444D01*
X174159857Y-85724834D01*
X174159856Y-85724836D01*
X174066279Y-85925513D01*
X174066275Y-85925524D01*
X174008965Y-86139407D01*
X174008964Y-86139414D01*
X173989666Y-86359998D01*
X173989666Y-86360001D01*
X174008964Y-86580585D01*
X174008965Y-86580592D01*
X174066275Y-86794475D01*
X174066279Y-86794486D01*
X174144776Y-86962823D01*
X174159858Y-86995167D01*
X174286868Y-87176555D01*
X174443445Y-87333132D01*
X174624833Y-87460142D01*
X174686828Y-87489050D01*
X174748091Y-87517618D01*
X174800531Y-87563790D01*
X174819683Y-87630983D01*
X174799467Y-87697865D01*
X174748091Y-87742382D01*
X174624836Y-87799856D01*
X174624834Y-87799857D01*
X174443444Y-87926868D01*
X174286868Y-88083444D01*
X174159857Y-88264834D01*
X174159856Y-88264836D01*
X174066279Y-88465513D01*
X174066275Y-88465524D01*
X174008965Y-88679407D01*
X174008964Y-88679414D01*
X173989666Y-88899998D01*
X173989666Y-88900001D01*
X174008964Y-89120585D01*
X174008965Y-89120592D01*
X174066275Y-89334475D01*
X174066279Y-89334486D01*
X174159856Y-89535163D01*
X174159858Y-89535167D01*
X174286868Y-89716555D01*
X174443445Y-89873132D01*
X174624833Y-90000142D01*
X174686828Y-90029050D01*
X174748091Y-90057618D01*
X174800531Y-90103790D01*
X174819683Y-90170983D01*
X174799467Y-90237865D01*
X174748091Y-90282382D01*
X174624836Y-90339856D01*
X174624834Y-90339857D01*
X174443444Y-90466868D01*
X174286868Y-90623444D01*
X174159857Y-90804834D01*
X174159856Y-90804836D01*
X174066279Y-91005513D01*
X174066275Y-91005524D01*
X174008965Y-91219407D01*
X174008964Y-91219414D01*
X173989666Y-91439998D01*
X173989666Y-91440001D01*
X174008964Y-91660585D01*
X174008965Y-91660592D01*
X174066275Y-91874475D01*
X174066279Y-91874486D01*
X174159156Y-92073662D01*
X174159858Y-92075167D01*
X174286868Y-92256555D01*
X174443445Y-92413132D01*
X174624833Y-92540142D01*
X174686828Y-92569050D01*
X174748091Y-92597618D01*
X174800531Y-92643790D01*
X174819683Y-92710983D01*
X174799467Y-92777865D01*
X174748091Y-92822382D01*
X174624836Y-92879856D01*
X174624834Y-92879857D01*
X174443444Y-93006868D01*
X174286868Y-93163444D01*
X174159857Y-93344834D01*
X174159856Y-93344836D01*
X174066279Y-93545513D01*
X174066275Y-93545524D01*
X174008965Y-93759407D01*
X174008964Y-93759414D01*
X173989666Y-93979998D01*
X173989666Y-93980001D01*
X174008964Y-94200585D01*
X174008965Y-94200592D01*
X174066275Y-94414475D01*
X174066279Y-94414486D01*
X174159037Y-94613407D01*
X174159858Y-94615167D01*
X174286868Y-94796555D01*
X174443445Y-94953132D01*
X174624833Y-95080142D01*
X174686828Y-95109050D01*
X174748091Y-95137618D01*
X174800531Y-95183790D01*
X174819683Y-95250983D01*
X174799467Y-95317865D01*
X174748091Y-95362382D01*
X174624836Y-95419856D01*
X174624834Y-95419857D01*
X174443444Y-95546868D01*
X174286868Y-95703444D01*
X174159857Y-95884834D01*
X174159856Y-95884836D01*
X174066279Y-96085513D01*
X174066275Y-96085524D01*
X174008965Y-96299407D01*
X174008964Y-96299414D01*
X173989666Y-96519998D01*
X173989666Y-96520001D01*
X174008964Y-96740585D01*
X174008965Y-96740592D01*
X174066275Y-96954475D01*
X174066279Y-96954486D01*
X174155350Y-97145500D01*
X174159858Y-97155167D01*
X174286868Y-97336555D01*
X174443445Y-97493132D01*
X174624833Y-97620142D01*
X174686828Y-97649050D01*
X174748091Y-97677618D01*
X174800531Y-97723790D01*
X174819683Y-97790983D01*
X174799467Y-97857865D01*
X174748091Y-97902382D01*
X174624836Y-97959856D01*
X174624834Y-97959857D01*
X174443444Y-98086868D01*
X174286868Y-98243444D01*
X174159857Y-98424834D01*
X174159856Y-98424836D01*
X174066279Y-98625513D01*
X174066275Y-98625524D01*
X174008965Y-98839407D01*
X174008964Y-98839414D01*
X173989666Y-99059998D01*
X173989666Y-99060001D01*
X174008964Y-99280585D01*
X174008965Y-99280592D01*
X174066275Y-99494475D01*
X174066279Y-99494486D01*
X174144776Y-99662823D01*
X174159858Y-99695167D01*
X174286868Y-99876555D01*
X174443445Y-100033132D01*
X174624833Y-100160142D01*
X174686828Y-100189050D01*
X174748091Y-100217618D01*
X174800531Y-100263790D01*
X174819683Y-100330983D01*
X174799467Y-100397865D01*
X174748091Y-100442382D01*
X174624836Y-100499856D01*
X174624834Y-100499857D01*
X174443444Y-100626868D01*
X174286868Y-100783444D01*
X174159857Y-100964834D01*
X174159856Y-100964836D01*
X174066279Y-101165513D01*
X174066275Y-101165524D01*
X174008965Y-101379407D01*
X174008964Y-101379414D01*
X173989666Y-101599998D01*
X173989666Y-101600001D01*
X174008964Y-101820585D01*
X174008965Y-101820592D01*
X174066275Y-102034475D01*
X174066279Y-102034486D01*
X174159156Y-102233662D01*
X174159858Y-102235167D01*
X174286868Y-102416555D01*
X174443445Y-102573132D01*
X174624833Y-102700142D01*
X174686828Y-102729050D01*
X174748091Y-102757618D01*
X174800531Y-102803790D01*
X174819683Y-102870983D01*
X174799467Y-102937865D01*
X174748091Y-102982382D01*
X174624836Y-103039856D01*
X174624834Y-103039857D01*
X174443444Y-103166868D01*
X174286868Y-103323444D01*
X174159857Y-103504834D01*
X174159856Y-103504836D01*
X174066279Y-103705513D01*
X174066275Y-103705524D01*
X174008965Y-103919407D01*
X174008964Y-103919414D01*
X173989666Y-104139998D01*
X173989666Y-104140001D01*
X174008964Y-104360585D01*
X174008965Y-104360592D01*
X174066275Y-104574475D01*
X174066279Y-104574486D01*
X174090047Y-104625456D01*
X174159858Y-104775167D01*
X174286868Y-104956555D01*
X174443445Y-105113132D01*
X174624833Y-105240142D01*
X174686828Y-105269050D01*
X174748091Y-105297618D01*
X174800531Y-105343790D01*
X174819683Y-105410983D01*
X174799467Y-105477865D01*
X174748091Y-105522382D01*
X174624836Y-105579856D01*
X174624834Y-105579857D01*
X174443444Y-105706868D01*
X174286868Y-105863444D01*
X174159857Y-106044834D01*
X174159856Y-106044836D01*
X174066279Y-106245513D01*
X174066275Y-106245524D01*
X174008965Y-106459407D01*
X174008964Y-106459414D01*
X173989666Y-106679998D01*
X173989666Y-106680001D01*
X174008964Y-106900585D01*
X174008965Y-106900592D01*
X174066275Y-107114475D01*
X174066279Y-107114486D01*
X174159156Y-107313662D01*
X174159858Y-107315167D01*
X174286868Y-107496555D01*
X174443445Y-107653132D01*
X174624833Y-107780142D01*
X174686828Y-107809050D01*
X174748091Y-107837618D01*
X174800531Y-107883790D01*
X174819683Y-107950983D01*
X174799467Y-108017865D01*
X174748091Y-108062382D01*
X174624836Y-108119856D01*
X174624834Y-108119857D01*
X174443444Y-108246868D01*
X174286868Y-108403444D01*
X174159857Y-108584834D01*
X174159856Y-108584836D01*
X174066279Y-108785513D01*
X174066275Y-108785524D01*
X174008965Y-108999407D01*
X174008964Y-108999414D01*
X173989666Y-109219998D01*
X173989666Y-109220001D01*
X174008964Y-109440585D01*
X174008965Y-109440592D01*
X174066275Y-109654475D01*
X174066279Y-109654486D01*
X174155350Y-109845500D01*
X174159858Y-109855167D01*
X174286868Y-110036555D01*
X174443445Y-110193132D01*
X174624833Y-110320142D01*
X174686828Y-110349050D01*
X174748091Y-110377618D01*
X174800531Y-110423790D01*
X174819683Y-110490983D01*
X174799467Y-110557865D01*
X174748091Y-110602382D01*
X174624836Y-110659856D01*
X174624834Y-110659857D01*
X174443444Y-110786868D01*
X174286868Y-110943444D01*
X174159857Y-111124834D01*
X174159856Y-111124836D01*
X174066279Y-111325513D01*
X174066275Y-111325524D01*
X174008965Y-111539407D01*
X174008964Y-111539414D01*
X173989666Y-111759998D01*
X173989666Y-111760001D01*
X174008964Y-111980585D01*
X174008965Y-111980592D01*
X174066275Y-112194475D01*
X174066279Y-112194486D01*
X174159856Y-112395163D01*
X174159858Y-112395167D01*
X174286868Y-112576555D01*
X174443445Y-112733132D01*
X174624833Y-112860142D01*
X174686828Y-112889050D01*
X174748091Y-112917618D01*
X174800531Y-112963790D01*
X174819683Y-113030983D01*
X174799467Y-113097865D01*
X174748091Y-113142382D01*
X174624836Y-113199856D01*
X174624834Y-113199857D01*
X174443444Y-113326868D01*
X174286868Y-113483444D01*
X174159857Y-113664834D01*
X174159856Y-113664836D01*
X174066279Y-113865513D01*
X174066275Y-113865524D01*
X174008965Y-114079407D01*
X174008964Y-114079414D01*
X173989666Y-114299998D01*
X173989666Y-114300001D01*
X174008964Y-114520585D01*
X174008965Y-114520592D01*
X174066275Y-114734475D01*
X174066279Y-114734486D01*
X174159856Y-114935163D01*
X174159858Y-114935167D01*
X174286868Y-115116555D01*
X174443445Y-115273132D01*
X174624833Y-115400142D01*
X174686828Y-115429050D01*
X174748091Y-115457618D01*
X174800531Y-115503790D01*
X174819683Y-115570983D01*
X174799467Y-115637865D01*
X174748091Y-115682382D01*
X174624836Y-115739856D01*
X174624834Y-115739857D01*
X174443444Y-115866868D01*
X174286868Y-116023444D01*
X174159857Y-116204834D01*
X174159856Y-116204836D01*
X174066279Y-116405513D01*
X174066275Y-116405524D01*
X174008965Y-116619407D01*
X174008964Y-116619414D01*
X173989666Y-116839998D01*
X173989666Y-116840001D01*
X174008964Y-117060585D01*
X174008965Y-117060592D01*
X174066275Y-117274475D01*
X174066279Y-117274486D01*
X174159856Y-117475163D01*
X174159858Y-117475167D01*
X174286868Y-117656555D01*
X174443445Y-117813132D01*
X174624833Y-117940142D01*
X174686828Y-117969050D01*
X174748091Y-117997618D01*
X174800531Y-118043790D01*
X174819683Y-118110983D01*
X174799467Y-118177865D01*
X174748091Y-118222382D01*
X174624836Y-118279856D01*
X174624834Y-118279857D01*
X174443444Y-118406868D01*
X174286868Y-118563444D01*
X174159857Y-118744834D01*
X174159856Y-118744836D01*
X174066279Y-118945513D01*
X174066275Y-118945524D01*
X174008965Y-119159407D01*
X174008964Y-119159414D01*
X173989666Y-119379998D01*
X173989666Y-119380001D01*
X174008964Y-119600585D01*
X174008965Y-119600592D01*
X174066275Y-119814475D01*
X174066279Y-119814486D01*
X174137023Y-119966197D01*
X174159858Y-120015167D01*
X174286868Y-120196555D01*
X174443445Y-120353132D01*
X174624833Y-120480142D01*
X174740968Y-120534296D01*
X174825513Y-120573720D01*
X174825515Y-120573720D01*
X174825520Y-120573723D01*
X175039409Y-120631035D01*
X175196974Y-120644820D01*
X175259998Y-120650334D01*
X175260000Y-120650334D01*
X175260002Y-120650334D01*
X175315147Y-120645509D01*
X175480591Y-120631035D01*
X175694480Y-120573723D01*
X175895167Y-120480142D01*
X176076555Y-120353132D01*
X176233132Y-120196555D01*
X176360142Y-120015167D01*
X176453723Y-119814480D01*
X176511035Y-119600591D01*
X176530334Y-119380000D01*
X176511035Y-119159409D01*
X176453723Y-118945520D01*
X176360142Y-118744833D01*
X176233132Y-118563445D01*
X176076555Y-118406868D01*
X175895167Y-118279858D01*
X175771907Y-118222381D01*
X175719468Y-118176210D01*
X175700316Y-118109017D01*
X175720531Y-118042136D01*
X175771908Y-117997618D01*
X175895167Y-117940142D01*
X176076555Y-117813132D01*
X176233132Y-117656555D01*
X176360142Y-117475167D01*
X176453723Y-117274480D01*
X176511035Y-117060591D01*
X176530334Y-116840000D01*
X176511035Y-116619409D01*
X176453723Y-116405520D01*
X176360142Y-116204833D01*
X176233132Y-116023445D01*
X176076555Y-115866868D01*
X175895167Y-115739858D01*
X175771907Y-115682381D01*
X175719468Y-115636210D01*
X175700316Y-115569017D01*
X175720531Y-115502136D01*
X175771908Y-115457618D01*
X175895167Y-115400142D01*
X176076555Y-115273132D01*
X176233132Y-115116555D01*
X176360142Y-114935167D01*
X176453723Y-114734480D01*
X176511035Y-114520591D01*
X176530334Y-114300000D01*
X176511035Y-114079409D01*
X176453723Y-113865520D01*
X176360142Y-113664833D01*
X176233132Y-113483445D01*
X176076555Y-113326868D01*
X175895167Y-113199858D01*
X175771907Y-113142381D01*
X175719468Y-113096210D01*
X175700316Y-113029017D01*
X175720531Y-112962136D01*
X175771908Y-112917618D01*
X175895167Y-112860142D01*
X176076555Y-112733132D01*
X176233132Y-112576555D01*
X176360142Y-112395167D01*
X176453723Y-112194480D01*
X176511035Y-111980591D01*
X176530334Y-111760000D01*
X176511035Y-111539409D01*
X176453723Y-111325520D01*
X176360142Y-111124833D01*
X176233132Y-110943445D01*
X176076555Y-110786868D01*
X175895167Y-110659858D01*
X175771907Y-110602381D01*
X175719468Y-110556210D01*
X175700316Y-110489017D01*
X175720531Y-110422136D01*
X175771908Y-110377618D01*
X175895167Y-110320142D01*
X176076555Y-110193132D01*
X176233132Y-110036555D01*
X176329887Y-109898374D01*
X176384463Y-109854751D01*
X176431461Y-109845500D01*
X184252200Y-109845500D01*
X184319239Y-109865185D01*
X184353775Y-109898376D01*
X184449174Y-110034620D01*
X184449175Y-110034621D01*
X184605378Y-110190824D01*
X184605384Y-110190829D01*
X184786333Y-110317531D01*
X184786335Y-110317532D01*
X184786338Y-110317534D01*
X184986550Y-110410894D01*
X185199932Y-110468070D01*
X185357123Y-110481822D01*
X185419998Y-110487323D01*
X185420000Y-110487323D01*
X185420002Y-110487323D01*
X185475017Y-110482509D01*
X185640068Y-110468070D01*
X185853450Y-110410894D01*
X186053662Y-110317534D01*
X186234620Y-110190826D01*
X186390826Y-110034620D01*
X186517534Y-109853662D01*
X186610894Y-109653450D01*
X186668070Y-109440068D01*
X186687323Y-109220000D01*
X186668070Y-108999932D01*
X186610894Y-108786550D01*
X186517534Y-108586339D01*
X186390826Y-108405380D01*
X186234620Y-108249174D01*
X186234616Y-108249171D01*
X186234615Y-108249170D01*
X186053666Y-108122468D01*
X186053658Y-108122464D01*
X185924811Y-108062382D01*
X185872371Y-108016210D01*
X185853219Y-107949017D01*
X185873435Y-107882135D01*
X185924811Y-107837618D01*
X185930802Y-107834824D01*
X186053662Y-107777534D01*
X186234620Y-107650826D01*
X186390826Y-107494620D01*
X186517534Y-107313662D01*
X186610894Y-107113450D01*
X186668070Y-106900068D01*
X186687323Y-106680000D01*
X186668070Y-106459932D01*
X186610894Y-106246550D01*
X186517534Y-106046339D01*
X186390826Y-105865380D01*
X186234620Y-105709174D01*
X186234616Y-105709171D01*
X186234615Y-105709170D01*
X186053666Y-105582468D01*
X186053658Y-105582464D01*
X185924811Y-105522382D01*
X185872371Y-105476210D01*
X185853219Y-105409017D01*
X185873435Y-105342135D01*
X185924811Y-105297618D01*
X185930802Y-105294824D01*
X186053662Y-105237534D01*
X186234620Y-105110826D01*
X186390826Y-104954620D01*
X186517534Y-104773662D01*
X186610894Y-104573450D01*
X186668070Y-104360068D01*
X186687323Y-104140000D01*
X186684532Y-104108102D01*
X186673748Y-103984838D01*
X186668070Y-103919932D01*
X186610894Y-103706550D01*
X186517534Y-103506339D01*
X186390826Y-103325380D01*
X186234620Y-103169174D01*
X186234616Y-103169171D01*
X186234615Y-103169170D01*
X186053666Y-103042468D01*
X186053658Y-103042464D01*
X185924811Y-102982382D01*
X185872371Y-102936210D01*
X185853219Y-102869017D01*
X185873435Y-102802135D01*
X185924811Y-102757618D01*
X185930802Y-102754824D01*
X186053662Y-102697534D01*
X186234620Y-102570826D01*
X186390826Y-102414620D01*
X186517534Y-102233662D01*
X186610894Y-102033450D01*
X186668070Y-101820068D01*
X186687323Y-101600000D01*
X186668070Y-101379932D01*
X186610894Y-101166550D01*
X186517534Y-100966339D01*
X186390826Y-100785380D01*
X186234620Y-100629174D01*
X186234616Y-100629171D01*
X186234615Y-100629170D01*
X186053666Y-100502468D01*
X186053658Y-100502464D01*
X185924811Y-100442382D01*
X185872371Y-100396210D01*
X185853219Y-100329017D01*
X185873435Y-100262135D01*
X185924811Y-100217618D01*
X185930802Y-100214824D01*
X186053662Y-100157534D01*
X186234620Y-100030826D01*
X186390826Y-99874620D01*
X186517534Y-99693662D01*
X186610894Y-99493450D01*
X186668070Y-99280068D01*
X186687323Y-99060000D01*
X186668070Y-98839932D01*
X186610894Y-98626550D01*
X186517534Y-98426339D01*
X186412315Y-98276069D01*
X186390827Y-98245381D01*
X186331340Y-98185894D01*
X186234620Y-98089174D01*
X186234616Y-98089171D01*
X186234615Y-98089170D01*
X186053666Y-97962468D01*
X186053658Y-97962464D01*
X185924811Y-97902382D01*
X185872371Y-97856210D01*
X185853219Y-97789017D01*
X185873435Y-97722135D01*
X185924811Y-97677618D01*
X185930802Y-97674824D01*
X186053662Y-97617534D01*
X186234620Y-97490826D01*
X186390826Y-97334620D01*
X186517534Y-97153662D01*
X186610894Y-96953450D01*
X186668070Y-96740068D01*
X186687323Y-96520000D01*
X186687142Y-96517936D01*
X186668070Y-96299937D01*
X186668070Y-96299932D01*
X186610894Y-96086550D01*
X186517534Y-95886339D01*
X186428360Y-95758984D01*
X186390827Y-95705381D01*
X186331064Y-95645618D01*
X186234620Y-95549174D01*
X186234616Y-95549171D01*
X186234615Y-95549170D01*
X186053666Y-95422468D01*
X186053658Y-95422464D01*
X185924219Y-95362106D01*
X185871779Y-95315934D01*
X185852627Y-95248741D01*
X185872843Y-95181859D01*
X185924219Y-95137342D01*
X186053408Y-95077100D01*
X186053420Y-95077093D01*
X186118186Y-95031742D01*
X186118187Y-95031740D01*
X185447448Y-94361000D01*
X185451569Y-94361000D01*
X185545421Y-94345339D01*
X185657251Y-94284820D01*
X185743371Y-94191269D01*
X185794448Y-94074823D01*
X185800105Y-94006552D01*
X186471740Y-94678187D01*
X186471742Y-94678186D01*
X186517093Y-94613420D01*
X186517100Y-94613408D01*
X186610419Y-94413284D01*
X186610424Y-94413270D01*
X186667573Y-94199986D01*
X186667575Y-94199976D01*
X186686821Y-93980000D01*
X186686821Y-93979999D01*
X186667575Y-93760023D01*
X186667573Y-93760013D01*
X186610424Y-93546729D01*
X186610420Y-93546720D01*
X186517098Y-93346590D01*
X186471740Y-93281811D01*
X185804903Y-93948648D01*
X185804949Y-93948102D01*
X185773734Y-93824838D01*
X185704187Y-93718388D01*
X185603843Y-93640287D01*
X185483578Y-93599000D01*
X185447447Y-93599000D01*
X186118187Y-92928258D01*
X186053409Y-92882900D01*
X186053407Y-92882899D01*
X185924219Y-92822658D01*
X185871779Y-92776486D01*
X185852627Y-92709293D01*
X185872843Y-92642411D01*
X185924219Y-92597894D01*
X185924811Y-92597618D01*
X186053662Y-92537534D01*
X186234620Y-92410826D01*
X186390826Y-92254620D01*
X186517534Y-92073662D01*
X186610894Y-91873450D01*
X186668070Y-91660068D01*
X186687323Y-91440000D01*
X186687142Y-91437936D01*
X186668070Y-91219937D01*
X186668070Y-91219932D01*
X186610894Y-91006550D01*
X186517534Y-90806339D01*
X186428360Y-90678984D01*
X186390827Y-90625381D01*
X186331064Y-90565618D01*
X186234620Y-90469174D01*
X186098376Y-90373775D01*
X186054752Y-90319198D01*
X186045500Y-90272200D01*
X186045500Y-77552742D01*
X186047224Y-77537122D01*
X186046939Y-77537096D01*
X186047671Y-77529340D01*
X186047673Y-77529333D01*
X186045500Y-77460185D01*
X186045500Y-77430650D01*
X186044631Y-77423772D01*
X186044172Y-77417943D01*
X186042709Y-77371372D01*
X186037122Y-77352144D01*
X186033174Y-77333084D01*
X186030663Y-77313204D01*
X186013512Y-77269887D01*
X186011619Y-77264358D01*
X185998618Y-77219609D01*
X185998616Y-77219606D01*
X185988423Y-77202371D01*
X185979861Y-77184894D01*
X185972487Y-77166270D01*
X185972486Y-77166268D01*
X185945079Y-77128545D01*
X185941888Y-77123686D01*
X185918172Y-77083583D01*
X185918165Y-77083574D01*
X185904006Y-77069415D01*
X185891368Y-77054619D01*
X185879594Y-77038413D01*
X185843688Y-77008709D01*
X185839376Y-77004786D01*
X172458803Y-63624212D01*
X172448980Y-63611950D01*
X172448759Y-63612134D01*
X172443786Y-63606123D01*
X172425159Y-63588631D01*
X172393364Y-63558773D01*
X172382919Y-63548328D01*
X172372475Y-63537883D01*
X172366986Y-63533625D01*
X172362561Y-63529847D01*
X172328582Y-63497938D01*
X172328580Y-63497936D01*
X172328577Y-63497935D01*
X172311029Y-63488288D01*
X172294763Y-63477604D01*
X172278933Y-63465325D01*
X172236168Y-63446818D01*
X172230922Y-63444248D01*
X172190093Y-63421803D01*
X172190092Y-63421802D01*
X172170693Y-63416822D01*
X172152281Y-63410518D01*
X172133898Y-63402562D01*
X172133892Y-63402560D01*
X172087874Y-63395272D01*
X172082152Y-63394087D01*
X172037021Y-63382500D01*
X172037019Y-63382500D01*
X172016984Y-63382500D01*
X171997586Y-63380973D01*
X171990162Y-63379797D01*
X171977805Y-63377840D01*
X171977804Y-63377840D01*
X171931416Y-63382225D01*
X171925578Y-63382500D01*
X153244737Y-63382500D01*
X153229120Y-63380776D01*
X153229093Y-63381062D01*
X153221331Y-63380327D01*
X153152203Y-63382500D01*
X153122650Y-63382500D01*
X153121929Y-63382590D01*
X153115757Y-63383369D01*
X153109945Y-63383826D01*
X153063373Y-63385290D01*
X153063372Y-63385290D01*
X153044129Y-63390881D01*
X153025079Y-63394825D01*
X153005211Y-63397334D01*
X153005209Y-63397335D01*
X152961884Y-63414488D01*
X152956357Y-63416380D01*
X152911610Y-63429381D01*
X152911609Y-63429382D01*
X152894367Y-63439579D01*
X152876899Y-63448137D01*
X152858269Y-63455513D01*
X152858267Y-63455514D01*
X152820576Y-63482898D01*
X152815694Y-63486105D01*
X152775579Y-63509830D01*
X152761408Y-63524000D01*
X152746623Y-63536628D01*
X152730412Y-63548407D01*
X152700709Y-63584310D01*
X152696777Y-63588631D01*
X149476208Y-66809199D01*
X149463951Y-66819020D01*
X149464134Y-66819241D01*
X149458123Y-66824213D01*
X149410772Y-66874636D01*
X149389889Y-66895519D01*
X149389877Y-66895532D01*
X149385621Y-66901017D01*
X149381837Y-66905447D01*
X149349937Y-66939418D01*
X149349936Y-66939420D01*
X149340284Y-66956976D01*
X149329610Y-66973226D01*
X149317329Y-66989061D01*
X149317324Y-66989068D01*
X149298815Y-67031838D01*
X149296245Y-67037084D01*
X149273803Y-67077906D01*
X149268822Y-67097307D01*
X149262521Y-67115710D01*
X149254562Y-67134102D01*
X149254561Y-67134105D01*
X149247271Y-67180127D01*
X149246087Y-67185846D01*
X149234501Y-67230972D01*
X149234500Y-67230982D01*
X149234500Y-67251016D01*
X149232973Y-67270415D01*
X149229840Y-67290194D01*
X149229840Y-67290195D01*
X149234225Y-67336583D01*
X149234500Y-67342421D01*
X149234500Y-72270500D01*
X149214815Y-72337539D01*
X149162011Y-72383294D01*
X149110502Y-72394500D01*
X149047130Y-72394500D01*
X149047123Y-72394501D01*
X148987516Y-72400908D01*
X148852671Y-72451202D01*
X148852664Y-72451206D01*
X148737455Y-72537452D01*
X148737452Y-72537455D01*
X148651206Y-72652664D01*
X148651202Y-72652671D01*
X148600908Y-72787517D01*
X148594501Y-72847116D01*
X148594501Y-72847123D01*
X148594500Y-72847135D01*
X148594500Y-72910500D01*
X148574815Y-72977539D01*
X148522011Y-73023294D01*
X148470500Y-73034500D01*
X124288743Y-73034500D01*
X124273122Y-73032775D01*
X124273095Y-73033061D01*
X124265333Y-73032326D01*
X124196172Y-73034500D01*
X124166649Y-73034500D01*
X124159778Y-73035367D01*
X124153959Y-73035825D01*
X124107374Y-73037289D01*
X124107368Y-73037290D01*
X124088126Y-73042880D01*
X124069087Y-73046823D01*
X124049217Y-73049334D01*
X124049203Y-73049337D01*
X124005883Y-73066488D01*
X124000358Y-73068380D01*
X123955613Y-73081380D01*
X123955610Y-73081381D01*
X123938366Y-73091579D01*
X123920905Y-73100133D01*
X123902274Y-73107510D01*
X123902262Y-73107517D01*
X123864570Y-73134902D01*
X123859687Y-73138109D01*
X123819580Y-73161829D01*
X123805414Y-73175995D01*
X123790624Y-73188627D01*
X123774414Y-73200404D01*
X123774411Y-73200407D01*
X123744710Y-73236309D01*
X123740777Y-73240631D01*
X117980208Y-79001199D01*
X117967951Y-79011020D01*
X117968134Y-79011241D01*
X117962123Y-79016213D01*
X117914772Y-79066636D01*
X117893889Y-79087519D01*
X117893877Y-79087532D01*
X117889621Y-79093017D01*
X117885837Y-79097447D01*
X117853937Y-79131418D01*
X117853936Y-79131420D01*
X117844284Y-79148976D01*
X117833610Y-79165226D01*
X117821329Y-79181061D01*
X117821324Y-79181068D01*
X117802815Y-79223838D01*
X117800245Y-79229084D01*
X117777803Y-79269906D01*
X117772822Y-79289307D01*
X117766521Y-79307710D01*
X117758562Y-79326102D01*
X117758561Y-79326105D01*
X117751271Y-79372127D01*
X117750087Y-79377846D01*
X117738501Y-79422972D01*
X117738500Y-79422982D01*
X117738500Y-79443016D01*
X117736973Y-79462415D01*
X117733840Y-79482194D01*
X117733840Y-79482195D01*
X117738225Y-79528583D01*
X117738500Y-79534421D01*
X117738500Y-82975255D01*
X117736775Y-82990872D01*
X117737061Y-82990899D01*
X117736326Y-82998665D01*
X117738500Y-83067814D01*
X117738500Y-83097343D01*
X117738501Y-83097360D01*
X117739368Y-83104231D01*
X117739826Y-83110050D01*
X117741290Y-83156624D01*
X117741291Y-83156627D01*
X117746880Y-83175867D01*
X117750824Y-83194911D01*
X117753336Y-83214792D01*
X117770490Y-83258119D01*
X117772382Y-83263647D01*
X117785381Y-83308388D01*
X117795580Y-83325634D01*
X117804138Y-83343103D01*
X117811514Y-83361732D01*
X117838898Y-83399423D01*
X117842106Y-83404307D01*
X117865827Y-83444416D01*
X117865833Y-83444424D01*
X117879990Y-83458580D01*
X117892627Y-83473375D01*
X117904406Y-83489587D01*
X117933168Y-83513381D01*
X117940309Y-83519288D01*
X117944620Y-83523210D01*
X118876572Y-84455163D01*
X119133197Y-84711788D01*
X119143022Y-84724051D01*
X119143243Y-84723869D01*
X119148214Y-84729878D01*
X119174217Y-84754295D01*
X119198635Y-84777226D01*
X119219529Y-84798120D01*
X119225011Y-84802373D01*
X119229443Y-84806157D01*
X119263418Y-84838062D01*
X119280976Y-84847714D01*
X119297235Y-84858395D01*
X119313064Y-84870673D01*
X119355838Y-84889182D01*
X119361056Y-84891738D01*
X119401908Y-84914197D01*
X119421316Y-84919180D01*
X119439717Y-84925480D01*
X119458104Y-84933437D01*
X119501488Y-84940308D01*
X119504119Y-84940725D01*
X119509839Y-84941909D01*
X119554981Y-84953500D01*
X119575016Y-84953500D01*
X119594414Y-84955026D01*
X119614194Y-84958159D01*
X119614195Y-84958160D01*
X119614195Y-84958159D01*
X119614196Y-84958160D01*
X119660584Y-84953775D01*
X119666422Y-84953500D01*
X121762200Y-84953500D01*
X121829239Y-84973185D01*
X121863775Y-85006376D01*
X121959174Y-85142620D01*
X121959175Y-85142621D01*
X122115378Y-85298824D01*
X122115384Y-85298829D01*
X122296333Y-85425531D01*
X122296335Y-85425532D01*
X122296338Y-85425534D01*
X122425189Y-85485618D01*
X122425781Y-85485894D01*
X122478220Y-85532066D01*
X122497372Y-85599260D01*
X122477156Y-85666141D01*
X122425781Y-85710658D01*
X122296586Y-85770903D01*
X122231812Y-85816257D01*
X122231811Y-85816258D01*
X122902554Y-86487000D01*
X122898431Y-86487000D01*
X122804579Y-86502661D01*
X122692749Y-86563180D01*
X122606629Y-86656731D01*
X122555552Y-86773177D01*
X122549894Y-86841447D01*
X121878258Y-86169811D01*
X121878257Y-86169812D01*
X121832903Y-86234586D01*
X121739579Y-86434720D01*
X121739575Y-86434729D01*
X121682426Y-86648013D01*
X121682424Y-86648023D01*
X121663179Y-86867999D01*
X121663179Y-86868000D01*
X121682424Y-87087976D01*
X121682426Y-87087986D01*
X121739575Y-87301270D01*
X121739580Y-87301284D01*
X121832899Y-87501407D01*
X121832900Y-87501409D01*
X121878258Y-87566187D01*
X122545096Y-86899349D01*
X122545051Y-86899898D01*
X122576266Y-87023162D01*
X122645813Y-87129612D01*
X122746157Y-87207713D01*
X122866422Y-87249000D01*
X122902553Y-87249000D01*
X122231811Y-87919741D01*
X122253283Y-87934776D01*
X122296908Y-87989353D01*
X122304100Y-88058851D01*
X122272578Y-88121206D01*
X122212348Y-88156619D01*
X122182159Y-88160350D01*
X117315576Y-88160350D01*
X117310170Y-88160114D01*
X117308068Y-88159930D01*
X117227758Y-88152904D01*
X117088002Y-88140677D01*
X117087998Y-88140677D01*
X116867937Y-88159929D01*
X116867929Y-88159930D01*
X116654554Y-88217104D01*
X116654548Y-88217107D01*
X116454340Y-88310465D01*
X116454338Y-88310466D01*
X116273377Y-88437175D01*
X116117175Y-88593377D01*
X115990466Y-88774338D01*
X115990465Y-88774340D01*
X115897107Y-88974548D01*
X115897104Y-88974554D01*
X115839930Y-89187929D01*
X115839929Y-89187937D01*
X115820677Y-89407997D01*
X115820677Y-89408002D01*
X115839929Y-89628062D01*
X115839930Y-89628070D01*
X115897104Y-89841445D01*
X115897105Y-89841447D01*
X115897106Y-89841450D01*
X115986660Y-90033500D01*
X115990466Y-90041662D01*
X115990468Y-90041666D01*
X116117170Y-90222615D01*
X116117175Y-90222621D01*
X116273378Y-90378824D01*
X116273384Y-90378829D01*
X116454333Y-90505531D01*
X116454335Y-90505532D01*
X116454338Y-90505534D01*
X116573748Y-90561215D01*
X116583189Y-90565618D01*
X116635628Y-90611790D01*
X116654780Y-90678984D01*
X116634564Y-90745865D01*
X116583189Y-90790382D01*
X116454340Y-90850465D01*
X116454338Y-90850466D01*
X116273377Y-90977175D01*
X116117175Y-91133377D01*
X115990466Y-91314338D01*
X115990465Y-91314340D01*
X115897107Y-91514548D01*
X115897104Y-91514554D01*
X115839930Y-91727929D01*
X115839929Y-91727937D01*
X115820677Y-91947997D01*
X115820677Y-91948002D01*
X115839929Y-92168062D01*
X115839930Y-92168070D01*
X115897104Y-92381445D01*
X115897105Y-92381447D01*
X115897106Y-92381450D01*
X115986660Y-92573500D01*
X115990466Y-92581662D01*
X115990468Y-92581666D01*
X116117170Y-92762615D01*
X116117175Y-92762621D01*
X116273378Y-92918824D01*
X116273384Y-92918829D01*
X116454333Y-93045531D01*
X116454335Y-93045532D01*
X116454338Y-93045534D01*
X116573748Y-93101215D01*
X116583189Y-93105618D01*
X116635628Y-93151790D01*
X116654780Y-93218984D01*
X116634564Y-93285865D01*
X116583189Y-93330382D01*
X116454340Y-93390465D01*
X116454338Y-93390466D01*
X116273377Y-93517175D01*
X116117175Y-93673377D01*
X115990466Y-93854338D01*
X115990465Y-93854340D01*
X115897107Y-94054548D01*
X115897104Y-94054554D01*
X115839930Y-94267929D01*
X115839929Y-94267937D01*
X115820677Y-94487997D01*
X115820677Y-94488002D01*
X115839929Y-94708062D01*
X115839930Y-94708070D01*
X115897104Y-94921445D01*
X115897105Y-94921447D01*
X115897106Y-94921450D01*
X115986660Y-95113500D01*
X115990466Y-95121662D01*
X115990468Y-95121666D01*
X116117170Y-95302615D01*
X116117175Y-95302621D01*
X116273378Y-95458824D01*
X116273384Y-95458829D01*
X116454333Y-95585531D01*
X116454335Y-95585532D01*
X116454338Y-95585534D01*
X116573748Y-95641215D01*
X116583189Y-95645618D01*
X116635628Y-95691790D01*
X116654780Y-95758984D01*
X116634564Y-95825865D01*
X116583189Y-95870382D01*
X116454340Y-95930465D01*
X116454338Y-95930466D01*
X116273377Y-96057175D01*
X116117175Y-96213377D01*
X115990466Y-96394338D01*
X115990465Y-96394340D01*
X115897107Y-96594548D01*
X115897104Y-96594554D01*
X115839930Y-96807929D01*
X115839929Y-96807937D01*
X115820677Y-97027997D01*
X115820677Y-97028002D01*
X115316500Y-97028002D01*
X115316500Y-63377187D01*
X118645500Y-63377187D01*
X118658786Y-63465327D01*
X118684604Y-63636615D01*
X118684605Y-63636617D01*
X118684606Y-63636623D01*
X118761938Y-63887326D01*
X118875767Y-64123696D01*
X118875768Y-64123697D01*
X118875770Y-64123700D01*
X118875772Y-64123704D01*
X119023567Y-64340479D01*
X119202014Y-64532801D01*
X119202018Y-64532804D01*
X119202019Y-64532805D01*
X119407143Y-64696386D01*
X119634357Y-64827568D01*
X119878584Y-64923420D01*
X120134370Y-64981802D01*
X120134376Y-64981802D01*
X120134379Y-64981803D01*
X120330500Y-64996500D01*
X120330506Y-64996500D01*
X120461500Y-64996500D01*
X120657620Y-64981803D01*
X120657622Y-64981802D01*
X120657630Y-64981802D01*
X120913416Y-64923420D01*
X121157643Y-64827568D01*
X121384857Y-64696386D01*
X121589981Y-64532805D01*
X121768433Y-64340479D01*
X121916228Y-64123704D01*
X122030063Y-63887323D01*
X122107396Y-63636615D01*
X122146499Y-63377187D01*
X182653500Y-63377187D01*
X182666786Y-63465327D01*
X182692604Y-63636615D01*
X182692605Y-63636617D01*
X182692606Y-63636623D01*
X182769938Y-63887326D01*
X182883767Y-64123696D01*
X182883768Y-64123697D01*
X182883770Y-64123700D01*
X182883772Y-64123704D01*
X183031567Y-64340479D01*
X183210014Y-64532801D01*
X183210018Y-64532804D01*
X183210019Y-64532805D01*
X183415143Y-64696386D01*
X183642357Y-64827568D01*
X183886584Y-64923420D01*
X184142370Y-64981802D01*
X184142376Y-64981802D01*
X184142379Y-64981803D01*
X184338500Y-64996500D01*
X184338506Y-64996500D01*
X184469500Y-64996500D01*
X184665620Y-64981803D01*
X184665622Y-64981802D01*
X184665630Y-64981802D01*
X184921416Y-64923420D01*
X185165643Y-64827568D01*
X185392857Y-64696386D01*
X185597981Y-64532805D01*
X185776433Y-64340479D01*
X185924228Y-64123704D01*
X186038063Y-63887323D01*
X186115396Y-63636615D01*
X186154500Y-63377182D01*
X186154500Y-63114818D01*
X186115396Y-62855385D01*
X186038063Y-62604677D01*
X186026121Y-62579880D01*
X185924232Y-62368303D01*
X185924231Y-62368302D01*
X185924230Y-62368301D01*
X185924228Y-62368296D01*
X185776433Y-62151521D01*
X185766441Y-62140753D01*
X185597985Y-61959198D01*
X185558533Y-61927736D01*
X185392857Y-61795614D01*
X185165643Y-61664432D01*
X184921416Y-61568580D01*
X184921411Y-61568578D01*
X184921402Y-61568576D01*
X184703818Y-61518914D01*
X184665630Y-61510198D01*
X184665629Y-61510197D01*
X184665625Y-61510197D01*
X184665620Y-61510196D01*
X184469500Y-61495500D01*
X184469494Y-61495500D01*
X184338506Y-61495500D01*
X184338500Y-61495500D01*
X184142379Y-61510196D01*
X184142374Y-61510197D01*
X183886597Y-61568576D01*
X183886578Y-61568582D01*
X183642356Y-61664432D01*
X183415143Y-61795614D01*
X183210014Y-61959198D01*
X183031567Y-62151520D01*
X182883768Y-62368302D01*
X182883767Y-62368303D01*
X182769938Y-62604673D01*
X182692606Y-62855376D01*
X182692605Y-62855381D01*
X182692604Y-62855385D01*
X182677853Y-62953247D01*
X182653500Y-63114812D01*
X182653500Y-63377187D01*
X122146499Y-63377187D01*
X122146500Y-63377182D01*
X122146500Y-63114818D01*
X122107396Y-62855385D01*
X122030063Y-62604677D01*
X122018121Y-62579880D01*
X121916232Y-62368303D01*
X121916231Y-62368302D01*
X121916230Y-62368301D01*
X121916228Y-62368296D01*
X121768433Y-62151521D01*
X121758441Y-62140753D01*
X121589985Y-61959198D01*
X121550533Y-61927736D01*
X121384857Y-61795614D01*
X121157643Y-61664432D01*
X120913416Y-61568580D01*
X120913411Y-61568578D01*
X120913402Y-61568576D01*
X120695818Y-61518914D01*
X120657630Y-61510198D01*
X120657629Y-61510197D01*
X120657625Y-61510197D01*
X120657620Y-61510196D01*
X120461500Y-61495500D01*
X120461494Y-61495500D01*
X120330506Y-61495500D01*
X120330500Y-61495500D01*
X120134379Y-61510196D01*
X120134374Y-61510197D01*
X119878597Y-61568576D01*
X119878578Y-61568582D01*
X119634356Y-61664432D01*
X119407143Y-61795614D01*
X119202014Y-61959198D01*
X119023567Y-62151520D01*
X118875768Y-62368302D01*
X118875767Y-62368303D01*
X118761938Y-62604673D01*
X118684606Y-62855376D01*
X118684605Y-62855381D01*
X118684604Y-62855385D01*
X118669853Y-62953247D01*
X118645500Y-63114812D01*
X118645500Y-63377187D01*
X115316500Y-63377187D01*
X115316500Y-58544500D01*
X115336185Y-58477461D01*
X115388989Y-58431706D01*
X115440500Y-58420500D01*
X189867500Y-58420500D01*
X189934539Y-58440185D01*
G37*
%TD.AperFunction*%
%TD*%
M02*
